<svg xmlns="http://www.w3.org/2000/svg" width="81.944" height="81.944" viewBox="0 0 81.944 81.944"><g transform="translate(2396.782 18283.781)" style="isolation:isolate"><path d="M40.972,0A40.972,40.972,0,1,1,0,40.972,40.972,40.972,0,0,1,40.972,0Z" transform="translate(-2396.782 -18283.781)" fill="#fff"/><path d="M13.4,2.75a11.507,11.507,0,0,1,9.571,5.007,11.675,11.675,0,0,1,17.617-1.8,10.715,10.715,0,0,1,3.355,7.782,22.746,22.746,0,0,1-3.254,11.419,37.793,37.793,0,0,1-7.05,8.635,53.231,53.231,0,0,1-10.2,7.458,1,1,0,0,1-.938,0A53.231,53.231,0,0,1,12.3,33.79a37.793,37.793,0,0,1-7.05-8.635A22.746,22.746,0,0,1,2,13.736,11.212,11.212,0,0,1,13.4,2.75Zm9.571,8.065a1,1,0,0,1-.914-.593A9.412,9.412,0,0,0,13.4,4.75,9.211,9.211,0,0,0,4,13.736c0,7.917,5.257,14.48,9.668,18.591a53.2,53.2,0,0,0,9.3,6.892A53.325,53.325,0,0,0,32.309,32.3c4.395-4.105,9.634-10.657,9.634-18.559a9.212,9.212,0,0,0-9.4-8.986,9.41,9.41,0,0,0-8.655,5.471A1,1,0,0,1,22.972,10.815Z" transform="translate(-2378.781 -18261.707)" fill="#8a7953"/></g></svg>