<svg xmlns="http://www.w3.org/2000/svg" width="81.944" height="81.944" viewBox="0 0 81.944 81.944"><g transform="translate(2396.782 18283.781)" style="isolation:isolate"><path d="M40.972,0A40.972,40.972,0,1,1,0,40.972,40.972,40.972,0,0,1,40.972,0Z" transform="translate(-2396.782 -18283.781)" fill="#fff"/><path d="M5.118,2A3.339,3.339,0,0,1,8.334,4.492l.592,2.246c.906-.02,1.817-.03,2.718-.03h0a124.121,124.121,0,0,1,30.984,3.934,1,1,0,0,1,.7,1.283,127.056,127.056,0,0,1-6.1,15.065,1,1,0,0,1-1.456.4L7.618,8.6a1,1,0,0,1-.305-.309L4.276,3.539A1,1,0,0,1,5.118,2ZM41.087,12.314A122.116,122.116,0,0,0,11.645,8.708h-.259L35.922,25.083A125.168,125.168,0,0,0,41.087,12.314ZM14.043,28.109h0c5.288,0,13.682,1.227,25.661,3.751a1,1,0,0,1-.206,1.979H6.906a1,1,0,0,1-1-1,3.842,3.842,0,0,1,1.664-3.43C8.869,28.522,10.926,28.109,14.043,28.109Zm15.11,3.73a93.73,93.73,0,0,0-15.109-1.73h0c-2.622,0-4.421.32-5.345.951a1.629,1.629,0,0,0-.642.778ZM8.458,36.55a2.571,2.571,0,1,1-2.552,2.57A2.564,2.564,0,0,1,8.458,36.55Zm0,3.141a.571.571,0,1,0-.552-.57A.562.562,0,0,0,8.458,39.691ZM34.843,36.55a2.571,2.571,0,1,1-2.552,2.57A2.564,2.564,0,0,1,34.843,36.55Zm0,3.141a.571.571,0,1,0-.552-.57A.562.562,0,0,0,34.843,39.691Z" transform="translate(-2378.125 -18262.654)" fill="#8a7953"/></g></svg>