<svg xmlns="http://www.w3.org/2000/svg" xmlns:xlink="http://www.w3.org/1999/xlink" width="529.121" height="56.361" viewBox="0 0 529.121 56.361"><defs><clipPath id="a"><rect width="529.121" height="56.361" fill="#8a7953"/></clipPath></defs><g transform="translate(0 0)"><g transform="translate(0 0)" clip-path="url(#a)"><path d="M2.576,26.279c-5-.052-1.389,2.411-.2,5s2.392,3.055,2.218,5.175c-.372,4.533-.711,9.995-.119,11.364,1.122,2.6,1.786,3.05,5.12,3.085s9.441-4.295,13.859-6.521,4.115-2.23,7.892-1.13,6.354.977,10.169-1.408,7.63-5.073,12.482-5.324a106.963,106.963,0,0,1,13.79-.157c4.24.347,5.172-1.765,4.884-3.283a11.549,11.549,0,0,0-6.433-7.8c-4.525-2.018-5.59-1.726-7.678-4.779-1.544-2.255-1.324-3.8-3.145-3.518-2.564.4-4.414,1.772-4.994-.659-.643-2.689-2.383-3.965-4.36-3.229-2.928,1.091-5.484,2.67-8.964,2.179C34,14.841,32.564,13.412,31.049,13.4c-3.334-.035-6.227,1.3-9.6,4.6-3.753,3.674-4.749,4.8-7.344,6.59S9.544,26.5,6.364,26.319a19.065,19.065,0,0,0-3.788-.041" transform="translate(0 3.988)" fill="#8a7953"/><path d="M41.9,8.38c-5.756-.212-3.963-3.648.059-5.607A30.567,30.567,0,0,1,52.593.006c5.148-.179,4.054,3.529,3.273,5.642A11.234,11.234,0,0,1,51.1,11.811c-2.744,1.638-4.863,1.313-5.608.093s-.134-1.668-.88-2.737S41.9,8.38,41.9,8.38" transform="translate(11.827 0)" fill="#8a7953"/><path d="M75.907,11.4a2.986,2.986,0,0,1,5.824.854c0,.25-.1.452-.1.6l-2.158,7.934c3.764.753,13.907,2.811,13.907,19.982a35.185,35.185,0,0,1-.753,7.431,3.114,3.114,0,0,1-2.862,1.757A2.818,2.818,0,0,1,86.952,47.1c0-.5.2-1.506.251-2.46.1-1.456.2-3.163.2-4.317,0-11.4-5.372-13.357-9.289-14.46L71.739,48.6a2.9,2.9,0,0,1-5.674-.9,2.57,2.57,0,0,1,.1-.652l6.076-21.49a44.315,44.315,0,0,0-4.418.7c-.6.151-3.215.955-3.615.955a2.349,2.349,0,0,1-2.36-2.46,2.786,2.786,0,0,1,1.656-2.561A30.7,30.7,0,0,1,73.6,20.235ZM93.329,21.691a2.777,2.777,0,0,1,.854-4.419l1-.4a3.318,3.318,0,0,1,1.055-.2A2.772,2.772,0,0,1,99,19.38l.3,7.482c0,.452-.251.753-.6.753a.356.356,0,0,1-.3-.151Z" transform="translate(19.135 2.889)" fill="#8a7953"/><path d="M114.283,11.549a2.968,2.968,0,0,1,5.774.852,1.847,1.847,0,0,1-.1.6l-2.108,7.934c3.766.8,13.908,2.861,13.908,20.034a38.752,38.752,0,0,1-.753,7.38,3.234,3.234,0,0,1-2.862,1.807,2.858,2.858,0,0,1-2.862-2.861c0-.4.251-2.159.3-2.51.151-1.808.2-3.565.2-4.368,0-11.549-5.725-13.407-9.34-14.411l-6.377,22.745a2.862,2.862,0,0,1-2.761,2.058,2.958,2.958,0,0,1-2.912-2.963,2.26,2.26,0,0,1,.1-.653l6.076-21.439a29.429,29.429,0,0,0-4.418.653c-.553.151-3.163.955-3.565.955a2.323,2.323,0,0,1-2.36-2.46,2.715,2.715,0,0,1,1.656-2.561,31,31,0,0,1,10.042-1.958Zm17.423,10.292a2.654,2.654,0,0,1-.8-1.908,2.742,2.742,0,0,1,1.656-2.51l1-.4a2.992,2.992,0,0,1,1.054-.2,2.806,2.806,0,0,1,2.762,2.71l.3,7.532a.673.673,0,0,1-.6.7.726.726,0,0,1-.351-.1Zm3.514-8.887a1.912,1.912,0,0,1-1.908-1.807,2.568,2.568,0,0,1,2.26-2.46,1.928,1.928,0,0,1,1.908,1.858,2.254,2.254,0,0,1-.3,1c-.553.8-.955,1.4-1.959,1.4m4.269,4.368a1.887,1.887,0,0,1-1.909-1.807,2.566,2.566,0,0,1,2.26-2.411,1.866,1.866,0,0,1,1.858,1.808,2.148,2.148,0,0,1-.251,1.054c-.652.854-1,1.355-1.958,1.355" transform="translate(31.008 2.687)" fill="#8a7953"/><path d="M134.535,17.083a1,1,0,0,1-.152-.4c0-.4.3-.452.5-.5l7.181.4a2.765,2.765,0,0,1,2.459,2.864,5.147,5.147,0,0,1-.2,1.155l-.3,1a2.761,2.761,0,0,1-2.561,1.507,2.791,2.791,0,0,1-2.058-.955ZM152.76,48.464a2.809,2.809,0,0,1-2.862,2.761,2.754,2.754,0,0,1-2.761-2.761V35.108a29.639,29.639,0,0,0-5.925,6.83c-.9,1.355-1.4,2.158-2.811,2.158a2.745,2.745,0,0,1-2.611-2.71c0-1.658,4.318-7.884,11.347-13.306V11.409A2.754,2.754,0,0,1,149.9,8.648a2.809,2.809,0,0,1,2.862,2.761V24.917c4.82-2.06,7.229-2.713,10.543-2.713,14.31,0,16.62,13.607,16.62,19.632,0,1.959,0,4.921-3.013,4.921a2.8,2.8,0,0,1-2.761-3.063c-.051-4.519-.1-7.48-2.058-10.995a9.92,9.92,0,0,0-9.037-5.473c-3.716,0-6.327,1.2-10.293,3.465Z" transform="translate(41.576 2.675)" fill="#8a7953"/><path d="M177.639,19.023a2.258,2.258,0,0,1-2.31-2.26,2.284,2.284,0,0,1,2.21-2.31l19.38-.5c-.1-.653-.753-3.666-.753-4.318a2.738,2.738,0,0,1,2.76-2.71c2.612,0,2.862,1.857,3.565,6.928l8.937-.251a2.285,2.285,0,0,1,2.361,2.31,2.326,2.326,0,0,1-2.26,2.31l-8.586.2a16,16,0,0,1,.251,3.264,36.939,36.939,0,0,1-1.456,11.3,35.219,35.219,0,0,1,.8,7.532c0,6.828-2.308,12.5-3.013,13.457a.627.627,0,0,1-1.1-.2l-2.912-13.555a21.47,21.47,0,0,1-5.071,1,8.19,8.19,0,0,1-8.635-8.535,8.434,8.434,0,0,1,8.786-8.736,9.077,9.077,0,0,1,6.577,2.81c.151-2.007.251-3.362.251-4.97,0-1.355-.1-2.209-.151-3.163Zm12.8,10.042a3.17,3.17,0,0,0-3.263,3.465c0,2.811,2.51,3.514,4.218,3.514,2.912,0,4.669-1.858,4.669-3.163,0-2.058-3.364-3.816-5.624-3.816" transform="translate(54.244 2.141)" fill="#8a7953"/><path d="M226.939,9.806a2.747,2.747,0,0,1,4.87,1.658c0,1.455-1.105,2.51-11.046,12a51.971,51.971,0,0,0-4.519,4.669c11.547,9.439,16.82,17.724,16.82,19.883a2.96,2.96,0,0,1-2.862,3.012c-1.707,0-2.209-.8-3.666-3.314-2.108-3.615-8.887-11.246-12.853-14.36-3.514-2.76-4.117-3.213-4.117-5.121a4.194,4.194,0,0,1,.8-2.007Z" transform="translate(64.836 2.723)" fill="#8a7953"/><path d="M238.981,19.023a2.259,2.259,0,0,1-2.311-2.26,2.284,2.284,0,0,1,2.21-2.31l19.38-.5c-.1-.653-.753-3.666-.753-4.318a2.738,2.738,0,0,1,2.76-2.71c2.612,0,2.862,1.857,3.565,6.928l8.937-.251a2.285,2.285,0,0,1,2.361,2.31,2.326,2.326,0,0,1-2.26,2.31l-8.584.2a16.117,16.117,0,0,1,.25,3.264,36.941,36.941,0,0,1-1.456,11.3,35.218,35.218,0,0,1,.8,7.532c0,6.828-2.308,12.5-3.013,13.457a.625.625,0,0,1-1.1-.2l-2.913-13.555a21.456,21.456,0,0,1-5.071,1,8.19,8.19,0,0,1-8.635-8.535,8.434,8.434,0,0,1,8.786-8.736,9.078,9.078,0,0,1,6.578,2.81c.151-2.007.25-3.362.25-4.97,0-1.355-.1-2.209-.149-3.163Zm12.8,10.042a3.171,3.171,0,0,0-3.263,3.465c0,2.811,2.51,3.514,4.218,3.514,2.912,0,4.669-1.858,4.669-3.163,0-2.058-3.364-3.816-5.624-3.816" transform="translate(73.221 2.141)" fill="#8a7953"/><path d="M288.28,9.806a2.748,2.748,0,0,1,4.871,1.658c0,1.455-1.105,2.51-11.047,12a52.18,52.18,0,0,0-4.519,4.669c11.549,9.439,16.82,17.724,16.82,19.883a2.96,2.96,0,0,1-2.862,3.012c-1.707,0-2.208-.8-3.665-3.314-2.108-3.615-8.887-11.246-12.853-14.36-3.516-2.76-4.118-3.213-4.118-5.121a4.193,4.193,0,0,1,.8-2.007Z" transform="translate(83.814 2.723)" fill="#8a7953"/><path d="M311.791,26.193a3.018,3.018,0,0,1-1.2.251,3.086,3.086,0,0,1-2.963-2.26l-.5-1.757a3.915,3.915,0,0,1-.1-.854,3.094,3.094,0,0,1,2.661-3.063l7.482-.953-2.009-5.723a2.557,2.557,0,0,1-.2-1,3.054,3.054,0,0,1,5.924-1.055l2.46,6.878,12.853-1.807a.531.531,0,0,1,.6.5.494.494,0,0,1-.351.453l-11.7,4.921,3.313,9.39,11.7-3.867a2.76,2.76,0,0,1,.8-.152,2.518,2.518,0,0,1,2.511,2.511,2.568,2.568,0,0,1-1.706,2.409l-11.6,3.966,4.519,12.653a3.7,3.7,0,0,1,.152,1.006,3.026,3.026,0,0,1-5.875,1l-4.519-12.7-12.952,4.418a2.785,2.785,0,0,1-.855.151,2.625,2.625,0,0,1-2.611-2.611,2.713,2.713,0,0,1,1.858-2.56l12.853-4.269-3.213-8.937Zm28.067-14.109A1.906,1.906,0,0,1,338,10.226a2.562,2.562,0,0,1,2.21-2.409,1.886,1.886,0,0,1,1.908,1.807,2.14,2.14,0,0,1-.253,1.055c-.6.8-1,1.4-2.007,1.4m4.267,4.368a1.87,1.87,0,0,1-1.858-1.807,2.573,2.573,0,0,1,2.21-2.46,1.912,1.912,0,0,1,1.908,1.858,2.272,2.272,0,0,1-.3,1c-.6.852-.953,1.4-1.959,1.4" transform="translate(94.987 2.402)" fill="#8a7953"/><path d="M342.742,16.819a2.731,2.731,0,0,1-2.71-2.71,2.689,2.689,0,0,1,2.71-2.662h32.837a2.517,2.517,0,0,1,2.51,2.51,2.269,2.269,0,0,1-.151.8l-13.1,34.794a.81.81,0,0,1-.8.553.847.847,0,0,1-.8-.9l3.213-32.385Z" transform="translate(105.2 3.541)" fill="#8a7953"/><path d="M382.473,12.144a3.086,3.086,0,0,1,3.063-3.112,3.128,3.128,0,0,1,3.112,3.112V47.993a3.088,3.088,0,0,1-6.175,0ZM395.528,32.63a2.811,2.811,0,0,1-1.959-2.51,3.172,3.172,0,0,1,.4-1.658l2.31-3.664a2.627,2.627,0,0,1,2.31-1.256,2.437,2.437,0,0,1,1.858.852l10.141,12.151a1.058,1.058,0,0,1,.2.5.707.707,0,0,1-.953.653Z" transform="translate(118.33 2.794)" fill="#8a7953"/></g></g></svg>