<svg xmlns="http://www.w3.org/2000/svg" width="50" height="50" viewBox="0 0 50 50"><g transform="translate(-15)"><g transform="translate(15)"><path d="M25,0A25,25,0,1,1,0,25,25,25,0,0,1,25,0Z" fill="#fffaee"/></g><path d="M106,234.125l-1.3-1.172q-2.6-2.318-4.3-3.971a27.434,27.434,0,0,1-2.669-2.943,9.009,9.009,0,0,1-1.354-2.357A6.515,6.515,0,0,1,96,221.495,5.425,5.425,0,0,1,101.495,216a5.9,5.9,0,0,1,2.474.547A5.732,5.732,0,0,1,106,218.083a5.732,5.732,0,0,1,2.031-1.536,5.9,5.9,0,0,1,2.474-.547A5.425,5.425,0,0,1,116,221.495a6.5,6.5,0,0,1-.365,2.161,8.669,8.669,0,0,1-1.341,2.318,29.388,29.388,0,0,1-2.682,2.956q-1.706,1.68-4.362,4.076Zm0-2.526q2.422-2.161,3.984-3.685a33.006,33.006,0,0,0,2.487-2.656,8.413,8.413,0,0,0,1.289-2.018,4.559,4.559,0,0,0,.365-1.745,3.558,3.558,0,0,0-3.62-3.62,3.922,3.922,0,0,0-1.706.378,4.05,4.05,0,0,0-1.367,1.055l-.911,1.068h-1.042l-.911-1.068a4.095,4.095,0,0,0-3.073-1.432,3.558,3.558,0,0,0-3.62,3.62,4.56,4.56,0,0,0,.339,1.706,8.154,8.154,0,0,0,1.237,1.966,30.831,30.831,0,0,0,2.474,2.656Q103.5,229.359,106,231.6ZM106,224.724Z" transform="translate(-66 -200.063)"/></g></svg>