<svg xmlns="http://www.w3.org/2000/svg" width="50" height="50" viewBox="0 0 50 50"><path d="M25,0A25,25,0,1,1,0,25,25,25,0,0,1,25,0Z" fill="#fffaee"/><path d="M202,298a4.979,4.979,0,1,1,3.542-1.458A4.822,4.822,0,0,1,202,298Zm-10,10v-3.333a2.854,2.854,0,0,1,.434-1.51,3.7,3.7,0,0,1,1.2-1.2,17.066,17.066,0,0,1,4.038-1.7,16.15,16.15,0,0,1,8.653,0,17.034,17.034,0,0,1,4.045,1.7,3.347,3.347,0,0,1,1.2,1.181,2.943,2.943,0,0,1,.434,1.528V308Zm2.5-2.5h15v-.833a.549.549,0,0,0-.105-.327.705.705,0,0,0-.277-.229,13.024,13.024,0,0,0-3.4-1.458,14.441,14.441,0,0,0-7.431,0,13.024,13.024,0,0,0-3.4,1.458,1.8,1.8,0,0,0-.278.268.447.447,0,0,0-.1.287Zm7.507-10a2.39,2.39,0,0,0,1.763-.737,2.427,2.427,0,0,0,.729-1.771,2.39,2.39,0,0,0-.737-1.763,2.427,2.427,0,0,0-1.771-.729,2.39,2.39,0,0,0-1.763.737,2.427,2.427,0,0,0-.729,1.771,2.39,2.39,0,0,0,.737,1.763A2.427,2.427,0,0,0,202.007,295.5ZM202,293ZM202,305.5Z" transform="translate(-177.001 -273)"/></svg>