<svg xmlns="http://www.w3.org/2000/svg" width="81.944" height="81.944" viewBox="0 0 81.944 81.944"><g transform="translate(2396.782 18283.781)" style="isolation:isolate"><path d="M40.972,0A40.972,40.972,0,1,1,0,40.972,40.972,40.972,0,0,1,40.972,0Z" transform="translate(-2396.782 -18283.781)" fill="#fffaee"/><path d="M42.943,13.736A10.2,10.2,0,0,0,32.54,3.75a10.42,10.42,0,0,0-9.569,6.065A10.421,10.421,0,0,0,13.4,3.75,10.2,10.2,0,0,0,3,13.736C3,29.757,22.972,40.364,22.972,40.364S42.943,29.757,42.943,13.736Z" transform="translate(-2378.781 -18261.707)" fill="none" stroke="#000" stroke-linecap="round" stroke-linejoin="round" stroke-width="2"/></g></svg>