<svg xmlns="http://www.w3.org/2000/svg" width="81.944" height="81.944" viewBox="0 0 81.944 81.944"><g transform="translate(2396.782 18283.781)" style="isolation:isolate"><path d="M40.972,0A40.972,40.972,0,1,1,0,40.972,40.972,40.972,0,0,1,40.972,0Z" transform="translate(-2396.782 -18283.781)" fill="#fffaee"/><path d="M2.25,3H5.118A2.334,2.334,0,0,1,7.368,4.748L8.16,7.757m4.954,18.8a6.245,6.245,0,0,0-6.208,6.282H39.5M13.114,26.557H36.329A125.609,125.609,0,0,0,42.379,11.61,123.009,123.009,0,0,0,8.16,7.757m4.954,18.8L8.16,7.757M10.01,39.12a1.552,1.552,0,1,1-1.552-1.57A1.561,1.561,0,0,1,10.01,39.12Zm26.385,0a1.552,1.552,0,1,1-1.552-1.57A1.561,1.561,0,0,1,36.395,39.12Z" transform="translate(-2378.125 -18262.654)" fill="none" stroke="#000" stroke-linecap="round" stroke-linejoin="round" stroke-width="2"/></g></svg>