<svg id="グループ_346" data-name="グループ 346" xmlns="http://www.w3.org/2000/svg" width="50" height="50" viewBox="0 0 50 50">
  <path id="パス_37487" data-name="パス 37487" d="M25,0A25,25,0,1,1,0,25,25,25,0,0,1,25,0Z" fill="#f3efb8"/>
  <path id="history_FILL0_wght400_GRAD0_opsz20" d="M154,260a9.958,9.958,0,0,1-10-10h2.143A7.85,7.85,0,1,0,154,242.143a7.678,7.678,0,0,0-3.409.762,7.586,7.586,0,0,0-2.633,2.1h3.185v2.143H144V240h2.143v3.869a9.926,9.926,0,0,1,3.408-2.827,10.02,10.02,0,0,1,8.352-.25,10.047,10.047,0,0,1,5.306,5.306,10.016,10.016,0,0,1,0,7.806,10.047,10.047,0,0,1-5.306,5.306A9.675,9.675,0,0,1,154,260Zm2.976-5.952L152.929,250v-5.714h2.143v4.821l3.423,3.423Z" transform="translate(-128.999 -224.998)" fill="#8a7953"/>
</svg>
