<svg id="グループ_346" data-name="グループ 346" xmlns="http://www.w3.org/2000/svg" width="50" height="50" viewBox="0 0 50 50">
  <path id="パス_37488" data-name="パス 37488" d="M25,0A25,25,0,1,1,0,25,25,25,0,0,1,25,0Z" fill="#f3efb8"/>
  <path id="visibility_FILL0_wght400_GRAD0_opsz48" d="M52.654-786.487a4.706,4.706,0,0,0,3.461-1.427,4.723,4.723,0,0,0,1.423-3.465,4.706,4.706,0,0,0-1.427-3.461,4.722,4.722,0,0,0-3.465-1.423,4.706,4.706,0,0,0-3.461,1.427,4.722,4.722,0,0,0-1.423,3.465,4.706,4.706,0,0,0,1.427,3.461A4.722,4.722,0,0,0,52.654-786.487Zm-.01-1.668a3.09,3.09,0,0,1-2.279-.941,3.123,3.123,0,0,1-.934-2.286,3.09,3.09,0,0,1,.941-2.279,3.123,3.123,0,0,1,2.286-.934,3.09,3.09,0,0,1,2.279.941,3.124,3.124,0,0,1,.934,2.286,3.09,3.09,0,0,1-.941,2.279A3.124,3.124,0,0,1,52.644-788.154Zm.007,5.405a12.887,12.887,0,0,1-7.591-2.386A14.538,14.538,0,0,1,40-791.374a14.538,14.538,0,0,1,5.06-6.239A12.886,12.886,0,0,1,52.651-800a12.886,12.886,0,0,1,7.591,2.386,14.538,14.538,0,0,1,5.06,6.239,14.538,14.538,0,0,1-5.06,6.239A12.887,12.887,0,0,1,52.651-782.749ZM52.651-791.374Zm0,6.9a11.57,11.57,0,0,0,6.4-1.883,12.22,12.22,0,0,0,4.442-5.017,12.232,12.232,0,0,0-4.437-5.017,11.547,11.547,0,0,0-6.4-1.883,11.57,11.57,0,0,0-6.4,1.883,12.426,12.426,0,0,0-4.471,5.017,12.437,12.437,0,0,0,4.466,5.017A11.547,11.547,0,0,0,52.646-784.474Z" transform="translate(-27.651 816.373)" fill="#8a7953"/>
</svg>
