<svg xmlns="http://www.w3.org/2000/svg" width="50" height="50" viewBox="0 0 50 50"><path d="M25,0A25,25,0,1,1,0,25,25,25,0,0,1,25,0Z" fill="#fffaee"/><path d="M53.618,212a1.792,1.792,0,0,1-1.322-.552,1.82,1.82,0,0,1-.547-1.328,1.792,1.792,0,0,1,.552-1.322,1.82,1.82,0,0,1,1.328-.547,1.792,1.792,0,0,1,1.322.552,1.82,1.82,0,0,1,.547,1.328,1.792,1.792,0,0,1-.552,1.322A1.82,1.82,0,0,1,53.618,212Zm11.247,0a1.792,1.792,0,0,1-1.322-.552A1.82,1.82,0,0,1,63,210.115a1.792,1.792,0,0,1,.552-1.322,1.82,1.82,0,0,1,1.328-.547,1.792,1.792,0,0,1,1.322.552,1.82,1.82,0,0,1,.547,1.328,1.792,1.792,0,0,1-.552,1.322A1.82,1.82,0,0,1,64.866,212ZM53.337,196.374l2.161,5h7.837l2.135-5ZM52.53,194.5h14.84a.575.575,0,0,1,.534.286.637.637,0,0,1,.039.6l-2.9,6.713a1.9,1.9,0,0,1-.68.837,1.776,1.776,0,0,1-1.028.312H55l-1.094,1.875H66.746V207H53.936a1.866,1.866,0,0,1-1.64-2.812l1.354-2.343-3.411-7.967H48V192h3.463Zm2.968,6.873h0Z" transform="translate(-34 -175.998)"/></svg>