<svg xmlns="http://www.w3.org/2000/svg" width="174.09" height="138.18" viewBox="0 0 174.09 138.18"><g transform="translate(-597.91 -60)"><g transform="translate(10865.509 23311.666)"><path d="M201.863,460.986l1.265,8.2a.218.218,0,0,1-.046.168.223.223,0,0,1-.155.083,29.893,29.893,0,0,0-5.146.874,8.724,8.724,0,0,0-2.512,1,5.439,5.439,0,0,0-1.884,2.032,5.313,5.313,0,0,0-.579,3.345,6.394,6.394,0,0,0,1.332,2.959,8.616,8.616,0,0,0,2.7,2.3.174.174,0,0,1,.066.243l-3.807,6.2a.134.134,0,0,1-.182.045,18.3,18.3,0,0,1-4.314-3.466,12.877,12.877,0,0,1-3.223-10.853,13.111,13.111,0,0,1,1.781-4.932,14.123,14.123,0,0,1,7.215-5.9.26.26,0,0,0,.166-.283l-.3-1.981a.207.207,0,0,0-.2-.177l-10.776-.061a.24.24,0,0,1-.24-.238L183,454.131a.225.225,0,0,1,.225-.225h9.545a.271.271,0,0,0,.189-.074.215.215,0,0,0,.067-.175l-.185-1.868a.292.292,0,0,0-.3-.246l-9.3-.016A.233.233,0,0,1,183,451.3v-6.668a.233.233,0,0,1,.232-.233l8.256-.016a.223.223,0,0,0,.18-.092.229.229,0,0,0,.034-.2,5.118,5.118,0,0,1-.243-1.807.415.415,0,0,1,.359-.38l6.705-.948a.341.341,0,0,1,.386.285l.425,2.848a.35.35,0,0,0,.343.3l2.259,0a.331.331,0,0,0,.232-.09l3.263-3.168a.135.135,0,0,1,.185-.005l3.44,3.189a.152.152,0,0,0,.2,0,17.669,17.669,0,0,0,2.991-3.213.346.346,0,0,1,.252-.143.357.357,0,0,1,.276.1l3.35,3.186a.127.127,0,0,1,0,.182l-3.379,3.445a.144.144,0,0,1-.2.008,30.817,30.817,0,0,1-2.922-2.943.48.48,0,0,0-.793-.029l-3.11,3.046a.918.918,0,0,0-.275.655v2.721a.2.2,0,0,1-.2.2H200.7a.214.214,0,0,0-.2.293,3.871,3.871,0,0,1,.19,1.773.285.285,0,0,0,.283.312h4.272a.214.214,0,0,1,.214.214v6.386a.3.3,0,0,1-.3.285l-3.184.055a.111.111,0,0,0-.087.043A.122.122,0,0,0,201.863,460.986Z" transform="translate(-10450.599 -23648.611)" fill="#fa9705"/><path d="M345.325,451.471l.452-.011a8.532,8.532,0,0,0,2.18.132h3.633l2.552-.037a10.829,10.829,0,0,0,2.534-.029h2.312l.793.066,1.524.111a.084.084,0,0,1,.072.05.121.121,0,0,1,0,.1l-2.6,5.693a4.743,4.743,0,0,0-.74,1.852,2.13,2.13,0,0,0-.581,1.12l-3.379,6.877a.278.278,0,0,0,.069.333q.935.822,1.815,1.76.2.217.307.013a.6.6,0,0,0,.2.462.617.617,0,0,0,.209.275.945.945,0,0,0,.264.264,14.87,14.87,0,0,1,3.5,10.689,15.538,15.538,0,0,1-4.106,9.664l-.386.639a3.155,3.155,0,0,0-.742.579,27.775,27.775,0,0,1-3.355,2.692.226.226,0,0,1-.314-.055l-4.024-5.865a.242.242,0,0,1-.037-.186.248.248,0,0,1,.109-.157,13.82,13.82,0,0,0,3.63-3.408,8.253,8.253,0,0,0,1.651-4.008,7.264,7.264,0,0,0-.9-4.446,11.741,11.741,0,0,0-2.652-3.03,20.76,20.76,0,0,0-3.324-2.33,12.476,12.476,0,0,1-1.326-.869.3.3,0,0,1-.092-.362L349.5,459.3a.211.211,0,0,0-.193-.3h-8.248a.246.246,0,0,1-.243-.246l-.058-6.851a.352.352,0,0,1,.106-.255.341.341,0,0,1,.256-.1A28.6,28.6,0,0,0,345.325,451.471Z" transform="translate(-10566.68 -23656.348)" fill="#fa9705"/><rect width="27.609" height="7.669" rx="0.6" transform="translate(-10127.104 -23204.195)" fill="#fa9705"/><path d="M540.378,502.622l.539.275.779.454a11.88,11.88,0,0,1,5.892,10.763,14.719,14.719,0,0,1-1.081,5.419,16.941,16.941,0,0,1-2.758,4.475A24.516,24.516,0,0,1,537,529.614a.143.143,0,0,1-.193-.053l-3.175-5.345a.192.192,0,0,1,.066-.248l1.469-1.059a1.2,1.2,0,0,0,.848-.645,10.926,10.926,0,0,0,3.131-3.049,9.764,9.764,0,0,0,1.857-5.1,5.547,5.547,0,0,0-.563-2.843,6.57,6.57,0,0,0-3.49-2.906,7.758,7.758,0,0,0-2.51-.6,1.073,1.073,0,0,0-.848-.082,5.094,5.094,0,0,0-2.587.148l-.476.026a6.205,6.205,0,0,0-1.77.248,28.82,28.82,0,0,0-4.436,1.453l-1.538.719a4.422,4.422,0,0,0-1.7,1.065,2.168,2.168,0,0,0-1.509.782,1.294,1.294,0,0,1-1.123,0,4.175,4.175,0,0,0-1.337-2.045,2.291,2.291,0,0,0-.645-1.324l-1.054-1.736a.207.207,0,0,1-.021-.168.189.189,0,0,1,.111-.12,3.47,3.47,0,0,0,1.152-.74l1.21-.66,1.112-.65a1.058,1.058,0,0,0,.528-.2l3.181-1.353,3.881-1.3a26.517,26.517,0,0,1,4.761-.674,1.258,1.258,0,0,0,.925-.2q.642.011,2.84.275A18.01,18.01,0,0,1,540.378,502.622Z" transform="translate(-10695.178 -23692.771)" fill="#fa9705"/><path d="M428.708,525.838a.22.22,0,0,0,.143.209,7.591,7.591,0,0,0,1,2.367l1.585,3.7a1.172,1.172,0,0,0,.452.869,1.459,1.459,0,0,0,.275.914.935.935,0,0,0,.386.473l1.316,3.4a.367.367,0,0,1-.222.462l-1.358.544-5.025,2.235a.239.239,0,0,1-.18,0,.223.223,0,0,1-.127-.121l-6.57-15.17a.3.3,0,0,1,.159-.393l2.563-1.152a1.187,1.187,0,0,0,.594-.264l3.5-1.445a.121.121,0,0,1,.1,0,.126.126,0,0,1,.065.073A23.212,23.212,0,0,0,428.708,525.838Z" transform="translate(-10625.251 -23708.59)" fill="#fa9705"/><path d="M301.443,540.847a.983.983,0,0,1,.106-.423,18.869,18.869,0,0,0,1.178-3.379.29.29,0,0,0,.077-.254.919.919,0,0,0,.346-.523q.819-2.518,2.462-6.747a.137.137,0,0,1,.172-.082l6.882,2.438a.208.208,0,0,1,.13.139.22.22,0,0,1-.035.191,2.754,2.754,0,0,0-.38.708q-2.66,7.352-5.437,14.932a.175.175,0,0,1-.09.1.171.171,0,0,1-.132.006l-6.663-2.544a.314.314,0,0,1-.177-.407Z" transform="translate(-10536.587 -23713.721)" fill="#fa9705"/><path d="M700.7,560a11.257,11.257,0,0,1-1.231-1.376.266.266,0,0,1,.029-.357l5.191-4.777a.138.138,0,0,1,.19,0A18.526,18.526,0,0,0,711.735,558a29.884,29.884,0,0,0,9.759,1.749,53.526,53.526,0,0,0,10.256-.774.192.192,0,0,1,.148.033.2.2,0,0,1,.079.131q.486,3.392,1.147,6.615.167.814-.5.824-.7.01-.732.016a72.393,72.393,0,0,1-7.429.753,40.238,40.238,0,0,1-8.639-.492,41.469,41.469,0,0,1-5.152-1.157A25.548,25.548,0,0,1,700.7,560Z" transform="translate(-10830.577 -23731.395)" fill="#fa9705"/><path d="M360.51,629.262a1.037,1.037,0,0,1,.106.8q-.079-.74-.555-.1a19.336,19.336,0,0,1-2.967,3.186.144.144,0,0,1-.2-.011l-3.292-3.194a.262.262,0,0,0-.184-.074.247.247,0,0,0-.178.077l-2.724,2.814a.462.462,0,0,0-.33.4.861.861,0,0,1-.671-.122,1.387,1.387,0,0,0-.793-.629l-2.248-2.483a.305.305,0,0,1-.079-.211.262.262,0,0,1,.09-.194,12.248,12.248,0,0,0,1.868-2.01.578.578,0,0,0,.449-.589,1.072,1.072,0,0,0,.7-.449.391.391,0,0,1,.613-.077l2.621,2.618q.016.016.264.307a.531.531,0,0,0,.911-.011l.262-.291q1.392-1.363,2.526-2.668a.355.355,0,0,1,.27-.124.361.361,0,0,1,.272.124A15.587,15.587,0,0,0,360.51,629.262Z" transform="translate(-10570.829 -23784.939)" fill="#fa9705"/><path d="M604.657,626.729a.642.642,0,0,0,.481-.018l2.634.066a.361.361,0,0,1,.351.354l.053,2.111.01.188a74.584,74.584,0,0,0,0,7.53v.066a.861.861,0,0,0,.011.689q-.143,2.645-.09,5.2,0,.135-.005.365-.032,1.126.431.161.919-1.913,1.826-3.818a1.38,1.38,0,0,1,.568.341l19.077,9.1a.164.164,0,0,1,.085.1.174.174,0,0,1-.008.131l-3.03,6.449a.273.273,0,0,1-.155.14.263.263,0,0,1-.2-.013q-2.592-1.316-5.3-2.528a4.776,4.776,0,0,0-1.112-.4.359.359,0,0,0-.275-.209,28.243,28.243,0,0,0-3.876-1.863l-.671-.24a32.879,32.879,0,0,0-5.086-2.51.336.336,0,0,0-.341-.121.291.291,0,0,0-.254-.077l-1.334-.75a.168.168,0,0,0-.166,0,.192.192,0,0,0-.1.147,10.035,10.035,0,0,0,.01,2.32.741.741,0,0,0-.005.581l.005.344a50.725,50.725,0,0,0,0,6.209.807.807,0,0,1-.061.386l.061,3.445v.793a2.985,2.985,0,0,0,0,1.453.688.688,0,0,0,.066.727,10.252,10.252,0,0,0-.066,2.576.421.421,0,0,0,0,.2l-.066,4.534a.276.276,0,0,1-.269.28l-7.257-.069a.136.136,0,0,1-.129-.137l-.092-21.45v-6.671a.65.65,0,0,0-.066-.726,21.254,21.254,0,0,0,.066-4.029.849.849,0,0,0-.048-.513,4.6,4.6,0,0,0,0-2.129V634.25l.045-4.557a.99.99,0,0,0-.066-.859.4.4,0,0,0-.055-.518l.238-1.35a.154.154,0,0,1,.143-.132Z" transform="translate(-10757.615 -23785.299)" fill="#fa9705"/><path d="M275.1,634.793v.726l.211,2.468a.259.259,0,0,0,.254.24h13.7a.288.288,0,0,1,.288.288v6.93a.179.179,0,0,1-.18.18H276.007a.174.174,0,0,0-.174.188l.5,7.363a.4.4,0,0,0,.4.375l12.634.047a.135.135,0,0,1,.135.135v7.3a.135.135,0,0,1-.137.132l-12.222.045a.236.236,0,0,0-.171.076.231.231,0,0,0-.061.175l.84,12.475a.191.191,0,0,1-.049.141.2.2,0,0,1-.136.065l-7.149.375a.189.189,0,0,1-.2-.174l-.943-12.792a.37.37,0,0,0-.367-.341l-12.734-.045a.136.136,0,0,1-.135-.135L256,653.793a.239.239,0,0,1,.07-.172.244.244,0,0,1,.173-.071H268.42a.25.25,0,0,0,.178-.074.227.227,0,0,0,.065-.175l-.468-7.321a.371.371,0,0,0-.375-.341l-11.638-.016a.182.182,0,0,1-.182-.182V638.4a.177.177,0,0,1,.177-.177h11.207a.231.231,0,0,0,.169-.073.236.236,0,0,0,.063-.175l-.27-5.561a.24.24,0,0,1,.064-.177.251.251,0,0,1,.173-.08l6.655-.314q.515-.024.568.425Z" transform="translate(-10504.313 -23789.08)" fill="#fa9705"/><path d="M461.774,637.492l.534-.032a1.64,1.64,0,0,0,.925.066l9.712.029,2.808.047h2.372a.253.253,0,0,1,.188.085.247.247,0,0,1,.06.2q-.666,5.278-1.81,10.354a.8.8,0,0,0-.264.66,1.083,1.083,0,0,0-.045.595l-.021.066a5.383,5.383,0,0,0-.386.859,57.156,57.156,0,0,1-2.576,6.869A70.367,70.367,0,0,1,461.565,675.7q-.2.23.016.4a.347.347,0,0,0-.341.209l-1.646,1.73-.732.911a1.614,1.614,0,0,1-1.229.774.611.611,0,0,0-.769-.346.089.089,0,0,1-.079-.012.083.083,0,0,1-.035-.07,1.149,1.149,0,0,0-.51-1.006,7.375,7.375,0,0,0-1.049-1.036q-1.11-.9-1.144-.927-.771-.708-1.342-1.339a.55.55,0,0,1,.122-.954,2.741,2.741,0,0,0,.959-1.017q.637-.267-.09-.584a.24.24,0,0,1-.058-.4,2.141,2.141,0,0,1,.7-.4q.711-.217.734-.233a2.8,2.8,0,0,0,.943-.925,35.309,35.309,0,0,0,3.836-4.938q1.3-1.749,3.26-4.991a7.5,7.5,0,0,0,.766-1.535.441.441,0,0,0,.143-.254,2.229,2.229,0,0,0,.412-.589,54.1,54.1,0,0,0,4.75-12.1.938.938,0,0,0,.106-.616.16.16,0,0,0-.164-.127l-1.472.026-15.521-.066a.91.91,0,0,0-.415.013l-.51.053a3.679,3.679,0,0,0-.991-.077q-2.8.074-7.067-.061a.137.137,0,0,1-.135-.135l-.079-7.284a.136.136,0,0,1,.135-.137l5.363-.056,1.387-.066h1.255a.21.21,0,0,0,.132,0Q456.5,637.7,461.774,637.492Z" transform="translate(-10641.864 -23793.209)" fill="#fa9705"/></g><text transform="translate(654 80)" fill="#fa9705" font-size="20" font-family="YuGothic-Bold, Yu Gothic" font-weight="700"><tspan x="0" y="0">岐阜市民の</tspan></text><g transform="translate(605.062 76.289)"><path d="M163.506,9.828c.155-.155.29-.271.406-.406.232-.251.406-.445.5-.541a13.566,13.566,0,0,0,2.262-3.17c.348-.793.367-1.276-.058-1.45a1.368,1.368,0,0,0-.5-.174,1.037,1.037,0,0,0-.967.5,8.6,8.6,0,0,0-.6,1.1q-.174.348-.348.754c-.058.135-.116.271-.174.425-.058.135-.116.271-.174.425a1.863,1.863,0,0,1-.271.445c-.155.232-.367.5-.638.851a10.818,10.818,0,0,1-2.59,2.242,13.573,13.573,0,0,1-4.427,1.72,9.592,9.592,0,0,1-1.334.232c-.445.077-.909.116-1.373.155-.464.058-.947.077-1.431.1-.232.019-.483.019-.715.039-.251,0-.483,0-.735.019-1.952.019-3.944-.039-5.877-.077-1.933-.058-3.789-.116-5.49-.155-3.383-.116-6.128-.193-7.423-.232s-4.021-.077-7.423-.116c-3.4-.019-7.462-.039-11.405.1-.986.039-1.972.077-2.919.155a26.8,26.8,0,0,0-2.822.329c-.232.039-.464.077-.677.135a6.909,6.909,0,0,0-.677.193,11.808,11.808,0,0,0-1.237.5,10.6,10.6,0,0,0-2.03,1.353,14.619,14.619,0,0,0-1.45,1.45q-.609.7-1.044,1.218a9.724,9.724,0,0,1-1.083,1.179c-.251.174-.5.329-.735.483-.155.1-.29.174-.425.251a.559.559,0,0,0,.213-.213,2.23,2.23,0,0,0,.271-1.2,4.325,4.325,0,0,0-.5-2.01,5.588,5.588,0,0,0-.754-1.1c-.155-.174-.329-.348-.5-.522a6.773,6.773,0,0,0-.58-.464,10.608,10.608,0,0,0-2.01-1.16c-.251-.116-.541-.232-.851-.348-.309-.1-.619-.213-.967-.309-.348-.116-.7-.193-1.083-.29-.387-.077-.773-.174-1.179-.232a38.535,38.535,0,0,0-5.49-.5c-1.991-.039-4.06.019-6.167.058-4.214.1-8.486.271-12.024.406s-6.341.232-7.6.251c-1.257.058-4.06.116-7.6.174-.889.019-1.817.019-2.784.039-.967,0-1.972.019-2.977.019-1.025,0-2.049-.019-3.112-.019-1.044-.019-2.107-.019-3.151-.058l-1.566-.058c-.522-.019-1.025-.058-1.546-.1-.967-.077-1.952-.193-2.9-.329s-1.875-.309-2.745-.522a22.025,22.025,0,0,1-2.4-.735,12.268,12.268,0,0,1-1.952-.909,10.178,10.178,0,0,1-1.431-.967A6.036,6.036,0,0,1,22.93,7.354,6.389,6.389,0,0,1,22.1,5.44a14.855,14.855,0,0,1-.232-1.469,1.492,1.492,0,0,0-.039-.29c-.019-.1-.019-.174-.039-.251s-.019-.155-.039-.213a.349.349,0,0,0-.039-.193.54.54,0,0,0-.464-.367,1.016,1.016,0,0,0-.522,0c-.271.077-.619.329-.7,1.025A4.789,4.789,0,0,0,20.185,5.3a4.887,4.887,0,0,0,1.044,1.972c.058.077.174.251.387.522a8.157,8.157,0,0,0,.851.986,11.65,11.65,0,0,0,3.422,2.3,21.871,21.871,0,0,0,5.355,1.566c1.005.174,2.049.29,3.112.387.541.039,1.063.077,1.624.1.541.019,1.083.058,1.643.077,4.369.116,8.873.058,12.643-.019,3.77-.058,6.8-.155,8.235-.193,1.431-.058,4.465-.155,8.235-.271s8.254-.271,12.6-.309c1.083-.019,2.165,0,3.228,0s2.088.039,3.074.116a27.156,27.156,0,0,1,5.316.831,11.688,11.688,0,0,1,3.48,1.508,4.339,4.339,0,0,1,1.2,1.141A6.03,6.03,0,0,1,96.2,17.6c.1.464.116.87.155,1.141a1.231,1.231,0,0,0,.522.947,1.248,1.248,0,0,0,.5.174.373.373,0,0,0,.29-.019c-.058.039-.116.058-.174.1a8.221,8.221,0,0,1-.909.387,1.081,1.081,0,0,0-.445.309,1.061,1.061,0,0,0-.232.406c-.039.135-.058.271-.077.367v.155a.451.451,0,0,0,.348.483,1.961,1.961,0,0,0,1.16-.019A4.1,4.1,0,0,0,99,21.079a8.014,8.014,0,0,0,.773-.831c.251-.309.483-.638.735-.986.174-.232.561-.793,1.141-1.546a11.387,11.387,0,0,1,2.474-2.436,8.631,8.631,0,0,1,1.933-.986,11.991,11.991,0,0,1,2.378-.5c1.72-.213,3.6-.329,5.49-.406,3.77-.155,7.636-.155,10.825-.135s5.722.077,6.843.116c1.121.019,3.654.1,6.843.213s7.056.271,10.845.348a35.754,35.754,0,0,0,5.606-.251,16.5,16.5,0,0,0,4.871-1.334A13.478,13.478,0,0,0,163,10.234,4.63,4.63,0,0,0,163.506,9.828Z" fill="#ff8000"/></g></g></svg>