<svg xmlns="http://www.w3.org/2000/svg" xmlns:xlink="http://www.w3.org/1999/xlink" width="376.037" height="40.055" viewBox="0 0 376.037 40.055">
  <defs>
    <clipPath id="clip-path">
      <rect id="長方形_3909" data-name="長方形 3909" width="376.037" height="40.055" fill="#8a7953"/>
    </clipPath>
  </defs>
  <g id="グループ_18679" data-name="グループ 18679" clip-path="url(#clip-path)">
    <path id="パス_38994" data-name="パス 38994" d="M1.83,22.406c-3.554-.037-.987,1.713-.145,3.553s1.7,2.171,1.576,3.678c-.264,3.222-.505,7.1-.085,8.076.8,1.847,1.269,2.167,3.638,2.192s6.709-3.052,9.849-4.634,2.925-1.585,5.608-.8a7.691,7.691,0,0,0,7.227-1c2.71-1.695,5.422-3.6,8.871-3.784a76.016,76.016,0,0,1,9.8-.112c3.013.247,3.676-1.254,3.471-2.333A8.208,8.208,0,0,0,47.07,21.7c-3.216-1.434-3.973-1.226-5.457-3.4-1.1-1.6-.941-2.7-2.235-2.5-1.822.284-3.137,1.259-3.549-.468-.457-1.911-1.694-2.818-3.1-2.295-2.081.775-3.9,1.9-6.371,1.548-2.2-.31-3.217-1.326-4.294-1.337-2.369-.025-4.426.922-6.819,3.266A35.844,35.844,0,0,1,10.028,21.2c-1.844,1.273-3.245,1.366-5.505,1.235a13.549,13.549,0,0,0-2.692-.029" transform="translate(0 -0.896)" fill="#8a7953"/>
    <path id="パス_38995" data-name="パス 38995" d="M40.835,5.956c-4.091-.151-2.817-2.593.042-3.985A21.723,21.723,0,0,1,48.437,0c3.659-.127,2.881,2.508,2.326,4.01a7.984,7.984,0,0,1-3.384,4.379c-1.95,1.164-3.456.933-3.986.066s-.095-1.186-.625-1.945-1.933-.559-1.933-.559" transform="translate(-2.655 0)" fill="#8a7953"/>
    <path id="パス_38996" data-name="パス 38996" d="M71.839,10.8a2.122,2.122,0,0,1,4.139.607c0,.178-.072.321-.072.428l-1.534,5.638c2.675.535,9.883,2,9.883,14.2a25.006,25.006,0,0,1-.535,5.281,2.213,2.213,0,0,1-2.034,1.249,2,2,0,0,1-2-2.034c0-.356.142-1.07.179-1.749.071-1.035.142-2.248.142-3.068,0-8.1-3.818-9.493-6.6-10.276L68.877,37.243a2.061,2.061,0,0,1-4.032-.643,1.827,1.827,0,0,1,.072-.463l4.318-15.272a31.493,31.493,0,0,0-3.14.5c-.429.107-2.285.678-2.569.678a1.669,1.669,0,0,1-1.677-1.749,1.98,1.98,0,0,1,1.177-1.82A21.815,21.815,0,0,1,70.2,17.082Zm12.382,7.315a1.973,1.973,0,0,1,.607-3.141l.713-.286a2.358,2.358,0,0,1,.75-.142,1.97,1.97,0,0,1,1.963,1.926l.214,5.317c0,.321-.179.535-.428.535a.253.253,0,0,1-.214-.107Z" transform="translate(-4.295 -0.649)" fill="#8a7953"/>
    <path id="パス_38997" data-name="パス 38997" d="M110.215,10.721a2.109,2.109,0,0,1,4.1.606,1.312,1.312,0,0,1-.072.429l-1.5,5.638c2.676.57,9.884,2.033,9.884,14.237a27.541,27.541,0,0,1-.535,5.245,2.3,2.3,0,0,1-2.034,1.284,2.031,2.031,0,0,1-2.034-2.033c0-.286.179-1.534.214-1.784.107-1.285.143-2.534.143-3.1,0-8.207-4.068-9.528-6.638-10.242l-4.532,16.165a2.034,2.034,0,0,1-1.963,1.463,2.1,2.1,0,0,1-2.07-2.106,1.606,1.606,0,0,1,.072-.464l4.318-15.236a20.915,20.915,0,0,0-3.14.464c-.393.107-2.248.678-2.534.678a1.651,1.651,0,0,1-1.677-1.749,1.93,1.93,0,0,1,1.177-1.82A22.031,22.031,0,0,1,108.539,17ZM122.6,18.035a1.886,1.886,0,0,1-.57-1.356A1.949,1.949,0,0,1,123.2,14.9l.714-.285a2.126,2.126,0,0,1,.749-.143,1.994,1.994,0,0,1,1.963,1.926l.214,5.353a.478.478,0,0,1-.428.5.516.516,0,0,1-.249-.073Zm2.5-6.316a1.359,1.359,0,0,1-1.356-1.284,1.825,1.825,0,0,1,1.606-1.749,1.371,1.371,0,0,1,1.356,1.32,1.6,1.6,0,0,1-.214.714c-.393.57-.678,1-1.392,1m3.034,3.1a1.341,1.341,0,0,1-1.357-1.284,1.823,1.823,0,0,1,1.606-1.713,1.326,1.326,0,0,1,1.32,1.285,1.526,1.526,0,0,1-.179.749c-.463.607-.713.963-1.391.963" transform="translate(-6.96 -0.604)" fill="#8a7953"/>
    <path id="パス_38998" data-name="パス 38998" d="M134.491,14.643a.713.713,0,0,1-.108-.285c0-.286.214-.321.357-.357l5.1.285a1.965,1.965,0,0,1,1.748,2.035,3.659,3.659,0,0,1-.142.821l-.214.713a1.962,1.962,0,0,1-1.82,1.071,1.984,1.984,0,0,1-1.463-.678Zm12.952,22.3a2,2,0,0,1-2.034,1.963,1.957,1.957,0,0,1-1.963-1.963V27.453a21.064,21.064,0,0,0-4.211,4.854c-.642.963-1,1.534-2,1.534a1.951,1.951,0,0,1-1.856-1.926c0-1.178,3.069-5.6,8.064-9.456V10.611a1.957,1.957,0,0,1,1.963-1.963,2,2,0,0,1,2.034,1.963v9.6c3.425-1.464,5.138-1.928,7.493-1.928,10.17,0,11.812,9.67,11.812,13.952,0,1.392,0,3.5-2.141,3.5a1.989,1.989,0,0,1-1.963-2.177c-.036-3.211-.072-5.316-1.463-7.814a7.05,7.05,0,0,0-6.423-3.89c-2.641,0-4.5.856-7.315,2.462Z" transform="translate(-9.332 -0.601)" fill="#8a7953"/>
    <path id="パス_38999" data-name="パス 38999" d="M176.97,15.522a1.6,1.6,0,0,1-1.641-1.606,1.623,1.623,0,0,1,1.571-1.641l13.773-.356c-.072-.464-.535-2.606-.535-3.069A1.946,1.946,0,0,1,192.1,6.923c1.856,0,2.034,1.32,2.534,4.924l6.351-.179a1.624,1.624,0,0,1,1.678,1.641,1.653,1.653,0,0,1-1.606,1.641l-6.1.142a11.368,11.368,0,0,1,.179,2.32,26.252,26.252,0,0,1-1.035,8.028,25.029,25.029,0,0,1,.57,5.353,21.069,21.069,0,0,1-2.141,9.563.445.445,0,0,1-.784-.143l-2.07-9.633a15.258,15.258,0,0,1-3.6.713,5.821,5.821,0,0,1-6.137-6.065,5.994,5.994,0,0,1,6.244-6.209,6.451,6.451,0,0,1,4.674,2c.107-1.427.179-2.39.179-3.532,0-.963-.072-1.57-.107-2.248Zm9.1,7.136a2.253,2.253,0,0,0-2.319,2.462c0,2,1.784,2.5,3,2.5,2.07,0,3.318-1.32,3.318-2.248,0-1.463-2.391-2.712-4-2.712" transform="translate(-12.176 -0.481)" fill="#8a7953"/>
    <path id="パス_39000" data-name="パス 39000" d="M221.913,9.516a1.952,1.952,0,0,1,3.461,1.178c0,1.034-.785,1.784-7.85,8.528a36.934,36.934,0,0,0-3.211,3.318c8.207,6.708,11.954,12.6,11.954,14.13a2.1,2.1,0,0,1-2.034,2.14c-1.213,0-1.57-.57-2.606-2.355a51.357,51.357,0,0,0-9.134-10.205c-2.5-1.962-2.926-2.284-2.926-3.639a2.98,2.98,0,0,1,.571-1.427Z" transform="translate(-14.553 -0.612)" fill="#8a7953"/>
    <path id="パス_39001" data-name="パス 39001" d="M238.312,15.522a1.606,1.606,0,0,1-1.642-1.606,1.623,1.623,0,0,1,1.571-1.641l13.773-.356c-.072-.464-.535-2.606-.535-3.069a1.946,1.946,0,0,1,1.962-1.926c1.856,0,2.034,1.32,2.534,4.924l6.351-.179A1.624,1.624,0,0,1,264,13.309a1.653,1.653,0,0,1-1.606,1.641l-6.1.142a11.454,11.454,0,0,1,.178,2.32,26.253,26.253,0,0,1-1.035,8.028,25.029,25.029,0,0,1,.57,5.353,21.068,21.068,0,0,1-2.141,9.563.445.445,0,0,1-.784-.143l-2.07-9.633a15.248,15.248,0,0,1-3.6.713,5.821,5.821,0,0,1-6.137-6.065,5.994,5.994,0,0,1,6.244-6.209,6.451,6.451,0,0,1,4.675,2c.107-1.427.178-2.39.178-3.532,0-.963-.071-1.57-.106-2.248Zm9.1,7.136a2.254,2.254,0,0,0-2.319,2.462c0,2,1.784,2.5,3,2.5,2.07,0,3.318-1.32,3.318-2.248,0-1.463-2.391-2.712-4-2.712" transform="translate(-16.436 -0.481)" fill="#8a7953"/>
    <path id="パス_39002" data-name="パス 39002" d="M283.254,9.516a1.953,1.953,0,0,1,3.462,1.178c0,1.034-.785,1.784-7.851,8.528a37.085,37.085,0,0,0-3.211,3.318c8.207,6.708,11.954,12.6,11.954,14.13a2.1,2.1,0,0,1-2.034,2.14c-1.213,0-1.569-.57-2.6-2.355a51.358,51.358,0,0,0-9.134-10.205c-2.5-1.962-2.927-2.284-2.927-3.639a2.98,2.98,0,0,1,.571-1.427Z" transform="translate(-18.813 -0.612)" fill="#8a7953"/>
    <path id="パス_39003" data-name="パス 39003" d="M310.411,20.862a2.145,2.145,0,0,1-.856.179,2.193,2.193,0,0,1-2.106-1.606l-.356-1.249a2.782,2.782,0,0,1-.072-.607,2.2,2.2,0,0,1,1.891-2.177l5.317-.677L312.8,10.657a1.817,1.817,0,0,1-.142-.714,2.17,2.17,0,0,1,4.21-.75l1.749,4.888,9.134-1.284a.377.377,0,0,1,.429.356.351.351,0,0,1-.249.322l-8.314,3.5,2.354,6.673,8.315-2.748a1.961,1.961,0,0,1,.57-.108,1.789,1.789,0,0,1,1.785,1.785,1.825,1.825,0,0,1-1.213,1.712l-8.244,2.819L326.4,36.1a2.631,2.631,0,0,1,.108.715,2.15,2.15,0,0,1-4.175.714L319.117,28.5l-9.205,3.14a1.979,1.979,0,0,1-.608.107,1.866,1.866,0,0,1-1.856-1.856,1.928,1.928,0,0,1,1.32-1.819l9.134-3.034-2.284-6.351Zm19.946-10.027a1.355,1.355,0,0,1-1.32-1.32A1.821,1.821,0,0,1,330.608,7.8a1.34,1.34,0,0,1,1.356,1.284,1.521,1.521,0,0,1-.18.75c-.428.57-.713,1-1.427,1m3.033,3.1a1.329,1.329,0,0,1-1.32-1.284,1.828,1.828,0,0,1,1.571-1.749A1.359,1.359,0,0,1,335,12.227a1.615,1.615,0,0,1-.214.714c-.429.606-.677,1-1.392,1" transform="translate(-21.321 -0.54)" fill="#8a7953"/>
    <path id="パス_39004" data-name="パス 39004" d="M341.958,15.265a1.941,1.941,0,0,1-1.926-1.926,1.911,1.911,0,0,1,1.926-1.892h23.336a1.789,1.789,0,0,1,1.784,1.784,1.613,1.613,0,0,1-.107.571L357.659,38.53a.575.575,0,0,1-.57.393.6.6,0,0,1-.571-.642L358.8,15.265Z" transform="translate(-23.614 -0.795)" fill="#8a7953"/>
    <path id="パス_39005" data-name="パス 39005" d="M382.473,11.244a2.193,2.193,0,0,1,2.177-2.212,2.223,2.223,0,0,1,2.212,2.212V36.721a2.194,2.194,0,0,1-4.388,0ZM391.751,25.8a2,2,0,0,1-1.392-1.784,2.254,2.254,0,0,1,.286-1.178l1.642-2.6a1.867,1.867,0,0,1,1.642-.892,1.732,1.732,0,0,1,1.32.606l7.207,8.636a.752.752,0,0,1,.142.356.5.5,0,0,1-.677.464Z" transform="translate(-26.561 -0.628)" fill="#8a7953"/>
  </g>
</svg>
