<svg xmlns="http://www.w3.org/2000/svg" xmlns:xlink="http://www.w3.org/1999/xlink" width="117.334" height="127.121" viewBox="0 0 117.334 127.121"><defs><clipPath id="a"><rect width="117.334" height="127.121" fill="#ce4074"/></clipPath></defs><g clip-path="url(#a)"><path d="M60.151,65.307H55.489V63.293h4.662V62.286h2.015v1.007h1.809v2.014H62.166v4.887c0,4.235-1.474,6.006-1.474,6.006l-1.772-.951a5.831,5.831,0,0,0,.933-2.238c-2.22-.037-3.264-1.007-3.264-2.742,0-1.66,1.529-2.667,3.562-2.723Zm-.112,4.962a.718.718,0,1,0-.709.728.725.725,0,0,0,.709-.728" transform="translate(-22.557 -25.32)" fill="#ce4074"/><path d="M84.246,65.364v4.5h1.119v2.015H84.246V73.03c0,2.182-.335,3.861-3.208,3.861V74.876c1.081,0,1.194-.653,1.194-2.145v-.858H80.068c0,1.081-.187,2.984-2.5,2.984a2.252,2.252,0,0,1-2.5-2.332,2.67,2.67,0,0,1,2.984-2.667V66H76.188V63.984h3.88v5.875h2.163v-4.5Zm-6.08,6.4c-.8,0-1.175.205-1.175.634a.518.518,0,0,0,.578.541c.56,0,.6-.466.6-1.175" transform="translate(-30.516 -26.01)" fill="#ce4074"/><path d="M104.607,63.293v2.015H102.35l-.578,8.58H99.758l.578-8.58h-1.38V63.293h1.529l.056-1.007h2.033l-.075,1.007Zm4.924,10.427.56,1.94s-.447.541-3.208.541c-2.779,0-3.842-.653-3.842-3.562h2.014c0,1.4.373,1.548,2.126,1.548a3.879,3.879,0,0,0,2.35-.466m-5.409-6.453h4.887v2.014h-4.887Zm2.388-1.959h-1.157V62.92h1.157Zm1.716,0H107.07V62.92h1.156Z" transform="translate(-40.226 -25.32)" fill="#ce4074"/><path d="M124.036,75.04V63.1h10v1.612h-8.386v8.714h8.386V75.04Zm9.162-9.118a10.733,10.733,0,0,1-1.746,3.537l1.642,1.448-1.074,1.208-1.612-1.432a12.015,12.015,0,0,1-3.253,2.328l-.85-1.358a12.674,12.674,0,0,0,2.85-2.089l-2.074-1.836,1.075-1.208,2.044,1.82a10.63,10.63,0,0,0,1.477-2.97Z" transform="translate(-50.421 -25.651)" fill="#ce4074"/><path d="M26.462,138.315c-.25.623,0,1.48-.531,1.9-.25.182-.25.415-.468.415-.531.415-.531.623,0,.831.218.441.468.441.218.857v.182c.531,0,.531.233.531.466a1.814,1.814,0,0,1,.25,1.636c0,.442.25,1.091,0,1.48,0,.415.25.857-.25,1.246v.208a1.545,1.545,0,0,1-.281,1.48,4.83,4.83,0,0,1-2.749,1.9c-.531.208-.781,0-1.25,0a12.826,12.826,0,0,1-2.811.208,1.4,1.4,0,0,1-1.25-.649v-.415c0-.389-.25-.8,0-1.246V148.6c-.25-.831,0-1.869-.25-2.726a5.949,5.949,0,0,0,0-2.1v-.415a2.243,2.243,0,0,0,.25-1.246v-3.972a6.535,6.535,0,0,0-.25-2.31v-1.065c.25-.207.25-.623.25-1.038v-.831a1.148,1.148,0,0,1,.781-.442c.719,0,1.5-.208,2-.208.25,0,.5,0,.5.208H22.4c0-.208.5-.208.781,0a6.337,6.337,0,0,1,1.281.649c.25.208.25.208.469.208a3.91,3.91,0,0,1,1.281,1.453,7.509,7.509,0,0,1,.5,2.311,2.193,2.193,0,0,1-.25,1.246m-7.81-3.557h0Zm0,10.67a.625.625,0,0,1-.25.442c.25.208.25-.182.25-.182.25,0,.469,0,.469-.26Zm0,1.065h0v.234c0,.208,0,.208.25.208v-.208c-.25,0-.25,0-.25-.234m0,1.453h0Zm0-10.021v.208c.25,0,.25,0,.25-.208Zm.469,2.934c.25,0,.25,0,.25-.233,0,0,.281,0,0-.233v-.182c-.25,0-.25.182-.25.415v.233H18.9v-.233h-.25v0h.25v.233h.219v0Zm-.469.389v0Zm.25,3.791-.25.182c.25,0,.25,0,.25-.182m-.25,3.141v0Zm.25-4.829v-.208a.207.207,0,0,1,.219.208v.208c0,.207-.219.207,0,.207h0v-.415s.25,0,.25-.208H18.9s-.25.208,0,.208v0Zm.219-9.866h0Zm-.219.234v0Zm0,2.7v-.208h.219v0H18.9Zm0,6.308v0Zm.219-3.141c-.219,0-.219,0,0,.208Zm.25-3.557h0Zm-.25,1.661v0Zm0,.831h.25l.281.234v-.442c-.281,0-.281.208-.531.208m0,3.167v0Zm0,3.349h0Zm0,3.765v0Zm.25.857h0Zm.281-13.007c-.281,0-.281,0-.281.208v.208h.281v-.415Zm0,.624h-.281v.207Zm0,2.518h0Zm-.281,1.246h.5v.208h.281c0-.208-.281-.208-.281-.208,0-.182-.218-.182-.5,0v0Zm0,7.763h0Zm.5-6.7V141.9h-.218c-.281,0,0,0,0,.208Zm0-9.009-.218.208c.218,0,.218,0,.218.181Zm-.218,7.114h.218V140a.211.211,0,0,0-.218.208m0,1.246h0v0Zm0,1.505h0Zm0,1.87v0Zm.218,5.037v-.208h0Zm0-16.148v0Zm0,1.246v0Zm.531-.208v0Zm3.03,4.829a3.493,3.493,0,0,0,.5-1.454,4.085,4.085,0,0,0-.25-1.713c0-.831-.25-1.247-1.281-1.455a1.176,1.176,0,0,0-1.75,1.065,2.2,2.2,0,0,0-.25,1.247v2.1c.25.207.25.207.25.415.25.208.5.208,1,.208h.281c.469,0,1.25,0,1.5-.415m-3.03,1.661.25.208H20.4Zm3.53,3.167a7.28,7.28,0,0,0-.25-1.064A1.8,1.8,0,0,0,22.4,142.5a1.427,1.427,0,0,0-1.5.233c-.25,0-.25.233-.25.415,0,.415-.25,1.064,0,1.453v.234a4.835,4.835,0,0,0-.25,1.9v.415a1.164,1.164,0,0,0,1.031,1.246c.75,0,1.218-.208,1.75-.208a.234.234,0,0,0,.25-.234,3.315,3.315,0,0,0,.5-1.661v-1.246c0-.208-.25-.442,0-.623M20.9,141.69h0Zm0-8.2v0Zm0,7.762h.25c0-.208-.25-.208-.25-.208Zm.531-7.321c.218-.208.218-.208,0-.442v.442c-.281,0,0,0,0,.208h0Zm.218,7.321c-.218,0-.5.442-.5.442h.281l.218-.233Zm-.218-.389.218-.233h-.218v.233c.218,0,.218.182.5,0,0-.233-.281,0-.5,0m.218,9.009h0Zm.281-15.733h0Zm.25,15.291c0-.182,0-.182-.25-.415h-.281c0,.234,0,.234.281.234l.25.182h0Zm0-7.737v0h0Zm0,7.971v-.234h-.25c.25,0,.25,0,.25.234m0-16.174v0Zm.219,7.762v-.208h.25c-.25.208-.25.208-.25.416.25.441.25.441.5.233l-.25-.233h0c0-.208,0-.208-.25-.416,0,.208-.219.208,0,.208m0-7.113v-.208h.25c0,.208.25.208.25.416h.281v-.208h0c0,.208-.281.208-.281.208,0-.208-.25-.208-.25-.208v-.208H22.4Zm.25-.415h0Zm.25,15.291h-.25v.234l.25.182c0-.182.281-.182,0-.182h-.25v-.234Zm0,.857v-.208c0,.208-.25.208,0,.208m.281-1.065v0h0Zm0-15.707v0Zm0,16.33.25.234v-.234Zm.25-15.707c0,.208,0,.208.25.208,0-.208-.25,0-.25,0Zm.5,1.038h0Zm0,6.283h.219c0-.182-.219,0-.219,0v-.182h0Zm-.25.208v0Zm0,7.555v0Zm0,.623v0Zm.25-15.707v0Zm.531,1.453c-.312,0-.312-.208-.312-.208h0v.208Zm-.312,5.219h0Zm-.219,1.064v.233h.219Zm.219,6.49s-.219.234,0,.234Zm.312-8.152h-.312V140s0-.208.312-.208m-.312,2.7h.312v-.182h-.312Zm.312-8.568v0Zm.25.623v0h0Zm-.25,5.036v0Zm0,3.375c.25,0,.25,0,.25-.233h-.25Zm0,.182v.208h.25a.219.219,0,0,0-.25-.208m.469,4.621a.83.83,0,0,1-.218.415v.208h0v-.208h.218c0-.234.25-.415,0-.415h0Zm-.218-11.735h0Zm.218,7.944v-.208h-.218a.207.207,0,0,0,.218.208m.531-6.905c-.281,0-.281-.208-.531-.208a.311.311,0,0,0,.531.208m-.531.623h.25l-.25-.207Zm0,.234v0Zm.25,1.012c0-.182,0-.182-.25-.182,0,0,0,.182.25.182m-.25.649v0Zm0,4.829v0Zm.531.182h-.281v.234s-.25,0-.25.208a.219.219,0,0,0,.25-.208s.281,0,.281-.234m-.531.623v.208c.25,0,.25,0,.25-.208Zm0,1.922v0Zm.531-11.735h0Zm0,8.152h0Zm0,1.661c.218,0,.218-.182,0-.182Zm.218.208v-.208h-.218Zm-.218,0v0Zm.218-6.906v0Zm.25,5.686v0Z" transform="translate(-7.163 -53.756)" fill="#ce4074"/><path d="M39.652,145.309v-2.727c.25-.208.25-.208,0-.415v-1.48c0-.442.25-.857,0-1.246V137.1a8.332,8.332,0,0,1,0-2.492v-.857c-.25-.623,0-.857.5-1.065a.982.982,0,0,1,.531-.208.529.529,0,0,1,.75,0,.855.855,0,0,1,.5.208,1.008,1.008,0,0,1,.5.857c-.218.415,0,1.065,0,1.454,0,.415,0,1.064-.5,1.272,0,.208,0,.208.281.208a1.2,1.2,0,0,1,.218.831c0,.442.25.857-.218,1.272v.207a1.27,1.27,0,0,1,.218.831,3.349,3.349,0,0,0,0,1.48,1.919,1.919,0,0,1-.218,1.064,4.565,4.565,0,0,0,.218,1.688,2.621,2.621,0,0,1-.218,1.246,2.159,2.159,0,0,0,.218,1.038v1.48c-.218.233-.218.441,0,.856v1.662c-.218.415-.218.649-.75.857-.5,0-1,.415-1.531,0-.25-.208-.25-.442-.5-.649a5.779,5.779,0,0,1,0-2.077v-2.959Zm.781-10.1v.208h.25c0-.208,0-.208-.25-.208m.25,1.687a.219.219,0,0,0-.25.208h.25Zm.75,8c-.25-.234-.25-.234-.5-.234,0-.208,0-.415-.5-.415.5.415.5.415,0,.649.25.208.25,0,.5-.234.25.234.25.442.5.234M40.683,135h0Zm.25,1.272h-.25v0Zm-.25.208v0Zm0,1.272h0Zm0,.831v0Zm.5,4.205c-.25,0-.25,0-.25.208h-.25c.25,0,.5,0,.5-.208m-.5.857v.208a.219.219,0,0,1,.25.208v-.208l-.25-.208c.25,0,.5,0,.25-.208h-.25c.25,0,.25,0,.25-.234-.25,0-.25,0-.25.234Zm0,1.87c.25-.208,0-.208,0-.208Zm.25,3.556v-.182s0,.182-.25.182c0,.234.25,0,.25,0m0,1.065h0Zm.25-15.525h0Zm-.25.8c.25.208.25,0,.25,0Zm0,1.9.25.234v-.234l-.25-.208Zm0,1.48.25.234v0s.25,0,.25.208v-.208c0-.234,0-.234-.5-.234v0Zm0,1.039v0h0Zm0,2.544h.25v-.208c-.25-.208,0-.208,0-.208h0c-.25,0-.25,0,0,.208-.25,0-.25,0-.25.208m0,4.622c.25.208.25.208.5,0Zm0,1.272a.219.219,0,0,0,.25.208v-.208Zm.25-14.513v.208h.25c-.25,0-.25,0-.25-.208m0,.857h0Zm0,1.869v0c.25,0,0,0,0-.208Zm.25,1.688c0-.208,0-.208-.25-.208a.219.219,0,0,0,.25.208m0,9.242v0h0Zm0-1.48h0m.25-8.619h0Zm-.25,10.956v0Zm0,1.039c.25,0,0-.234,0-.234Z" transform="translate(-16.074 -53.792)" fill="#ce4074"/><path d="M51.36,146.649v-12.1c.218-.208,0-.623,0-1.039a1.236,1.236,0,0,1,.218-.857c.563-.234.782-.415,1.062-.415h2.781a5.856,5.856,0,0,1,3.343.831,2.905,2.905,0,0,1,1.5,1.688c.25.441.25,1.09.531,1.713v.831c-.281.234-.281.234-.281.415.281.234.281.442,0,.649v.623c-.25.649-.5,1.506-.75,2.362h-.281c-.5.182-.5.6-.718,1.039-.281,0-.281.208,0,.415a13.56,13.56,0,0,0,1,3.194,7.735,7.735,0,0,0,.5,2.1c.25.649.531,1.272.75,1.921.281.415-.219.857-.75,1.039-.781,0-1.78-.182-2.03-1.039a1.15,1.15,0,0,1-.25-.831c0-.233,0-.441-.25-.441-.281,0-.281-.208-.281-.415a9.236,9.236,0,0,0-.219-1.065c-.281-.623-.281-1.064-.531-1.48a.73.73,0,0,1-.25-.649,2.164,2.164,0,0,0-.75-1.687c0-.234-.281-.415-.781-.415-.531,0-.531.182-.75.649,0,.415-.281.623,0,1.039,0,.415-.281.649-.281.83,0,.857.281,1.506.281,2.363v.623c-.281.208-.281.649,0,1.064v.415c-.281.857-.781,1.272-2.03.857a1.006,1.006,0,0,1-.781-.857v-3.375Zm.781-8.7v0Zm0,1.9h0Zm0,4.258h0Zm.5,4.232c0-.234-.281,0-.281,0v-.415h0v.415h.281v0Zm-.281,1.272c0-.234,0-.234-.219-.234v.234Zm0-15.915h0c-.219,0-.219.234,0,.234Zm.281,3.842c0-.234,0-.234-.281-.234v.234h.281Zm0-2.985H52.36c0-.208.281-.208,0-.208v.208s0,.208.281.208c.25,0,0-.208,0-.208h0Zm-.281.649h.281v-.233c0,.233-.281.233-.281.233m0,.182v0Zm0,2.57h.281v.208h0v-.208Zm.531.856v-.233h-.25c0,.233.25.233.25.233m-.531,1.454v0Zm.281,3.427H52.36c.281,0,.531,0,.531.182h.219v-.182a4.118,4.118,0,0,0-.75-.649.731.731,0,0,0,.281.649m0,.8c0,.234,0,.234.25.234v-.234Zm-.281,1.3V146h.281c0-.208,0,0-.281,0,0-.208.281-.208,0-.208m0,.623Zm.281-10.8s.25.234.25,0c.219-.234.5-.234.5-.415-.281,0-.75.182-.75.415m0,2.752h0Zm0,1.9s.25,0,.25-.182c.219,0,0-.234,0-.234a.234.234,0,0,0-.25.234Zm.25,2.778h0Zm-.25,2.518.25-.182h-.25Zm.25,1.713a.219.219,0,0,0-.25.208h.25Zm-.25.415c.25.234.25.234.469.234l-.219.182h.219l-.219-.182v-.234h-.25Zm.25,1.272h0Zm0-15.889h0Zm0,3.816c.219,0,.219.234.219,0Zm0,2.337h.219l-.219-.233Zm.219.208h0Zm0,1.921v-.233s0,.233-.219.233Zm0,.6v.233c0-.233.281-.233.281-.233a.246.246,0,0,0,.281.233h0v-.415c0-.233-.281-.233-.281-.233a.246.246,0,0,0,.281.233v.182H53.11v-.182l-.219-.233c0,.233,0,.233.219.233,0,0-.219,0-.219.182Zm-.219.649h.219v-.208h0v.208Zm1-9.32v-.208l.281.208c.219-.208,0-.208,0-.208,0-.208-.281-.208-.281-.208v.649h-.219c-.281-.234-.281-.234-.562,0h.781Zm-.5,15.266c0-.208,0-.208-.281-.208,0,.208,0,0,.281,0Zm0-13.786h.281v.208s-.281,0-.281-.208m0,2.778v0Zm.5-3.193c-.219,0-.219,0-.219.208h0c0-.208,0-.208.219-.208m-.219,6.153v0Zm.5.415h0Zm3.562-4.881c-.281-1.272-1.813-1.48-2.812-1.064h-.25c-.281.415-.781.649-.5,1.064v.623c0,.233-.281.467,0,.467a6.743,6.743,0,0,1,0,2.1v.623c.219.415.5.415.75.649a2.347,2.347,0,0,0,2.031-.234,2.151,2.151,0,0,0,1.031-1.039v-1.687c0-.415-.25-1.065-.25-1.506m-3.062,5.5H54.39c0,.233,0,.233.281.233Zm.25-8.256h0a.234.234,0,0,0,.25.234Zm0,.649v0Zm0,8.022v0Zm.25-8.879v0Zm.531,9.32c.218,0,.218.208.5.415h.25c.25.234.25.234.5-.208l.281.208v-.415h0v.208H56.7c0-.208.25-.208,0-.208h-.25c0,.208,0,0,.25,0,0,.208.25.208.25.208v.208H56.2c0-.208-.281-.415-.5-.415v0Zm.5-8.7h-.281c0,.234.281.234.281.234Zm0,7.841c.25,0,.25-.182.25-.182s0,.182-.25.182m.25-7.841v-.182c-.25,0-.25.182,0,.182h0Zm.78,8.074c-.281,0-.281.182-.281.182h.281v-.182h.219a.219.219,0,0,0-.219-.233Zm.5-.856v.623c.25.233.25,0,.25,0,0-.182,0-.182-.25-.415v-.208h-.281v.208h0v-.208Zm-.5,2.544v.234h0Zm0,1.272v.233l.219-.233Zm0,.649h0Zm.219-1.064h.281c0-.208-.281-.208-.281-.208Zm.281-9.97s-.281,0,0,.208h.25c0-.208-.25-.208-.25-.208m0,10.8c0,.234,0,.234.25.234-.25,0-.25,0-.25-.234m.25,1.065.25-.208.25.208V146l-.25-.208h-.25l-.25-.234v.234s0,.415.25.415c0,.208,0,.208.25,0Zm0-12.1h.25v.234l.25-.234h-.5Zm0,11.034v0Zm.25,2.129c-.25,0,0,0,0,.208,0-.208.25-.208,0-.415Zm.531-12.513v-.208c-.281,0-.281.208-.281.208h.281Zm-.531,12.072v0Zm0,1.09h.25s0-.234-.25,0m.25-7.659h0Zm0,6.387v.182h.281c-.281,0,0-.182-.281-.182m.281-11.449h0Zm0,1.687h0Zm.218,2.544h0v0h0Zm-.218,7.841a.211.211,0,0,0,.218-.208c-.218,0-.218,0-.218.208m.218,1.065h0Zm0,.856c0,.182,0,.182.281.182h0c-.281,0-.281-.182-.281-.182h0Zm0-11.241v0Zm.781-1.921c-.281,0-.5,0-.5.208h.5Zm-.281,1.506h-.218c0,.182.218.182.218,0v0Zm-.218,10.151v0Zm0,.415v.442c.218,0,.218,0,.218-.208h-.218Zm.218-9.528h0Zm.281-.857v0Zm0,11.891v0Z" transform="translate(-20.878 -53.756)" fill="#ce4074"/><path d="M78.524,132.4c.281,0,.5-.208.781-.208.5,0,.719.208,1,.208.25,0,.78-.208,1.03-.208.5,0,1,.208,1.5.208.281.207.5.207.5.441.282.208.282.415.282.857a.647.647,0,0,1-.282.623,1.34,1.34,0,0,1-1,.415c-.5,0-.718.208-1.25.208a2.5,2.5,0,0,0-.78.856V149.28a2.786,2.786,0,0,1-.281,1.48,1.76,1.76,0,0,1-2,0c-.5-.415-.219-.831-.219-1.48-.281-.623,0-1.506-.281-2.337a3.239,3.239,0,0,1,.281-1.48c0-.208,0-.208-.281-.442a1.312,1.312,0,0,1,.281-1.427v-.234c-.562-.415,0-.831,0-1.48-.281-.182-.281-.6-.281-1.012a6.391,6.391,0,0,0,0-2.31c0-.234.281-.442.281-.857a4.514,4.514,0,0,1-.281-1.9c0-.649-.5-.856-1.312-.856-.5,0-.719-.208-1.218-.208-.281-.208-.5-.415-.5-.623-.281-.649,0-1.065.5-1.713a.969.969,0,0,1,.719-.208h1.312c.5.208,1,0,1.5.208m-3.03,1.3s0,.208.219,0h-.219v0Zm.5-.649v.208h.218c0-.208,0-.208-.218-.208m.5.857h-.281s.281,0,.281.208h0Zm.531.208v0Zm.219-.649c.281,0,.281,0,.281-.208-.281,0-.281,0-.281.208m.281.649v-.208c-.281,0,0,.208,0,.208v0Zm0-1.065h0Zm.281.649c-.281-.234-.281-.234-.281,0,.281.208.281.208.281,0m.219.415v.415h0a.241.241,0,0,0,0-.415Zm.281-.415c0-.234-.281-.442-.281-.442v.442Zm0,1.662h0v0Zm0-2.1v.208c.218,0,.218,0,.218-.208Zm0,1.688h.218c-.218-.208-.218-.208-.218,0m.5,1.272s-.281-.208-.281,0c-.218,0,0,0-.218-.208v.415c.218,0,.5,0,.218-.208h.281a.211.211,0,0,1,.218-.208.211.211,0,0,0-.218.208m-.5.623h0Zm.218,2.337h-.218c.218.208.218.208.218,0m0,.415h0Zm.281,4.179h-.281c0,.234,0,.234-.218.415h.218l.281-.181Zm-.5,1.065h0Zm.218.415h0Zm.281,1.688s0-.182-.281-.182c.281,0,.281,0,.281-.233a.246.246,0,0,1-.281.233.192.192,0,0,1-.218.182v0Zm-.281-6.724c0-.208.281-.208.281-.208s-.281,0-.281.208m0,1.064v0Zm.281.6h0Zm-.281,3.817v.208c0-.208.281-.208.281-.208.218,0,.218,0,.218-.234l-.218.234Zm1,1.662h-.219c-.281.233,0,.233,0,.415h-.5c-.281.234,0,.415-.281.649h.281c.218,0,0-.234,0-.415h.218a.247.247,0,0,0,.281-.234h.219v-.415ZM78.806,133.7v0Zm.218,1.039h-.218v.208a.211.211,0,0,1,.218-.208m.281,1.9v-.208c-.281.208-.5,0-.5.208h.5Zm-.281.831h0Zm0,3.167h-.218c.218,0,.218.233.218.233Zm.281,5.711h-.281V145.9a.207.207,0,0,0-.218.208c0,.233,0,.233.218.233Zm-.5,3.168h0Zm.5-16.045c.219,0,.219,0,.219-.208a.207.207,0,0,0-.219.208c0,.234-.281,0-.281.234,0,0,.281,0,.281-.234v0Zm-.281,3.583v0h.281v0Zm0,2.129h0Zm0,.415v0Zm.281,3.765s0,.234.219.234a.219.219,0,0,0-.219-.234h0Zm-.281.649h.281v.181l.219.234v-.234c0-.181,0-.181-.219-.181h-.281Zm0,.6v0Zm.5-10.281c0,.208.281.208.281.208s.219-.208,0-.208h-.281a.207.207,0,0,0-.219-.208v.208Zm0,.415h0Zm-.219,6.958h0v0Zm0,1.454h.219a.211.211,0,0,0-.219-.208Zm.219,5.686c0-.182-.219-.182-.219-.182v.182Zm.281-14.928h0Zm.5.623h0c0-.208.5-.208.25-.415h.25a.219.219,0,0,0-.25-.208v.208c-.25,0-.25.208-.25.415m.78-1.065v0Zm.25.649h0Zm.282-.208V133.7c-.282,0-.282.208-.282.208Zm.218-.857c-.218,0-.218,0-.218.208h.218Zm.281,1.065v-.208s0,.208-.281.208Z" transform="translate(-30.237 -53.739)" fill="#ce4074"/><path d="M103.871,144.57v-.623c0-1.039-1.312-1.48-2.343-1.246a1.607,1.607,0,0,0-1.218,1.636,1.112,1.112,0,0,1,0,1.09v.182a5.031,5.031,0,0,1,0,2.363c.188.415,0,.831,0,1.246a.993.993,0,0,1-.281,1.272c-.218.442-.5.623-1.249.623a1.006,1.006,0,0,1-1.031-.856,3.031,3.031,0,0,1-.281-1.454c0-.208.281-.415.5-.415a.821.821,0,0,1-.5-.831,4.686,4.686,0,0,1,.281-1.947v-3.323a6.668,6.668,0,0,1,0-2.363V137.2a5.422,5.422,0,0,1,0-2.129v-1.013a.777.777,0,0,1,0-1.065c.5-.856,1.031-.856,2.062-.623.218.182.5.415.5.623,0,.415.188.649,0,1.065v.208a9.256,9.256,0,0,1,0,2.284c.188.649,0,1.272.188,1.921,0,0,0,.208-.188.208,0,.415,0,.623.188.8.281.857.812.857,1.843.857h.218a1.106,1.106,0,0,0,1.032-.415c0-.182.281-.623.281-.831v-4.024c0-.572-.281-1.246,0-1.843,0-.234.219-.234.219-.442,0-.234.281-.234.5-.234.281,0,.531-.182.812-.182.5,0,1,.182,1,.623a1.555,1.555,0,0,1,.218.831v7.192a5.706,5.706,0,0,1-.218,1.9c0,.415.218.6.218,1.039v2.518a9.73,9.73,0,0,1-.218,2.518c0,.415.218.675.218,1.09a.763.763,0,0,1-.718.857,2.22,2.22,0,0,1-1.531,0c-.5-.234-.5-.675-.5-1.09v-3.557a2.715,2.715,0,0,1,.219-1.3c-.219,0-.219-.233-.219-.415m-5.623-11.164h0Zm.25,6.75c.281,0,.281,0,.281-.234H98.5Zm.281,4.18a.246.246,0,0,0-.281.233.246.246,0,0,1,.281-.233m-.281,1.687c.281,0,.281,0,.281-.182Zm.281,2.778h0c0-.208-.281-.208-.281-.208h0Zm0-12.877h0Zm0,.441h0ZM99,139.482V139.3h-.218c0,.182,0,.182.218.182m0,1.532s-.218-.234-.218,0H99Zm-.218,4.179a.211.211,0,0,0,.218-.208h-.218Zm0,2.778Zm0,1.012v0Zm.5-15.344s-.281,0-.281.182h.281ZM99,134.5v0Zm.281,2.467h0ZM99,138.469h0Zm0,1.013v0Zm.281,1.091H99c0,.208.281.208.281.208Zm0,2.57H99v.182h.281ZM99,144.156h.281v.182c.25.233,0,.233.25.415v-.415s0-.182-.25-.182Zm.281,1.453v-.182a.247.247,0,0,1-.281-.234c0,.234,0,.234.281.234-.281,0-.281.182,0,.182h0Zm0,4.232v.233h0Zm.25-10.93h0Zm0,7.114h0Zm0-10.1v0Zm0,6.542h.281c.218-.182.218,0,.218-.182H99.81v.182Zm0,1.039v0Zm.781-3.167h-.281c0-.182,0-.182-.218-.415h0c0,.234.218.234.218.415h.281v0Zm-.5.442c.218,0,.218.234.218.234h.281v-.234h-.5v0Zm1.218,1.064h-.25c-.281.208-.281.208-.469.208h.188c.281,0,.281,0,.281-.208Zm-.719-.415h0Zm1-.415v.182h.219v0s-.219,0-.219-.182m.219,1.038h.281v-.208c-.281,0-.281,0-.281.208m1.031-.208c.281,0,0,0,0-.233v.233h0Zm.281-.83v0h0m0,.415a.449.449,0,0,0,.5,0Zm.5-.415v0h0Zm.25.83v.208c.281,0,.281-.208.281-.208v-.233s-.281,0-.281.233m.78.623h0Zm.219-1.687v-.208s0-.234-.219-.234c0,.234,0,.234.219.234v.208h0Zm.531,1.064h-.531c-.219.208-.219.442,0,.442l.281.182a.628.628,0,0,1-.281-.623h.281v0Zm-.531-7.347v0Zm.281,1.013h-.281c0,.181,0,.181.281.181Zm0,8s-.281,0-.281.234h.281Zm0-6.1h.531c0-.208,0-.208-.281-.208a.219.219,0,0,1-.25.208v-.442c-.281,0-.281.234,0,.234Zm0-2.337c.25,0,.25-.182.531-.182a.61.61,0,0,0-.531.182v0Zm.25,3.167v-.182h0v.182c0-.182-.25,0,0,0m.5,2.1a.192.192,0,0,1-.219-.182.219.219,0,0,0,.219-.234.192.192,0,0,1-.219-.182h0v.415h-.281c0-.234,0-.234-.25,0v0h.531c0,.182,0,.182.219.182v0Zm-.75,2.986v0Zm.25,1.246h-.25s0,.182.25.182v-.415h.281Zm-.25.415v0Zm0,.623h0Zm0,2.363v0Zm0,1.687.25.182v-.182Zm.25-15.837v.234h.281l-.281-.234v0Zm.281,2.726h-.281c0,.234,0,.234.281,0m0,1.09h0Zm0,2.934h0Zm0,.208s-.281,0-.281.234h.281Zm-.281,1.921h0Zm0,2.492h0Zm0,.649v0Zm.281,2.31h0v0Zm-.281.442h0Zm.281-14.954h0Zm.219,2.051c0-.181,0-.181-.219-.181v.181c.219,0,.219,0,.219-.181Zm-.219,5.738v.182c0,.233.219,0,.219,0a.192.192,0,0,0-.219-.182m.219.415H105.4v.208h.219Zm0-3.375h0v0Zm0-.831v0Zm0,6.309v0Zm0,4.024v0Zm0,.831v0Z" transform="translate(-39.621 -53.755)" fill="#ce4074"/><path d="M126.387,132.655h.218c.75.442,1.75.857,2.031,1.9a4.862,4.862,0,0,1,.75,3.141c0,.208-.25.389,0,.8v2.752c-.25.233-.25.441,0,.441v1.246a.554.554,0,0,0,0,.831c0,.208,0,.649-.25.831,0,.233.25.649.25.856a12.035,12.035,0,0,1-.5,2.934c0,.415-.531,1.038-.75,1.453a2.307,2.307,0,0,1-1.25.649h-.281c-.75.623-1.78.441-2.811.623a5.571,5.571,0,0,0-1.75,0,4.219,4.219,0,0,1-1.25-.415l-.281-.208c.281-.415,0-.649,0-1.065v-3.141a8.152,8.152,0,0,1,0-2.31c0-.415-.218-.6.281-.831v-.208c-.5-.415-.281-.831-.281-1.246v-.441a6.733,6.733,0,0,1,0-2.1v-.831a.905.905,0,0,1,0-1.039v-2.96c0-.389-.218-.8.281-1.22v-.234c0-.208,0-.208.25-.415.25,0,.781-.208,1-.208h1.249a15.815,15.815,0,0,1,3.093.415m-5.093,1.48h.25v-.208h.281c0,.208,0,.208.219.208a.211.211,0,0,0-.219-.208h-.281v.208Zm.25,2.077h0Zm-.25,1.869h0Zm.25.415c0,.234-.25.234-.25.234v.208a.219.219,0,0,0,.25-.208V138.5l.281-.182v0h0c-.281,0-.281.182-.281.182m0,3.791c-.25,0-.25,0-.25.233h.25Zm-.25,6.1.25.233c0-.233,0,0-.25-.233v0Zm.531-10.93h0Zm-.281,2.96h.281c0-.208-.281,0-.281-.208Zm0,.415h0Zm.281.856h0Zm.219,2.285v.208h-.219v-.208h-.281v.208h.5Zm-.219,2.077c0-.182,0-.182-.281-.182v.182Zm0,3.791c0-.182-.281-.182-.281-.182v.182Zm.219-13.215a.211.211,0,0,0-.219-.208c-.281.208,0,.208,0,.208Zm-.219-3.115h0Zm0,1.22h0Zm0,1.272v0Zm0,5.062v0Zm0,1.662v0Zm0,2.1h.219V144.6c-.219,0-.219,0-.219.233m.5.182v-.182c-.281,0-.281,0-.281.182h.281Zm-.281,2.129h0Zm-.219,1.064v.182a.219.219,0,0,1,.219.233s.281,0,.281-.233a.526.526,0,0,1-.5-.182m.219-10.93v-.234c-.219.234,0,.234,0,.234m0,4.6h.281v-.182h0v.182h-.281c-.219.233,0,.415,0,.649.281-.233,0-.415,0-.649m0-7.14h0Zm.281,1.48h-.281c0,.207,0,.207.281.207Zm-.281,4v0Zm0,.623h0v.233c.281,0,.281,0,.281-.233Zm0,2.1v.208h.281c0-.208,0-.208-.281-.208m.281.831h0Zm0,5.037s.219,0,.219-.182h-.219v.182h-.281v.233c.281.208,0,.208,0,.208,0,.182,0,.182.281.415h.75v-.234c-.281,0-.531,0-.531.234h-.219a.629.629,0,0,0-.281-.623V148.8Zm0-9.866v-.208s-.281,0,0,.208m0-5.245v.234h0Zm0,1.272v.208h.219a.207.207,0,0,0-.219-.208m0,1.039v0Zm0,3.141v.207h.219Zm.219-4.6h.25v0Zm0,.182c0,.234.25.234.25.234v-.234Zm.25-1.22v-.234c-.25,0-.25.234,0,.234v0Zm.5,14.046c0,.415.5.831.781,1.064h.25c.25-.233.25,0,.5-.233a2,2,0,0,0,1.281-.415,2.342,2.342,0,0,0,.5-1.272,6.789,6.789,0,0,1,0-2.1v-.182c-.218-.649.281-1.272,0-1.687v-5.686a1.233,1.233,0,0,0-.218-.83c-.281-1.039-1.031-1.48-2.312-1.246a1.021,1.021,0,0,0-1,1.039,3.373,3.373,0,0,1,0,2.077c0,.234.218.415.218.649-.218.208,0,.415,0,.623v.857a.716.716,0,0,1-.218.623c-.281.233.218.415.218.649-.218.805,0,1.9-.218,2.7v.233c.218.182.218.415.218.831-.218.389,0,.8-.218,1.246.218.415,0,.649.218,1.065m0-14.461v-.234s0,.234-.218.234Zm0,.6c-.218,0-.218,0-.218.234.218,0,0,0,.218-.234-.218,0-.218,0,0-.182h0Zm0,15.344h-.218a.207.207,0,0,0,.218.208Zm.281-14.72c0-.182-.281-.182-.281-.182,0,.182,0,.182.281.182m0-.8v0Zm.219.182c0,.234,0,.234.281.234v-.234Zm.531.442h0Zm-.25,15.525h0v0Zm.5-.234v0h0m.25-15.733c-.25-.182-.25,0-.25,0s0,.234.25,0m.25-.182h.281s0,.182.25.182v-.182c0-.234-.25,0-.25,0Zm.281,15.915h0v0Zm0-15.11v0Zm0,15.759h0Zm.5-15.941h0Zm.25,14.669h-.25c0,.233,0,.233-.25.233v.208l.25-.208V148.8Zm0-15.11v-.182l-.25.182Zm0,.623h.281c0,.234-.281.234,0,.234v-.234Zm.281-.623v0Zm.218,14.928h-.218v.182h.218Zm0,1.039h-.218c0,.182.218.182.218,0m0-.623v0Zm.5-.233Zm0-13.63v0Zm0,.831h.25v-.182Zm.75,1.453h-.218l-.282-.182c0,.182.282.182.282.182Zm0-2.284v0c-.218,0-.218,0-.218-.208,0,.415.218.208.218.208m-.218,1.453c.218,0,.218.234.218.234v-.234Zm0,3.375h.218l-.218-.208Zm0,2.1h.218v-.233c-.218.233,0,.233-.218.233,0,.182,0,.182.218.415,0-.233-.218-.233-.218-.415m0,.831h0v0Zm.218-6.724v0Zm0,1.687v0Zm.282,3.582h-.282v0Zm0,2.285h0Zm-.282,1.869h0Zm.5-7.736a.207.207,0,0,0-.218-.208.211.211,0,0,0,.218.208s0,.182.281.182c-.281,0-.281-.182-.281-.182m-.218.415h0Zm0,.623h.218v0h-.218v0Zm0,1.272v0Zm0,.856v.182h.5a.525.525,0,0,1-.5-.182m0,2.908v0Zm.5-4.18h-.281V140c.281,0,.281,0,.281-.208" transform="translate(-48.923 -53.756)" fill="#ce4074"/><path d="M147.284,136.563c.25.623.25,1.039.468,1.687v.857c.281,1.22.531,2.311.813,3.324.25,1.272.75,2.751,1,4a4.341,4.341,0,0,0,.5,1.713v.208a1.034,1.034,0,0,0,.281.831,1.509,1.509,0,0,1-.281,1.48,1.372,1.372,0,0,1-.75.415,1.9,1.9,0,0,1-2.03-1.246,5.027,5.027,0,0,0-.25-1.921,1.978,1.978,0,0,0-2.062-1.013,2,2,0,0,0-1.75.805v.208c0,.233,0,.233-.218.441-.281.182,0,.623,0,1.039,0,.234-.281.442-.281.623-.25.857-1.5,1.065-2.281.857-.25-.208-.5-.415-.5-.623a4.965,4.965,0,0,1,.25-1.9c0-.441.25-.831.25-1.454.25-.467.25-1.09.5-1.713.281-.83,0-2.1.5-2.934a6.348,6.348,0,0,0,.531-2.1V139.7c.25-.831.5-1.843.75-2.7a1.06,1.06,0,0,1,.281-.857v-.623a3.491,3.491,0,0,1,.218-1.48.219.219,0,0,0,.25-.208c-.25-.623.282-1.246,1.031-1.454.25-.234.468-.234.468,0,.563,0,.813,0,1.031.208.281,0,.281.182.531.415,0,.623.219,1.039.219,1.662,0,.182,0,.649.281.856.25.208.25.415.25.857Zm-6.342,13.267v0Zm.281-.208v-.234s-.281,0,0,.234m.219-2.727h0c0,.182,0,.182-.219.182h.219Zm.25-.467v.259h-.25c0,.208.25,0,.25,0h.281s-.281,0-.281-.259m0,1.09h0Zm-.25,2.311h0Zm.25-4.855v0Zm0,3.79h0Zm.281-4.18v.182h0Zm0-.883v0Zm0,5.686h.25c-.25-.208-.25-.208-.25,0m.25-6.309h.25c0-.208,0-.208-.25-.208Zm.25,1.272c-.25-.208-.25,0-.25,0Zm-.25.415h0Zm1,1.921H143v.208c0-.208,0-.467-.281-.467-.25,0,0,.259,0,.259h-.5v.208c.25,0,.25,0,.25-.208,0,.208.25.208.25.208v.182c.281,0,.281-.182.281-.182.218,0,.218,0,.218-.208m-.75-5.711h.25V140.8c-.25,0-.25.182-.25.182m.25-1.272H143V139.5c-.281,0-.281,0-.281.208m.281,2.96v-.233l-.281.233Zm0,.831v-.208h-.281c0,.208,0,.208.281.208-.281,0-.281.208,0,.208,0,.208,0,0,.218,0H143Zm-.281,1.09v.182H143c0-.182-.281-.182-.281-.182m.281-5.712s0,.234.218,0v-.208a.207.207,0,0,0-.218.208m.218.831-.218.234h.218Zm0,5.478c-.218,0-.218,0-.218.234h.218Zm0-7.321v.182s0-.182.25-.182Zm0,.623v0Zm0,.623v.208h.25c-.25,0-.25,0-.25-.208m0,1.688h0Zm0,1.453v0Zm0,3.557h0Zm.25-6.932c.282,0,.282-.208.282-.208h-.282Zm0,1.454h0Zm.282,4.648h0c.25.207.25.207.468.207-.218-.207-.218-.207-.468-.207m.25-8.412-.25-.182v.182Zm1.78,4.414a6.773,6.773,0,0,1-.563-2.1h-.468v1.454c-.25.883-.531,1.921-.75,2.96,0,.415,0,.623.5.857a.673.673,0,0,0,1.031.208c.469-.208.75-.442.75-.857a1.788,1.788,0,0,1-.281-1.064,2.368,2.368,0,0,1-.219-1.22Zm-1.281,5.063c0-.234,0-.442-.281-.234-.218.234.281.234.281.234m-.281-11.995c.281,0,.281-.208.281-.208,0-.208-.281-.208-.281-.208Zm0,.415v.208h.281s0-.208-.281-.208m0,.389v0Zm0,1.532v0Zm.281.8v0h0Zm.25-1.246h0Zm0,.831v-.208h-.25a.219.219,0,0,0,.25.208m.218-3.375h-.218v.234c.218,0,.218,0,.218-.234m-.218,12.41a.219.219,0,0,0,.218.234v.182c0-.182,0-.415-.218-.415m.468-12.176v.208h0Zm.313.6h-.313c0-.182,0-.182-.25-.182v.182c.25.234.25,0,.25,0Zm-.313,1.09h-.25c.25,0,.25.208.25.415Zm0,1.454h0Zm0-.389v0Zm0,.8h0Zm.313.857c-.313,0-.313-.182-.313,0Zm.25-1.272c0-.208,0-.208-.25,0h.25Zm-.25,8.2h0Zm0,.623v0Zm.25-10.489a.773.773,0,0,0,.219-.441h-.219Zm0,1.272c.219,0,.219-.234.219-.442-.219,0-.219.208-.219.442m0,1.22h0Zm0,.883v.389a.211.211,0,0,1,.219-.208v-.181Zm.5.83h0m.25-1.272h-.25s0,.207.25,0m0,1.661c0-.208,0-.208-.25-.208v.208Zm0,5.893v.208h-.25v0h.25Zm0-7.113c-.25,0,0,.181,0,.389v-.389Zm0-.883v0Zm0,.26h.219s0-.26-.219-.26Zm.219,1.453v-.208h-.219a.207.207,0,0,1,.219.208m-.219,1.013v0Zm0,.468v.182h.219a.192.192,0,0,1-.219-.182m0,.623v.208c.219,0,.219,0,.219-.208h-.219m0,2.934v.233c0-.233,0,0,.219-.233Zm0,1.687v0Zm.5-6.1h0m0,2.493v0h0Zm-.281,2.154c.281.182.281.182.281,0Zm.781.182c0-.182-.25,0-.5,0v.208h0v-.208c.25,0,.25.208.5.208v-.208s.218,0,.218-.182c0,.182,0,.182-.218.182m-.5-2.519v0Zm0,.831v-.208h0Zm0,1.065v0Zm.25-2.726h0v0Zm.25.623a.234.234,0,0,0-.25-.234.234.234,0,0,1,.25.234m-.25,4.387v0Zm0,.649h0Zm.25-3.167h0Zm.218,3.608c0-.233,0,0-.218,0Zm0-4.024s-.218,0,0,.208Zm0,.649v0Zm0,2.544h.281a.261.261,0,0,0-.281-.259Zm.531.831h0Zm0-2.751v0Zm0,1.921v0Zm.531,0h-.25v-.467c-.281.208,0,.208,0,.208v.259Zm-.25,1.013h.25s0-.182-.25,0m0,.83h0Zm0,.649v0Zm.75-1.039c-.25,0-.5-.233-.5,0,.25.208.25,0,.5,0v0Zm-.25,1.48h.25l-.25-.234Z" transform="translate(-56.887 -53.743)" fill="#ce4074"/><path d="M166.022,147v-.234c.281-.363,0-.8.281-1.246,0-.415,0-.857-.281-1.065v-1.9a.708.708,0,0,0-.25-.623,17.762,17.762,0,0,1-1.031-3.167c0-.234-.219-.442-.219-.675a15.69,15.69,0,0,1-1.031-2.934v-.234c-.25-.182-.25-.389-.531-.623v-1.246c-.218-.415.281-.623.531-.856a1.8,1.8,0,0,1,1.531.441c.25,0,.469.182.75.623a13.494,13.494,0,0,1,.781,3.4,5.769,5.769,0,0,1,.5,1.869h.25c0,.234,0,.442.281.442.25,0,.25-.208.25-.442a3.083,3.083,0,0,0,.5-1.272,4.869,4.869,0,0,1,.5-1.9,3.564,3.564,0,0,0,.468-1.662,1.651,1.651,0,0,1,1.812-1.272h.281c.468-.233.75,0,.75.208a1.215,1.215,0,0,1,0,1.22c-.281.883-.5,1.506-.75,2.129-.281.675-.281,1.272-.531,1.921a3.1,3.1,0,0,0-.5,1.48,10.572,10.572,0,0,0-1.062,2.544,5.45,5.45,0,0,0-.218,2.726c0,.675-.25,1.3-.25,1.74v3.972c-.281.234-.5.649-1,.649a1.086,1.086,0,0,1-1.531-.856V148.5a2.879,2.879,0,0,0-.281-1.506m-2-13.137v0Zm.719-.363v-.234h-.219c0,.234,0,.234.219.234v0Zm0,1.039Zm0-.675h0Zm.281,2.8c-.281,0-.281,0-.281.208.281,0,.281,0,.281-.208m.25-.857h.219V135.6s0-.233-.219-.233Zm0,.623v0Zm0,1.48h.219c-.219-.207-.219,0-.219,0m.219.415h0Zm0,.442v0Zm.281-1.74h0v0Zm0-.363v0h0m.531,1.661s0,.208-.281.208c.281-.208.281,0,.281-.208m.25,1.713c-.25.182,0,.182,0,.182v.415h.218c0-.208,0-.415-.218-.415l-.25-.182Zm.218,1.9h0v.234s-.218.182,0,.182l.281-.182c0-.234-.281,0-.281,0Zm.281-.857s-.281-.208-.281,0v.208h.281Zm0,2.311h0Zm.25,1.713h-.25c.25.234.25.234.531.234,0-.234-.281-.234-.281-.234m-.25.623s.25-.208,0-.208v.208h0m1,2.1c0-.208-.219,0-.219-.208-.25-.182-.531,0-.781-.182v.389c.25-.208.531,0,.781-.208,0,.208,0,.208.219.208m-.469-7.191h0Zm-.281.856v0Zm0,.857v0Zm0,6.984v-.208l.281.208-.281-.208Zm.281-7.841s-.281.234,0,.234a.234.234,0,0,0,.25-.234h-.25v0Zm.469,1.9a.917.917,0,0,0-.469-.156v.156c.25.208.25.208.469,0m-.469,2.337a.219.219,0,0,0,.25-.208v.208Zm0,1.713h.25l-.25-.234Zm.25-7.841v-.208h0Zm0,3.194v0Zm0,1.246v0Zm0,4.648h.219V148.5h-.219Zm.219.649v0h0Zm-.219.6h0Zm.5-8.645v0h0Zm-.281,7.841v0Zm.281-7.633v.234a.219.219,0,0,1,.219-.234Zm0,.857v0Zm.219-3.583h0Zm0,.623v0Zm.531.208h0Zm0,.441h-.25v0Zm0-2.778h0Zm.218,1.064c.281,0,.281-.233,0-.233h-.218v.441Zm.281-.415s0,.182.25.182c0-.182,0-.182-.25-.389H169.3Zm.531-1.48v-.208c.25,0,.25,0,.468-.233h-.218s-.25,0-.25.233l-.281.208c.281.234.281,0,.281,0m0-2.129v.234l.25-.234h-.25Zm.25.623Zm0,1.947c-.25,0-.25,0-.25.155,0,0,.25,0,.25-.155m.218-3.012h.281v0Zm0,1.3h0Zm.281-1.9v0Z" transform="translate(-66.222 -53.739)" fill="#ce4074"/><path d="M41.3,173.659c.2.329.421.515.619.823.173.185.4.515.595.7a3.374,3.374,0,0,1,1.213,1.173c.421.185.619.494,1.015.679a6.593,6.593,0,0,1,.817,1.832,4.759,4.759,0,0,1,.223,2.366,2.626,2.626,0,0,1-1.04,2.058c-.4.309-1.015.309-1.436.494h-.595a.449.449,0,0,1-.619,0H41.3c-.2-.185-.2-.185-.421-.185h-.372a2.335,2.335,0,0,1-1.263-1.173c-.173-.329-.594-.679-.371-1.194a.5.5,0,0,1-.223-.494c0-.165-.2-.515,0-.679.223,0,.223,0,.223-.144,0-.35.371-.35.594-.515a1.959,1.959,0,0,1,1.04.165.524.524,0,0,1,.174.35c0,.494.42,1.008.42,1.5v.165c.4.164.817.514,1.214.35h.4c.223-.185.421-.35.595-.515a.928.928,0,0,0,.421-.844,5.138,5.138,0,0,0-1.015-2.366c-.4-.514-.99-.658-1.213-1.173a.628.628,0,0,1-.619-.494c-.372-.185-.372-.35-.594-.7-.619-.35-.817-.843-1.214-1.358a2.375,2.375,0,0,1-.2-1.173,2.638,2.638,0,0,0-.223-1.194v-.164c.223-.329.223-.844.421-1.153,0-.515.4-.864.792-1.214a3.588,3.588,0,0,1,2.229-.658h.619c0,.164,0,.164.223.164a1.828,1.828,0,0,1,1.634.35,2.212,2.212,0,0,1,.99,1.667.884.884,0,0,1,.223.7v.494c0,.164-.223.329-.42.514-.421.165-.792,0-1.214,0a.2.2,0,0,1-.223-.185c-.2-.329-.4-.515-.2-.823v-.185a3.2,3.2,0,0,0-.792-.679c0-.144-.223-.144-.223-.144-.4,0-.619,0-.619-.35,0,0-.173,0,0,.164,0,.185,0,.185-.173.329-.817.35-1.04.864-.817,1.358v.164c0,.165-.223.165-.223.165a2.272,2.272,0,0,0,.421,1.029m-1.634-2.037c0-.165.2-.165.421-.329.2,0,.2.164.2,0l-.2-.185c-.223.185-.223,0-.223,0-.2,0-.2-.164-.2,0h.2v.185c-.2.164-.2.164-.2.329h-.2c0,.185.2.185.2.185Zm-.2.679h0Zm.2,9.28h0Zm0-9.466v0Zm0,7.943v0Zm.2-5.576h0Zm0,6.934v.165c.223,0,.223.164.421,0h0a.174.174,0,0,1-.2-.165Zm.421-11.132V170.1h-.2a.186.186,0,0,1,.2.185m-.2,1.667v0Zm0,1.029v0Zm0,7.943v0Zm.421-6.934h0Zm-.223.679c.223.164.223,0,.223,0Zm0,7.922h0Zm.223-12.49h0v0Zm.174,5.227v0h0Zm0-4.877v0Zm0,.494h.2V170.8h-.2Zm0,3.045v0Zm0,.843v0Zm0,7.408v0Zm.42-7.923h-.223s.223.165.223,0m-.223.865v.144c.223,0,.223,0,0-.144m.223,7.758v0Zm.2-12.84h.2v-.35a.186.186,0,0,0-.2.185Zm0,4.733c0,.165.2.165.2,0Zm.2,1.008a.174.174,0,0,0-.2.165h.2Zm.594-6.4h0v.144h-.371c.2.165.2,0,.2,0h.173Zm-.371.494h0Zm.371,5.741a.174.174,0,0,0-.173-.185h-.2c0,.185.2.185.2.185h.4c0-.185-.223,0-.223,0m-.173.329c-.2,0-.2.185,0,.185Zm.595,1.029v-.185h0v-.164a.2.2,0,0,0,0-.329v-.165h0v.165l-.2.185v.144h.2c0,.164,0,.164-.2.35h.2Zm-.2,5.741Zm.2-13.19v.165l.2-.165Zm.2.515h0l-.2-.164Zm.223-.35.2-.165h-.2v.165h-.223s.223.185,0,.185h0v-.185Zm0,6.6h0Zm-.223,6.749h0Zm.421-.679h-.2v.164h.2Zm0-5.741v0Zm.173.679.223.185c0-.185-.223-.185-.223-.185l.223-.164c0,.164-.223.164-.223.164m.223-6.914v0h0m0-.515v0l.2.164c0-.164-.2-.164-.2-.164m0,8.272v0Zm.2-.843h0Zm.2.679h0Zm0,.823c.223-.144,0-.144,0-.144Zm.223-1.173v.164h.2v-.164Zm0-7.593c0-.164.2-.164,0-.164Zm0,1.194v0Zm.2-1.194v0Zm0,1.008v0Zm.223,1.008h-.223s.223.185.223,0m0,6.934h-.223v.164c.223,0,.223,0,.223-.164m0-7.428v0Zm.173,8.437c0-.144,0-.144-.173-.144v.144Zm0-8.6v0Zm0,7.943h.2c-.2,0-.2-.185-.2,0m0,2.531v0Zm.2-10.309s.223,0,.223.185v-.185Zm0,8.6a.2.2,0,0,0,.223.185v-.185Z" transform="translate(-15.675 -68.669)" fill="#ce4074"/><path d="M63.752,171.927v1.049c-.2.144-.2.494,0,.823v4.506a14.806,14.806,0,0,1-.2,3.045v.37c-.842.843-1.237,1.708-2.476,1.852a2.486,2.486,0,0,1-2.476-.144c-.223-.164-.421-.35-.643-.35a3.071,3.071,0,0,1-1.239-1.873,2.585,2.585,0,0,1,0-1.728v-.35c-.2-.144-.2-.329,0-.515v-.165a.732.732,0,0,1,0-.884.166.166,0,0,0,0-.309c0-.185-.2-.37-.2-.515a4.085,4.085,0,0,1,.2-1.543v-.371a2.845,2.845,0,0,0-.2-1.173v-.185a6.19,6.19,0,0,0,0-1.913c0-.144.2-.144.2-.144-.2-.35,0-1.029,0-1.543,0-.679.421-.844,1.065-.844h.4c.421.165.594.309.594.679v1.029c0,.329,0,.679.223.823,0,.37-.223.741-.223,1.049a4.481,4.481,0,0,1,0,1.728,6.369,6.369,0,0,1,0,2.058v.35a5.257,5.257,0,0,1,0,1.872v1.543c0,.37.223.68.223,1.049l.2.144a4.061,4.061,0,0,1,1.065.37h.2a.974.974,0,0,1,.619-.37s.2,0,.2-.144a4.678,4.678,0,0,0,.223-1.728v-6.873c0-.164.173-.309,0-.515v-2.222a1.061,1.061,0,0,1,1.436-.844,3.906,3.906,0,0,0,.619.309.635.635,0,0,1,.2.37v2.223Zm-6.611,1.194h0Zm.421-2.243h0Zm-.223,2.429v.164c.223,0,.223,0,.223-.164Zm.223,2.757v-.185a.2.2,0,0,0-.223.185Zm.223,1.008c-.223-.185-.223-.185-.446-.185h0c.223,0,.223.185.446.185h0m-.223,1.728h0Zm0,1.872v0h0Zm0-1.008c-.223,0-.223.144,0,.144Zm0-8.416h0Zm0,.514h0Zm.223.329h0Zm0,3.622v-.185c0,.185,0,.185-.223.185Zm-.223.494v0Zm0,1.214c0,.144,0,.144.223.144,0,0,0-.144-.223-.144m0,2.058v0Zm.223.679h-.223c0,.186,0,.186.223.186Zm-.223,1.194h0Zm.223-11.3h0Zm0,.144v.185c.174,0,.174,0,.174-.185Zm0,2.778v0Zm0,3.766h0Zm0,3.251h0Zm.174,1.214c-.174,0-.174,0-.174.144h.174Zm0-7.222v0Zm0,1.543v0Zm0,1.729h0Zm0,3.416s.223,0,0-.144Zm0,.864a.2.2,0,0,1,.223-.185c-.223,0-.223,0-.223.185m0,.535v0Zm.223-11.338v0Zm0,11.482h.2c0-.144,0,0-.2,0v0Zm.421-.494.173.164v-.164Zm0,.679h0Zm.4-.185v.35h.2c-.2.329,0,.515.618.515v-.186a.87.87,0,0,0,.644.186.186.186,0,0,0-.2-.186h0c0,.186-.248,0-.446,0-.173,0-.618,0-.618-.329,0,0-.2-.164-.2,0v-.35Zm1.015.35v0Zm.842-.679c-.223,0-.223,0-.223.185h.223Zm-.223.329v0Zm0,.535v0Zm.223.144v-.144c-.223,0-.223,0-.223.144Zm0-.823v.144h.223c-.223,0-.223-.144-.223-.144m.421,0v0Zm.223.68v-.186c0,.186-.223.186,0,.186v0Zm.173-1.029v0h0Zm0,.35h0Zm.421-10.823.223.164c0-.164,0-.164.173-.164-.173,0-.173-.185-.4,0m0,2.9v0Zm0,3.786h0Zm.223,3.95h0s-.223,0-.223.185a.2.2,0,0,0,.223-.185m0-11.831h.173v-.185c-.173,0-.173,0-.173.185m.173,1.5h-.173v.37a.167.167,0,0,1,.173.164s-.173-.164-.173,0h.4c.223,0,.223-.164,0-.164h-.4c.173-.165.173-.165.173-.37m-.173.741c0,.144.173.144.173.144h-.173l.173-.144Zm.173,4.1h0Zm-.173,1.913v0Zm0,.679c0,.144.173.144.173.329v-.329Zm.173.494h0Zm-.173,1.194a.164.164,0,0,0,.173.165l.223-.165v-.144h0c0,.144,0,.144-.223.144v.165c-.173,0-.173,0-.173-.165m.173-10.124h0m0,3.6v-.164s-.173,0,0,.164v0Zm.223-1.029v.185h-.223s.223-.185,0-.185c0,.185,0,.185.223.185,0,0,.223,0,0-.185m-.223.535h.223v-.185h-.223Zm0,1.008v0Zm.223.679h0Zm.223,1.914v-.185c-.223,0-.223,0-.223.185h.223Zm-.223.514c0,.165,0,.165-.223.165,0,0,0,.164.223.164h-.223c0-.164.223-.164.223-.164Zm0,2.387h.223v.186c.2,0,0-.186,0-.186,0-.164-.223-.164-.223-.35v.185c-.223,0-.223,0-.223.164Zm-.223,1.194h0v.185h.223a.2.2,0,0,1-.223-.185m.446-10.968h0c0-.185,0-.185-.223-.185.223-.144.223-.144,0-.144h0v.144c.223,0,.223,0,.223.185m-.223,1.173v.205s.223-.205,0-.205m0,2.243h0Zm0,2.757c0-.164.223-.164.223-.164v0h-.223l.223.164v-.164Zm0,.329h.223c-.223,0-.223-.144-.223-.144Zm0,1.42v.144h0Zm.223.679-.223.144c.223,0,.223,0,.223-.144m.2,2.366-.2-.144s-.223-.164-.223,0c.223,0,.223.144.223.144Zm-.2-3.93h0" transform="translate(-22.976 -68.687)" fill="#ce4074"/><path d="M81.617,174.441v1.008a.988.988,0,0,1-.372.7A2.9,2.9,0,0,1,80.4,177.3a2.054,2.054,0,0,1-1.386.679c-.4,0-1.015.185-1.609.185-.223,0-.4.144-.62.494v.823c-.2.185-.2.329,0,.515a.564.564,0,0,1,0,.8,4.824,4.824,0,0,0,0,1.687,1.81,1.81,0,0,1-.2,1.008c0,.329-.4.329-.619.329a.952.952,0,0,1-1.213-.494c-.173-.144-.173-.514-.173-.843v-2.017c.173-.164.173-.288,0-.473v-.68c.173-.144,0-.144,0-.329a3.112,3.112,0,0,1,.173-1.338v-.35a1.342,1.342,0,0,1,0-1.153c0-.185-.173-.37-.173-.515a10.8,10.8,0,0,0,0-2.366,6.476,6.476,0,0,0,0-1.831,4.372,4.372,0,0,0,0-1.5.626.626,0,0,1,.173-.515c.223-.164.223-.309.619-.309.594,0,1.213-.185,1.808-.185.619,0,1.213.185,1.832.185h.173a7.833,7.833,0,0,1,1.436.823c.173,0,.173.185.173.185,0,.309.446.494.446.637a2.841,2.841,0,0,1,.372,1.688Zm-6.24-3.169h.2v.164c.223.185.223.185.4.185v-.185c0-.164-.173,0-.173,0-.223,0-.223,0-.223-.164-.2-.144-.2,0-.2,0,0-.144,0-.144-.173-.144a.152.152,0,0,0,.173.144m-.173,1.173h0Zm.173,1.317c-.173,0-.173,0-.173.185h.173Zm0,1.522h0Zm0,3.7h0Zm0,1.667v-.185H75.2a.174.174,0,0,0,.173.185v.144s-.173,0,0,.185V180.8s.2,0,0-.144m-.173,1.338Zm.173-5.021c-.173.185,0,.185,0,.329.2-.144,0-.144,0-.329h0m0,1.008c.2-.185.2,0,.2-.185h-.2c-.173,0-.173,0,0,.185m0-7.223v0c-.173,0,0,.186,0,.186Zm0-.823v.185h.2Zm0,2.017s.2-.185,0-.185Zm.2,1.316h-.2v.165c0-.165.2-.165.2-.165m-.2,1.008h0Zm0,2.181c.2-.164.421,0,.594,0Zm.2,2.716c-.2,0-.2,0-.2.144h.2Zm-.2,3v.144h0Zm.2-12.243a.2.2,0,0,0,.223-.185s-.223,0-.223.185m0,2.7v0Zm0,.309c0,.185.223,0,.223,0v0Zm0,2.7v0ZM75.8,177.3v.164h0Zm0,1.008-.223-.144c0,.144,0,.144.223.144v0Zm-.223,1.5V180H75.8c0-.185,0-.185-.223-.185m0,1.667.223-.164c-.223,0-.223,0-.223.164m0,.515c0-.185.223-.185.223-.185Zm.223.679v-.185a.2.2,0,0,0-.223.185Zm0-10.72h0v0Zm0,4.2c.173.144.173,0,.173,0h.223c0,.144,0,.144.223.144,0-.144-.223-.144-.223-.144,0-.185,0-.185-.223-.185v.185Zm0,.823c0,.185,0,.185.173.185,0,0,.223.144.223,0-.223,0-.4,0-.4-.185m.173,2.017c0-.185,0-.185-.173-.185,0,.185.173,0,0,0h.173Zm-.173,1.317c0,.164,0,.164.173.164H75.8Zm.173-9.692v0Zm0,.659c.223,0,.223,0,.223-.144h-.223Zm0,8.539v0Zm0,.988h.223v-.144h-.223Zm.446-11.194h-.223v.144Zm0,1.152a.112.112,0,0,0-.223,0h.223v0Zm-.223.865v0Zm0,4.156s.223,0,.223-.144h-.223Zm.223-5.35h0Zm0,6.728v0Zm0,.823v-.185c.173.185.173.185.173,0l.2-.144c-.2,0-.2.144-.371.329m.173-8.231v0Zm2.823,1.872c0-.185,0-.185-.223-.185-.173,0-.347-.164-.57-.309a1.393,1.393,0,0,0-1.213,0c-.4.144-.62.309-.62.638,0,.514-.2.864,0,1.173a6.113,6.113,0,0,1,0,2.016c-.2.329.223.679.223,1.008h.4a.952.952,0,0,0,.99,0,1.64,1.64,0,0,0,1.189-1.008,10.22,10.22,0,0,0-.174-2.2v-1.132Zm-2.624-1.5h.4s0-.185-.173-.185Zm0,6.667v0Zm.4.864h0Zm.223-.35v.164h0Zm0-7.366v-.185c-.223.185,0,.185,0,.185v.329s0,.165.222.165c.174,0-.222-.165,0-.165v-.144s-.222,0-.222-.185m0,7.716h0Zm.4-8.045v0h0Zm.2,7.86h.223a.167.167,0,0,0,.173-.164c-.173.164-.173.164-.4.164m.4-7.716s0-.144-.173,0c0,.185.173,0,.173,0h0Zm0,.37h0v0Zm.223,6.852v0Zm.223-6.852c.173-.185.173-.185.173-.37-.173.185-.173.185-.173.37v0Zm.347,6.522c0-.185-.173,0-.173-.185,0,.185,0,.185.173.185m-.173.659Zm.4-6.873h0v.185h0Zm0-.165h0Zm0,6.194v0Zm0,.515a.174.174,0,0,0,.174-.185h-.174v.185h0Zm.174-6.852c0,.144.223,0,.223,0Zm0,.637c.223.186.223,0,.223,0,0,.186,0,.371.223.371a.152.152,0,0,0,.173.144v-.144h-.173c0-.185-.223-.185-.223-.371Zm.223,5.206s-.223,0,0,.185c0,0,.223,0,.223-.185.173-.185,0-.185,0-.185H79.81Zm.223.823h0Zm.173-5.35h0Zm.2.515c0-.185,0-.185-.2-.185,0,.185,0,.185.2.185m-.2.329v0Zm.2,1.482h0Zm.223,1.008v.185c-.223-.185-.223-.185-.421-.185.2.185.2.185.421,0m0-1.831c.173,0,.173.185.173,0h-.173v-.185h0Zm.173,1.337c0-.144,0,0-.173,0H80.8Zm-.4,1.173c.223,0,.223-.164.223-.164H80.4Zm.223.515v0Z" transform="translate(-30.319 -68.669)" fill="#ce4074"/><path d="M99.013,174.441v1.008a.988.988,0,0,1-.372.7A2.9,2.9,0,0,1,97.8,177.3a2.054,2.054,0,0,1-1.386.679c-.4,0-1.015.185-1.609.185-.223,0-.4.144-.62.494v.823c-.2.185-.2.329,0,.515a.564.564,0,0,1,0,.8,4.824,4.824,0,0,0,0,1.687,1.81,1.81,0,0,1-.2,1.008c0,.329-.4.329-.619.329a.952.952,0,0,1-1.213-.494c-.173-.144-.173-.514-.173-.843v-2.017c.173-.164.173-.288,0-.473v-.68c.173-.144,0-.144,0-.329a3.112,3.112,0,0,1,.173-1.338v-.35a1.342,1.342,0,0,1,0-1.153c0-.185-.173-.37-.173-.515a10.8,10.8,0,0,0,0-2.366,6.476,6.476,0,0,0,0-1.831,4.372,4.372,0,0,0,0-1.5.626.626,0,0,1,.173-.515c.223-.164.223-.309.619-.309.594,0,1.213-.185,1.808-.185.619,0,1.213.185,1.832.185h.173a7.834,7.834,0,0,1,1.436.823c.173,0,.173.185.173.185,0,.309.446.494.446.637a2.841,2.841,0,0,1,.372,1.688Zm-6.24-3.169h.2v.164c.223.185.223.185.4.185v-.185c0-.164-.173,0-.173,0-.223,0-.223,0-.223-.164-.2-.144-.2,0-.2,0,0-.144,0-.144-.173-.144a.152.152,0,0,0,.173.144m-.173,1.173h0Zm.173,1.317c-.173,0-.173,0-.173.185h.173Zm0,1.522h0Zm0,3.7h0Zm0,1.667v-.185H92.6a.174.174,0,0,0,.173.185v.144s-.173,0,0,.185V180.8s.2,0,0-.144m-.173,1.338Zm.173-5.021c-.173.185,0,.185,0,.329.2-.144,0-.144,0-.329h0m0,1.008c.2-.185.2,0,.2-.185h-.2c-.173,0-.173,0,0,.185m0-7.223v0c-.173,0,0,.186,0,.186Zm0-.823v.185h.2Zm0,2.017s.2-.185,0-.185Zm.2,1.316h-.2v.165c0-.165.2-.165.2-.165m-.2,1.008h0Zm0,2.181c.2-.164.421,0,.594,0Zm.2,2.716c-.2,0-.2,0-.2.144h.2Zm-.2,3v.144h0Zm.2-12.243a.2.2,0,0,0,.223-.185s-.223,0-.223.185m0,2.7v0Zm0,.309c0,.185.223,0,.223,0v0Zm0,2.7v0Zm.223,1.667v.164h0Zm0,1.008-.223-.144c0,.144,0,.144.223.144v0Zm-.223,1.5V180h.223c0-.185,0-.185-.223-.185m0,1.667.223-.164c-.223,0-.223,0-.223.164m0,.515c0-.185.223-.185.223-.185Zm.223.679v-.185a.2.2,0,0,0-.223.185Zm0-10.72h0v0Zm0,4.2c.173.144.173,0,.173,0h.223c0,.144,0,.144.223.144,0-.144-.223-.144-.223-.144,0-.185,0-.185-.223-.185v.185Zm0,.823c0,.185,0,.185.173.185,0,0,.223.144.223,0-.223,0-.4,0-.4-.185m.173,2.017c0-.185,0-.185-.173-.185,0,.185.173,0,0,0h.173Zm-.173,1.317c0,.164,0,.164.173.164h-.173Zm.173-9.692v0Zm0,.659c.223,0,.223,0,.223-.144h-.223Zm0,8.539v0Zm0,.988h.223v-.144h-.223Zm.446-11.194h-.223v.144Zm0,1.152a.112.112,0,0,0-.223,0h.223v0Zm-.223.865v0Zm0,4.156s.223,0,.223-.144h-.223Zm.223-5.35h0Zm0,6.728v0Zm0,.823v-.185c.173.185.173.185.173,0l.2-.144c-.2,0-.2.144-.371.329m.173-8.231v0Zm2.823,1.872c0-.185,0-.185-.223-.185-.173,0-.347-.164-.57-.309a1.393,1.393,0,0,0-1.213,0c-.4.144-.62.309-.62.638,0,.514-.2.864,0,1.173a6.114,6.114,0,0,1,0,2.016c-.2.329.223.679.223,1.008h.4a.952.952,0,0,0,.99,0,1.64,1.64,0,0,0,1.189-1.008,10.22,10.22,0,0,0-.174-2.2v-1.132Zm-2.624-1.5h.4s0-.185-.173-.185Zm0,6.667v0Zm.4.864h0Zm.223-.35v.164h0Zm0-7.366v-.185c-.223.185,0,.185,0,.185v.329s0,.165.222.165c.174,0-.222-.165,0-.165v-.144s-.222,0-.222-.185m0,7.716h0Zm.4-8.045v0h0Zm.2,7.86h.223a.167.167,0,0,0,.173-.164c-.173.164-.173.164-.4.164m.4-7.716s0-.144-.173,0c0,.185.173,0,.173,0h0Zm0,.37h0v0Zm.223,6.852v0Zm.223-6.852c.173-.185.173-.185.173-.37-.173.185-.173.185-.173.37v0Zm.347,6.522c0-.185-.173,0-.173-.185,0,.185,0,.185.173.185m-.173.659Zm.4-6.873h0v.185h0Zm0-.165h0Zm0,6.194v0Zm0,.515a.174.174,0,0,0,.174-.185h-.174v.185h0Zm.174-6.852c0,.144.223,0,.223,0Zm0,.637c.223.186.223,0,.223,0,0,.186,0,.371.223.371a.152.152,0,0,0,.173.144v-.144h-.173c0-.185-.223-.185-.223-.371Zm.223,5.206s-.223,0,0,.185c0,0,.223,0,.223-.185.173-.185,0-.185,0-.185h-.223Zm.223.823h0Zm.173-5.35h0Zm.2.515c0-.185,0-.185-.2-.185,0,.185,0,.185.2.185m-.2.329v0Zm.2,1.482h0Zm.223,1.008v.185c-.223-.185-.223-.185-.421-.185.2.185.2.185.421,0m0-1.831c.173,0,.173.185.173,0h-.173v-.185h0Zm.173,1.337c0-.144,0,0-.173,0H98.2Zm-.4,1.173c.223,0,.223-.164.223-.164H97.8Zm.223.515v0Z" transform="translate(-37.391 -68.669)" fill="#ce4074"/><path d="M116.607,173.789c.2.144-.173.638,0,.988,0,.329.2.658,0,.988v1.481c.2.329,0,.823,0,1.153v1.029s.2,0,0,.144v1.152a.588.588,0,0,1-.173.515,1.367,1.367,0,0,1-.223.8c0,.185,0,.329-.173.329,0,0,0,.164-.223.164a1.56,1.56,0,0,1-1.189,1.008c-.223.164-.4.164-.4.309-.2,0-.4.185-.594,0h-.817a2.67,2.67,0,0,1-1.758-.473,3.069,3.069,0,0,1-1.585-3.313v-.988c-.223-.165,0-.494,0-.679,0-.329-.223-.638,0-.823,0-.329-.223-.474,0-.659.173,0,0-.144,0-.144a5.991,5.991,0,0,1,0-2l.173-.144c-.4-.515,0-1.029-.173-1.5-.223-.164,0-.35,0-.494,0-.206.173-.515,0-.844a1.893,1.893,0,0,1,.372-.967,4.527,4.527,0,0,1,1.411-1.358c.174-.329.57-.473,1.189-.329a4.636,4.636,0,0,1,.792-.144,1.565,1.565,0,0,1,1.164.329,4.424,4.424,0,0,1,1.808,1.317v.185c.223.638.594,1.152.4,1.811,0,.329.2.658,0,1.152m-6.562,1.646v0Zm0,1.008h.2v0Zm.2,2.8v.185l.173-.185a.167.167,0,0,1-.173-.164h.173l-.173.164s-.2,0-.2-.164c0,.164.2.164.2.164m0-4.136v.185h.173l-.173-.185h0m0-3.128h0Zm0,1.955h.173l.247.185c0-.185-.247-.185-.247-.185Zm0,1.832h0v0Zm.173,1.667h.247v0c-.247,0-.421,0-.421.144v-.144h.173v.329h0c0-.185.247-.185,0-.329m-.173.823v0Zm0,.329v0Zm.173,1.173c0-.185,0-.185-.173,0v0c.173,0,.173,0,.173-.185h.247c-.247,0-.247,0-.247.185m0-8.107v.144c.247,0,.247,0,.247-.144Zm.247.473h0Zm0,.659h-.247c.247.185.247,0,.247,0m-.247,3.992h0Zm.247,3.128c-.247,0-.247,0-.247.164h.247Zm-.247,1.481v0Zm.247-2.8c-.247,0,0,0,0,.144,0,0,.173,0,0-.144m.4-7.613c-.223-.329-.223-.144-.4,0l.173-.144v.144Zm-.223.329h0Zm-.173,2.3c.173,0,.173,0,.173-.144h-.173Zm0,.823v0Zm.173.35Zm-.173,1.481v.185h.173Zm.173.658h0Zm-.173,1.153v0Zm.173,1.5v-.144h-.173c0,.144.173.144.173.144m0,.658h0Zm-.173,1.811v0Zm.173-4.465h0m0-6.111v0Zm0,1.831v0Zm0,.165h0Zm0,2.14v0Zm.223,6.626h-.223a.112.112,0,0,0,.223,0m-.223.309.223.185v-.185Zm.595-11.564a.164.164,0,0,0-.174.164v.164l.174-.164v-.164h0Zm0,11.4c0-.144,0,0-.174,0Zm-.174.494h0Zm.4-11.893c.173,0,.173,0,0-.144h0v.144h0m1.981,10.741c.4-.329.594-.638.99-.988v-.185c-.223-.309,0-.782-.223-1.111v-.35a1.192,1.192,0,0,0,.223-.823c-.223-.185-.223-.329,0-.679,0-.329-.223-.659,0-.988,0-.144-.223-.329-.223-.515a6.9,6.9,0,0,0,0-2.14V173.6c.223-.309,0-.637.223-.967v-.206a.454.454,0,0,1-.223-.453c-.173-.514-.372-.843-.767-.843h-.173c-.644,0-1.015,0-1.238.329a1.474,1.474,0,0,0-.792,1.317c.223.35,0,.679.223,1.008v.329c-.223,0-.223.309-.223.515v.8c.223.823,0,1.667.223,2.49a.484.484,0,0,1-.223.474v.514c.223.165.223.329,0,.659v.494a.5.5,0,0,1,.223.473,1.737,1.737,0,0,0,1.585,1.358c.223,0,.4,0,.4-.185m-1.981-11.421v0Zm.173-.329h0c.223,0,0,0,0-.164,0,0-.173,0,0,.164m0,12.573h0Zm.223-12.037h0Zm.4,12.367v-.144h-.223c0,.144.223.144.223.144m-.223.35v.165l.223-.165c0-.144.173-.144,0-.144v.144Zm.4-13.066c0,.144,0,.144.2.144,0,0,0,.206.173,0l-.173-.144Zm.2,12.222h0s-.2,0-.2.164v0s-.173-.164-.173,0h.173c.2,0,.2,0,.2-.164m0-12.573c0-.144.173-.144,0-.144v.144c0-.144,0-.144-.2-.144.2.144.2,0,.2.144m.421,13.416v-.144c-.247,0,0-.206-.247-.206,0,.206,0,.206.247.206Zm.223-13.252-.223-.164h.223c-.223.164-.223.35,0,.35v-.186h.173a.186.186,0,0,0,.2.186l-.2-.186Zm0,.68h0Zm-.223,11.729v0Zm.594-11.543c.2,0,.2,0,.2-.185h0s-.2,0-.2.185m.2,11.708h0Zm-.2.185v0Zm.4-12.758-.2.186c.2,0,.2,0,.2-.186m0,11.935v0Zm.173.329h-.173v.144h.173Zm0-11.729v0Zm.4,11.4h0Zm0-10.761h0Zm0,10.577h.223c0-.144,0-.144-.223,0m.223.658v-.329c-.223.185,0,.185,0,.185Zm0-9.939v0Zm.2,7.47h0Zm0-8.251v-.35c-.2.165,0,.165,0,.35m.2.473c0-.144-.2,0-.2,0h.2c.223,0,.223,0,.223-.144h.173v0h-.173c0,.144-.223.144-.223.144m-.2,1.008h.2v-.164h0v.164Zm.2,1.832v-.185c-.2,0-.2,0-.2.185Zm0,.473h0m-.2.823h.2c-.2,0-.2-.185-.2,0m0,1.5h.2l-.2-.185Zm.421,1.481h.173a.8.8,0,0,0-.594-.164.723.723,0,0,0,.421.164m-.421.185v0Zm0,2.8c.2,0,0-.185,0-.185Zm.421-10.926c-.223,0-.223.165-.223.165s0-.165.223-.165m-.223,4.3v.165c0-.165,0-.165.223-.165Zm.223.988v.329h-.223v0c.223.185,0,0,.223,0v-.329Zm-.223.658h0Zm.4,2.51c-.173,0-.173,0-.173-.185l-.223-.144v.144h.223s0,.185.173.185m.223-7.469c-.223,0-.223.144-.223.144-.173,0-.173.206-.173.206s0-.206.173-.206c0,0,.223,0,.223-.144m-.223,1.5h0Zm-.173.474h.173c0,.164,0,.164.223,0Zm.173,2.181.223.144h-.223c.223-.144.223-.144.223-.329h-.223v-.185c.223,0,.223-.144.223-.144v0l-.223.144v.37h0Zm-.173.988.173.144v-.144Zm0,.494v0Zm0,.659h0Zm.173,1.481h0Zm.223-7.943h0Zm-.223,6.79h0Zm.223-1.481v0Z" transform="translate(-44.462 -68.697)" fill="#ce4074"/><path d="M127.231,180.381v-9.589c.173-.164,0-.494,0-.823a.979.979,0,0,1,.173-.68c.446-.185.619-.329.842-.329h2.2a4.64,4.64,0,0,1,2.649.659,2.3,2.3,0,0,1,1.189,1.338c.2.35.2.864.421,1.358v.658c-.223.185-.223.185-.223.329.223.185.223.35,0,.515v.494c-.2.514-.4,1.193-.594,1.872h-.223c-.4.144-.4.473-.57.823-.223,0-.223.164,0,.329a10.767,10.767,0,0,0,.792,2.531,6.118,6.118,0,0,0,.4,1.667c.2.515.421,1.008.594,1.523.223.329-.173.679-.594.823-.619,0-1.411-.144-1.61-.823a.912.912,0,0,1-.2-.659c0-.185,0-.35-.2-.35-.223,0-.223-.164-.223-.329a7.326,7.326,0,0,0-.173-.843c-.223-.494-.223-.844-.421-1.173a.578.578,0,0,1-.2-.515,1.716,1.716,0,0,0-.594-1.338c0-.185-.223-.329-.62-.329-.42,0-.42.144-.594.515,0,.329-.223.494,0,.823,0,.329-.223.515-.223.659,0,.679.223,1.193.223,1.872v.494c-.223.164-.223.514,0,.843v.329c-.223.679-.618,1.008-1.609.679a.8.8,0,0,1-.62-.679v-2.675Zm.62-6.893v0Zm0,1.5h0Zm0,3.375h0Zm.4,3.354c0-.185-.223,0-.223,0v-.329h0v.329h.223v0Zm-.223,1.008c0-.185,0-.185-.173-.185v.185Zm0-12.614h0c-.173,0-.173.185,0,.185Zm.223,3.045c0-.185,0-.185-.223-.185v.185h.223Zm0-2.366h-.223c0-.164.223-.164,0-.164v.164s0,.165.223.165c.2,0,0-.165,0-.165h0Zm-.223.515h.223v-.185c0,.185-.223.185-.223.185m0,.144v0Zm0,2.037h.223v.164h0v-.164Zm.421.679v-.185h-.2c0,.185.2.185.2.185m-.421,1.152v0Zm.223,2.717h-.223c.223,0,.421,0,.421.144h.173v-.144a3.234,3.234,0,0,0-.595-.515.579.579,0,0,0,.223.515m0,.637c0,.185,0,.185.2.185v-.185Zm-.223,1.029v.164h.223c0-.164,0,0-.223,0,0-.164.223-.164,0-.164m0,.494Zm.223-8.56s.2.185.2,0c.173-.185.4-.185.4-.329-.223,0-.595.144-.595.329m0,2.181h0Zm0,1.5s.2,0,.2-.144c.173,0,0-.185,0-.185a.186.186,0,0,0-.2.185Zm.2,2.2h0Zm-.2,2,.2-.144h-.2Zm.2,1.358a.174.174,0,0,0-.2.164h.2Zm-.2.329c.2.185.2.185.372.185l-.173.144h.173l-.173-.144V181.2h-.2Zm.2,1.008h0Zm0-12.593h0Zm0,3.025c.173,0,.173.185.173,0Zm0,1.852h.173l-.173-.185Zm.173.164h0Zm0,1.523V176s0,.185-.173.185Zm0,.473v.185c0-.185.223-.185.223-.185a.2.2,0,0,0,.222.185h0v-.329c0-.185-.222-.185-.222-.185a.2.2,0,0,0,.222.185v.144h-.445v-.144l-.173-.185c0,.185,0,.185.173.185,0,0-.173,0-.173.144Zm-.173.515h.173v-.164h0v.164Zm.792-7.387v-.164l.223.164c.174-.164,0-.164,0-.164,0-.165-.223-.165-.223-.165v.515h-.174c-.222-.186-.222-.186-.445,0h.619Zm-.4,12.1c0-.165,0-.165-.223-.165,0,.165,0,0,.223,0Zm0-10.926h.222v.164s-.222,0-.222-.164m0,2.2v0Zm.4-2.531c-.174,0-.174,0-.174.164h0c0-.164,0-.164.174-.164m-.174,4.877v0Zm.4.329h0Zm2.823-3.869c-.223-1.008-1.437-1.173-2.229-.843h-.2c-.222.329-.618.515-.4.843v.494c0,.185-.223.37,0,.37a5.338,5.338,0,0,1,0,1.667v.494c.174.329.4.329.594.515a1.86,1.86,0,0,0,1.61-.186,1.7,1.7,0,0,0,.818-.823v-1.338c0-.329-.2-.843-.2-1.194m-2.427,4.363h-.222c0,.185,0,.185.222.185Zm.2-6.544h0a.186.186,0,0,0,.2.186Zm0,.515v0Zm0,6.358v0Zm.2-7.037v0Zm.421,7.387c.173,0,.173.164.4.329h.2c.2.185.2.185.4-.164l.223.164v-.329h0v.164h-.421c0-.164.2-.164,0-.164h-.2c0,.164,0,0,.2,0,0,.164.2.164.2.164v.164h-.594c0-.164-.223-.329-.4-.329v0Zm.4-6.893h-.223c0,.185.223.185.223.185Zm0,6.214c.2,0,.2-.144.2-.144s0,.144-.2.144m.2-6.214v-.144c-.2,0-.2.144,0,.144h0Zm.619,6.4c-.223,0-.223.144-.223.144h.223v-.144h.173a.174.174,0,0,0-.173-.185Zm.4-.679v.494c.2.185.2,0,.2,0,0-.144,0-.144-.2-.329v-.164h-.223V176h0v-.164Zm-.4,2.016v.186h0Zm0,1.008v.185l.173-.185Zm0,.515h0Zm.173-.843h.223c0-.165-.223-.165-.223-.165Zm.223-7.9s-.223,0,0,.164h.2c0-.164-.2-.164-.2-.164m0,8.56c0,.185,0,.185.2.185-.2,0-.2,0-.2-.185m.2.843.2-.164.2.164v-.164l-.2-.164h-.2l-.2-.185v.185s0,.329.2.329c0,.165,0,.165.2,0Zm0-9.589h.2v.185l.2-.185h-.4Zm0,8.745v0Zm.2,1.687c-.2,0,0,0,0,.164,0-.164.2-.164,0-.329Zm.421-9.918v-.165c-.223,0-.223.165-.223.165h.223Zm-.421,9.568v0Zm0,.864h.2s0-.185-.2,0m.2-6.071h0Zm0,5.063v.144h.223c-.223,0,0-.144-.223-.144m.223-9.075h0Zm0,1.338h0Zm.174,2.016h0v0h0Zm-.174,6.214a.168.168,0,0,0,.174-.165c-.174,0-.174,0-.174.165m.174.843h0Zm0,.679c0,.144,0,.144.222.144h0c-.222,0-.222-.144-.222-.144h0Zm0-8.91v0Zm.618-1.523c-.223,0-.4,0-.4.165h.4Zm-.223,1.194H133.5c0,.144.174.144.174,0v0ZM133.5,181.2v0Zm0,.329v.35c.174,0,.174,0,.174-.165H133.5Zm.174-7.552h0Zm.223-.679v0Zm0,9.424v0Z" transform="translate(-51.72 -68.683)" fill="#ce4074"/><path d="M148.762,169.09c.223,0,.4-.164.618-.164.4,0,.57.164.792.164.2,0,.62-.164.818-.164.4,0,.792.164,1.188.164.223.165.4.165.4.35.223.164.223.329.223.679a.513.513,0,0,1-.223.494,1.063,1.063,0,0,1-.792.329c-.4,0-.57.164-.991.164a1.98,1.98,0,0,0-.62.679v10.68a2.212,2.212,0,0,1-.223,1.173,1.394,1.394,0,0,1-1.585,0c-.4-.329-.173-.659-.173-1.173-.223-.494,0-1.194-.223-1.852a2.558,2.558,0,0,1,.223-1.173c0-.164,0-.164-.223-.35a1.039,1.039,0,0,1,.223-1.131v-.186c-.446-.329,0-.658,0-1.173-.223-.144-.223-.473-.223-.8a5.052,5.052,0,0,0,0-1.832c0-.185.223-.35.223-.679a3.567,3.567,0,0,1-.223-1.5c0-.514-.4-.679-1.04-.679-.4,0-.569-.164-.966-.164-.223-.164-.4-.329-.4-.494-.223-.515,0-.844.4-1.359a.769.769,0,0,1,.569-.164h1.04c.4.164.792,0,1.189.164m-2.4,1.029s0,.165.173,0h-.173v0Zm.4-.515v.164h.173c0-.164,0-.164-.173-.164m.4.68h-.223s.223,0,.223.164h0Zm.421.164v0Zm.173-.515c.223,0,.223,0,.223-.165-.223,0-.223,0-.223.165m.223.515v-.164c-.223,0,0,.164,0,.164v0Zm0-.844h0Zm.223.515c-.223-.185-.223-.185-.223,0,.223.165.223.165.223,0m.173.329v.329h0a.192.192,0,0,0,0-.329Zm.223-.329c0-.185-.223-.35-.223-.35v.35Zm0,1.317h0v0Zm0-1.667v.165c.174,0,.174,0,.174-.165Zm0,1.338h.174c-.174-.164-.174-.164-.174,0m.4,1.008s-.223-.164-.223,0c-.174,0,0,0-.174-.164v.329c.174,0,.4,0,.174-.165h.223a.167.167,0,0,1,.173-.164.167.167,0,0,0-.173.164m-.4.494h0Zm.174,1.852h-.174c.174.165.174.165.174,0m0,.329h0Zm.223,3.313h-.223c0,.185,0,.185-.174.329h.174l.223-.144Zm-.4.844h0Zm.174.329h0Zm.223,1.337s0-.144-.223-.144c.223,0,.223,0,.223-.185a.2.2,0,0,1-.223.185.152.152,0,0,1-.174.144v0Zm-.223-5.33c0-.164.223-.164.223-.164s-.223,0-.223.164m0,.844v0Zm.223.473h0Zm-.223,3.025v.164c0-.164.223-.164.223-.164.173,0,.173,0,.173-.185l-.173.185Zm.792,1.317h-.174c-.223.185,0,.185,0,.329h-.4c-.223.185,0,.329-.223.514h.223c.173,0,0-.185,0-.329h.173a.2.2,0,0,0,.223-.185h.174v-.329Zm-.57-10.824v0Zm.173.823h-.173v.164a.167.167,0,0,1,.173-.164m.223,1.5v-.164c-.223.164-.4,0-.4.164h.4Zm-.223.658h0Zm0,2.51h-.173c.173,0,.173.185.173.185Zm.223,4.527h-.223v-.35a.164.164,0,0,0-.173.165c0,.185,0,.185.173.185Zm-.4,2.51h0Zm.4-12.717c.174,0,.174,0,.174-.165a.164.164,0,0,0-.174.165c0,.185-.223,0-.223.185,0,0,.223,0,.223-.185v0Zm-.223,2.84v0h.223v0Zm0,1.687h0Zm0,.329v0Zm.223,2.983s0,.186.174.186a.174.174,0,0,0-.174-.186h0Zm-.223.515h.223v.144l.174.185v-.185c0-.144,0-.144-.174-.144h-.223Zm0,.474v0Zm.4-8.149c0,.165.223.165.223.165s.173-.165,0-.165h-.223a.164.164,0,0,0-.174-.164v.164Zm0,.329h0Zm-.174,5.514h0v0Zm0,1.153h.174c0-.164-.174-.164-.174-.164Zm.174,4.506c0-.144-.174-.144-.174-.144v.144Zm.223-11.831h0Zm.4.494h0c0-.165.4-.165.2-.329h.2a.174.174,0,0,0-.2-.164v.164c-.2,0-.2.164-.2.329m.62-.844v0Zm.2.515h0Zm.222-.164v-.165c-.222,0-.222.165-.222.165Zm.174-.68c-.174,0-.174,0-.174.164h.174Zm.223.844v-.164s0,.164-.223.164Z" transform="translate(-59.138 -68.669)" fill="#ce4074"/><line x2="117.334" transform="translate(0 74.095)" fill="none" stroke="#ce4074" stroke-miterlimit="10" stroke-width="0.506"/><path d="M2.481,92.492H4.5v3.171c0,4.681-.392,6.715-2.817,9.774L0,104.336c2.481-3.04,2.481-4.849,2.481-8.673ZM8.729,94.45v1.474c0,4.215.261,5.316,1.865,7.162l-1.436,1.4c-1.642-1.753-2.443-3.451-2.443-8.561V94.45Zm0-.728H7.573V91.335H8.729Zm1.7,0H9.27V91.335h1.156Z" transform="translate(0 -37.128)" fill="#ce4074"/><rect width="7.759" height="2.033" transform="translate(14.428 60.418)" fill="#ce4074"/><path d="M50.578,93.347a23.516,23.516,0,0,1-.877,6.994l3.1,4.831-1.7,1.082-2.369-3.693a8.378,8.378,0,0,1-4.327,3.693l-.858-1.828c3.413-1.6,4.7-4.477,4.961-9.065H44.161V93.347Z" transform="translate(-17.702 -37.946)" fill="#ce4074"/><path d="M67.375,98.421V96.407h8.468v2.014H73.064c-.186,3.749-1.548,5.26-3.786,6.454l-.839-1.828c1.865-.989,2.5-2.107,2.63-4.626Zm7.536-6.08v1.641H68.326V91.967h5.931V89.953h1.175v2.388Zm2.22,0H75.974V89.953H77.13Z" transform="translate(-27.388 -36.566)" fill="#ce4074"/><path d="M115.8,99.018V94.671h-1.678V92.657H115.8V91.65h2.014v1.007h2.556V91.65H122.4v1.007h1.66v2.014H122.4V98.1c0,4.5-2.444,6.658-5.13,7.461l-.858-1.828c2.612-.858,3.955-2.406,3.955-5.633V94.671H117.81v4.346Z" transform="translate(-46.389 -37.256)" fill="#ce4074"/><path d="M137.248,101.867a6.943,6.943,0,0,0,1.567-4.719h2.014A7.858,7.858,0,0,1,139,102.837Zm10.035-7.5h-3.227v6.006c0,2.8-.149,3.861-2.835,3.861v-2.014c.821,0,.821-.373.821-2.126V94.369h-3.227V92.336h3.227V90.321h2.014v2.014h3.227Zm.69-4.271a1.575,1.575,0,0,1-1.623,1.492,1.549,1.549,0,0,1-1.51-1.6,1.568,1.568,0,0,1,3.134.112m-2.8,7.442,1.977-.392,1.063,5.3-1.959.41Zm1.846-7.479a.634.634,0,0,0-.6-.634.59.59,0,0,0-.615.579.606.606,0,0,0,.578.634.594.594,0,0,0,.634-.578" transform="translate(-55.792 -35.965)" fill="#ce4074"/><rect width="7.759" height="2.033" transform="translate(97.437 60.418)" fill="#ce4074"/><path d="M186.141,91.65h2.014V96.5l4.252,1.1-.5,1.959-3.749-.97v6.976h-2.014Z" transform="translate(-75.667 -37.256)" fill="#ce4074"/><path d="M102.911,28.291l-11.086.03V24.23c0-.789-.38-1.433-.843-1.433H88.733c-.465,0-.845.644-.845,1.433v4.1l-5.636.015V17.533c0-1-.484-1.823-1.075-1.823H78.312c-.591,0-1.075.82-1.075,1.823V28.347l-5.663-.015v-4.1c0-.789-.379-1.433-.842-1.433H68.483c-.464,0-.843.644-.843,1.433v4.092l-11.184-.03a3.791,3.791,0,0,0-3.785,3.785v3.683c0,2.311.356,4.09,3.14,4.09s2.662-2.882,5.968-2.882,3.184,2.882,5.968,2.882,2.662-2.882,5.968-2.882,3.184,2.882,5.968,2.882,2.662-2.882,5.969-2.882,3.184,2.882,5.968,2.882,2.662-2.882,5.968-2.882,3.184,2.882,5.968,2.882,3.14-1.779,3.14-4.09V32.076a3.792,3.792,0,0,0-3.785-3.785" transform="translate(-21.411 -6.386)" fill="#ce4074"/><path d="M113.815,20.772a1.878,1.878,0,0,0,1.29-.52c1.078-1,.7-2.678.019-3.8a4.3,4.3,0,0,0-.837-1,2.5,2.5,0,0,0-.472-.327,2.525,2.525,0,0,0-.472.327,4.265,4.265,0,0,0-.836,1c-.684,1.117-1.061,2.792.017,3.8a1.884,1.884,0,0,0,1.291.52" transform="translate(-45.467 -6.151)" fill="#ce4074"/><path d="M96.361,7.191a2.4,2.4,0,0,0,1.646-.661c1.374-1.281.893-3.417.022-4.84A5.467,5.467,0,0,0,96.963.418a3.328,3.328,0,0,0-.6-.417,3.307,3.307,0,0,0-.6.417,5.467,5.467,0,0,0-1.066,1.272c-.871,1.423-1.351,3.559.022,4.84a2.4,2.4,0,0,0,1.646.661" transform="translate(-38.152 0)" fill="#ce4074"/><path d="M79.7,20.772a1.881,1.881,0,0,0,1.29-.52c1.077-1,.7-2.678.018-3.8a4.239,4.239,0,0,0-.836-1,2.481,2.481,0,0,0-.472-.327,2.5,2.5,0,0,0-.472.327,4.314,4.314,0,0,0-.837,1c-.683,1.117-1.059,2.792.018,3.8a1.882,1.882,0,0,0,1.291.52" transform="translate(-31.597 -6.151)" fill="#ce4074"/><path d="M98.882,120.688a1.441,1.441,0,0,0-1.724-.739,1.375,1.375,0,0,0-.79.641,1.375,1.375,0,0,0-.791-.641,1.441,1.441,0,0,0-1.724.739c-.665,1.59,1.161,3.1,2.514,3.627,1.353-.529,3.179-2.037,2.513-3.627" transform="translate(-38.095 -48.733)" fill="#ce4074" fill-rule="evenodd"/><line x2="117.334" transform="translate(0 72.522)" fill="none" stroke="#ce4074" stroke-miterlimit="10" stroke-width="0.506"/><path d="M105.948,199.385c-2.933,0-2.8,2.881-6.289,2.881s-3.355-2.881-6.288-2.881c-.122,0-.237.005-.349.015-.136-.009-.277-.015-.426-.015-2.82,0-2.811,2.662-5.9,2.868-3.091-.206-3.081-2.868-5.9-2.868-.135,0-.264.006-.387.018q-.184-.018-.387-.018c-2.821,0-2.811,2.663-5.9,2.868-3.091-.205-3.081-2.868-5.9-2.868q-.2,0-.387.018-.184-.018-.387-.018c-2.821,0-2.811,2.662-5.9,2.868-3.09-.206-3.081-2.868-5.9-2.868-.15,0-.291.005-.426.015-.112-.009-.227-.015-.349-.015-2.933,0-2.8,2.881-6.289,2.881s-3.355-2.881-6.288-2.881-3.309,1.779-3.309,4.09v.912a3.9,3.9,0,0,0,3.988,3.785l12.819-.033a4.146,4.146,0,0,0,.533.033l17.8-.046,17.8.046a4.159,4.159,0,0,0,.533-.033l12.819.033a3.9,3.9,0,0,0,3.989-3.785v-.912c0-2.312-.376-4.09-3.309-4.09" transform="translate(-15.845 -81.051)" fill="#ce4074" fill-rule="evenodd"/><rect width="7.759" height="2.033" transform="translate(54.393 60.418)" fill="#ce4074"/></g></svg>