<svg xmlns="http://www.w3.org/2000/svg" width="143.664" height="112.18" viewBox="0 0 143.664 112.18">
  <g id="グループ_17661" data-name="グループ 17661" transform="translate(-597.91 -61.85)">
    <g id="グループ_17657" data-name="グループ 17657" transform="translate(597.91 96.312)">
      <path id="パス_24244" data-name="パス 24244" d="M198.567,457.484l1.044,6.765a.18.18,0,0,1-.038.139.184.184,0,0,1-.128.068,24.67,24.67,0,0,0-4.247.722,7.2,7.2,0,0,0-2.073.824,4.488,4.488,0,0,0-1.554,1.677,4.384,4.384,0,0,0-.477,2.76,5.276,5.276,0,0,0,1.1,2.442,7.11,7.11,0,0,0,2.226,1.9.144.144,0,0,1,.054.2l-3.142,5.113a.11.11,0,0,1-.15.037,15.1,15.1,0,0,1-3.56-2.86,10.626,10.626,0,0,1-2.66-8.956,10.819,10.819,0,0,1,1.469-4.07,11.654,11.654,0,0,1,5.954-4.866.215.215,0,0,0,.137-.233l-.249-1.635a.171.171,0,0,0-.168-.146l-8.893-.05a.2.2,0,0,1-.2-.2L183,451.826a.185.185,0,0,1,.185-.185h7.877a.223.223,0,0,0,.156-.061.178.178,0,0,0,.056-.144l-.153-1.541a.241.241,0,0,0-.251-.2l-7.679-.013a.192.192,0,0,1-.192-.192v-5.5a.192.192,0,0,1,.192-.192l6.813-.013a.184.184,0,0,0,.149-.076.189.189,0,0,0,.028-.166,4.224,4.224,0,0,1-.2-1.491.342.342,0,0,1,.3-.314l5.533-.783a.281.281,0,0,1,.318.235l.351,2.35a.289.289,0,0,0,.283.249l1.864,0a.273.273,0,0,0,.192-.074l2.693-2.614a.111.111,0,0,1,.153,0l2.839,2.631a.125.125,0,0,0,.166,0,14.582,14.582,0,0,0,2.468-2.651.286.286,0,0,1,.208-.118.3.3,0,0,1,.228.081l2.764,2.629a.1.1,0,0,1,0,.15l-2.788,2.843a.119.119,0,0,1-.161.007,25.426,25.426,0,0,1-2.411-2.429.4.4,0,0,0-.654-.024l-2.566,2.514a.758.758,0,0,0-.227.541v2.246a.168.168,0,0,1-.168.168H197.6a.177.177,0,0,0-.164.242,3.2,3.2,0,0,1,.157,1.463.235.235,0,0,0,.233.257h3.525a.177.177,0,0,1,.177.177v5.27a.243.243,0,0,1-.246.235l-2.627.046a.092.092,0,0,0-.072.035A.1.1,0,0,0,198.567,457.484Z" transform="translate(-183 -440.947)" fill="#fff"/>
      <path id="パス_24245" data-name="パス 24245" d="M344.527,451.469l.373-.009a7.042,7.042,0,0,0,1.8.109h3l2.106-.031a8.94,8.94,0,0,0,2.091-.024H355.8l.654.055,1.258.092a.069.069,0,0,1,.06.042.1.1,0,0,1,0,.083l-2.143,4.7a3.915,3.915,0,0,0-.61,1.528,1.757,1.757,0,0,0-.48.924l-2.788,5.675a.229.229,0,0,0,.057.275q.772.678,1.5,1.452.166.179.253.011a.5.5,0,0,0,.164.382.509.509,0,0,0,.172.227.78.78,0,0,0,.218.218A12.272,12.272,0,0,1,357,476a12.823,12.823,0,0,1-3.388,7.975l-.318.528a2.6,2.6,0,0,0-.613.478,22.916,22.916,0,0,1-2.769,2.222.186.186,0,0,1-.259-.046l-3.32-4.84a.2.2,0,0,1-.031-.154.2.2,0,0,1,.09-.13,11.4,11.4,0,0,0,3-2.812,6.81,6.81,0,0,0,1.363-3.307,5.994,5.994,0,0,0-.746-3.669,9.689,9.689,0,0,0-2.189-2.5,17.137,17.137,0,0,0-2.743-1.923,10.292,10.292,0,0,1-1.095-.717.245.245,0,0,1-.076-.3l4.073-8.871a.174.174,0,0,0-.159-.246h-6.807a.2.2,0,0,1-.2-.2l-.048-5.653a.29.29,0,0,1,.088-.211.282.282,0,0,1,.211-.079A23.6,23.6,0,0,0,344.527,451.469Z" transform="translate(-306.365 -449.169)" fill="#fff"/>
      <rect id="長方形_3614" data-name="長方形 3614" width="22.784" height="6.329" rx="0.6" transform="translate(115.94 2.863)" fill="#fff"/>
      <path id="パス_24246" data-name="パス 24246" d="M536.012,502.331l.445.227.643.375a9.8,9.8,0,0,1,4.862,8.882,12.147,12.147,0,0,1-.892,4.472,13.979,13.979,0,0,1-2.276,3.693,20.232,20.232,0,0,1-5.566,4.626.118.118,0,0,1-.159-.044l-2.62-4.411a.159.159,0,0,1,.054-.2l1.212-.874a.994.994,0,0,0,.7-.532A9.016,9.016,0,0,0,535,516.025a8.058,8.058,0,0,0,1.533-4.208,4.578,4.578,0,0,0-.464-2.346,5.422,5.422,0,0,0-2.88-2.4,6.4,6.4,0,0,0-2.071-.5.885.885,0,0,0-.7-.068,4.2,4.2,0,0,0-2.135.122l-.392.022a5.121,5.121,0,0,0-1.461.2,23.781,23.781,0,0,0-3.66,1.2l-1.269.593a3.649,3.649,0,0,0-1.4.879,1.789,1.789,0,0,0-1.245.645,1.068,1.068,0,0,1-.927,0,3.446,3.446,0,0,0-1.1-1.687,1.89,1.89,0,0,0-.532-1.092l-.87-1.432a.17.17,0,0,1-.018-.138.156.156,0,0,1,.092-.1,2.864,2.864,0,0,0,.951-.611l1-.545.918-.536a.873.873,0,0,0,.436-.164l2.625-1.116,3.2-1.07a21.882,21.882,0,0,1,3.929-.556,1.038,1.038,0,0,0,.763-.164q.53.009,2.344.227A14.863,14.863,0,0,1,536.012,502.331Z" transform="translate(-442.927 -487.878)" fill="#fff"/>
      <path id="パス_24247" data-name="パス 24247" d="M427.249,525.247a.181.181,0,0,0,.118.172,6.264,6.264,0,0,0,.826,1.953l1.308,3.052a.967.967,0,0,0,.373.717,1.2,1.2,0,0,0,.227.754.771.771,0,0,0,.318.39l1.086,2.8a.3.3,0,0,1-.183.382l-1.121.449-4.147,1.844a.2.2,0,0,1-.148,0,.184.184,0,0,1-.1-.1l-5.422-12.519a.25.25,0,0,1,.131-.325l2.115-.951a.979.979,0,0,0,.491-.218L426,522.465a.1.1,0,0,1,.08,0,.1.1,0,0,1,.053.061A19.147,19.147,0,0,0,427.249,525.247Z" transform="translate(-368.612 -504.689)" fill="#fff"/>
      <path id="パス_24248" data-name="パス 24248" d="M301.167,538.852a.812.812,0,0,1,.087-.349,15.571,15.571,0,0,0,.972-2.788.239.239,0,0,0,.063-.209.759.759,0,0,0,.286-.432q.676-2.078,2.032-5.568a.113.113,0,0,1,.142-.068l5.679,2.012a.172.172,0,0,1,.107.115.181.181,0,0,1-.029.158,2.273,2.273,0,0,0-.314.584q-2.2,6.067-4.487,12.322a.145.145,0,0,1-.074.082.141.141,0,0,1-.109.005l-5.5-2.1a.259.259,0,0,1-.146-.336Z" transform="translate(-274.384 -510.142)" fill="#fff"/>
      <path id="パス_24249" data-name="パス 24249" d="M700.472,558.853a9.285,9.285,0,0,1-1.016-1.136.219.219,0,0,1,.024-.294l4.284-3.942a.114.114,0,0,1,.157,0,15.288,15.288,0,0,0,5.66,3.726,24.661,24.661,0,0,0,8.054,1.443,44.166,44.166,0,0,0,8.463-.639.159.159,0,0,1,.122.027.163.163,0,0,1,.065.108q.4,2.8.946,5.459.137.672-.41.68-.576.009-.6.013a59.735,59.735,0,0,1-6.131.621,33.2,33.2,0,0,1-7.129-.406,34.221,34.221,0,0,1-4.251-.955A21.083,21.083,0,0,1,700.472,558.853Z" transform="translate(-586.823 -528.925)" fill="#fff"/>
      <path id="パス_24250" data-name="パス 24250" d="M358.044,628.73a.855.855,0,0,1,.087.658q-.065-.61-.458-.083a15.953,15.953,0,0,1-2.448,2.629.119.119,0,0,1-.161-.009l-2.717-2.636a.217.217,0,0,0-.152-.061.2.2,0,0,0-.147.063l-2.248,2.322a.382.382,0,0,0-.272.327.711.711,0,0,1-.554-.1,1.145,1.145,0,0,0-.654-.519l-1.855-2.049a.252.252,0,0,1-.065-.174.216.216,0,0,1,.074-.16,10.109,10.109,0,0,0,1.541-1.659.477.477,0,0,0,.371-.486.885.885,0,0,0,.578-.371.323.323,0,0,1,.506-.063l2.163,2.16q.013.013.218.253a.438.438,0,0,0,.752-.009l.216-.24q1.149-1.125,2.084-2.2a.293.293,0,0,1,.223-.1.3.3,0,0,1,.224.1A12.862,12.862,0,0,0,358.044,628.73Z" transform="translate(-310.775 -585.83)" fill="#fff"/>
      <path id="パス_24251" data-name="パス 24251" d="M603.887,626.725a.53.53,0,0,0,.4-.015l2.174.055a.3.3,0,0,1,.29.292l.044,1.742.009.155a61.548,61.548,0,0,0,0,6.214v.055a.711.711,0,0,0,.009.569q-.118,2.182-.074,4.295,0,.111,0,.3-.026.929.355.133.759-1.578,1.506-3.15a1.138,1.138,0,0,1,.469.281l15.743,7.506a.136.136,0,0,1,.07.079.144.144,0,0,1-.007.108l-2.5,5.322a.225.225,0,0,1-.128.115.217.217,0,0,1-.169-.01q-2.139-1.086-4.378-2.086a3.94,3.94,0,0,0-.918-.327.3.3,0,0,0-.227-.172,23.3,23.3,0,0,0-3.2-1.537l-.554-.2a27.135,27.135,0,0,0-4.2-2.071.278.278,0,0,0-.281-.1.24.24,0,0,0-.209-.063l-1.1-.619a.139.139,0,0,0-.137,0,.159.159,0,0,0-.078.121,8.28,8.28,0,0,0,.009,1.914.611.611,0,0,0,0,.48l0,.283a41.86,41.86,0,0,0,0,5.123.668.668,0,0,1-.05.318l.05,2.843v.654a2.462,2.462,0,0,0,0,1.2.568.568,0,0,0,.055.6,8.462,8.462,0,0,0-.055,2.126.346.346,0,0,0,0,.163l-.054,3.741a.228.228,0,0,1-.222.231l-5.989-.057a.112.112,0,0,1-.107-.113l-.076-17.7v-5.5a.537.537,0,0,0-.055-.6,17.539,17.539,0,0,0,.055-3.325.7.7,0,0,0-.039-.423,3.8,3.8,0,0,0,0-1.757v-.981l.037-3.761a.817.817,0,0,0-.055-.708.328.328,0,0,0-.046-.427l.2-1.114a.127.127,0,0,1,.118-.109Z" transform="translate(-509.282 -586.212)" fill="#fff"/>
      <path id="パス_24252" data-name="パス 24252" d="M271.761,634.277v.6l.174,2.036a.214.214,0,0,0,.209.2h11.306a.238.238,0,0,1,.238.238v5.719a.148.148,0,0,1-.148.148h-11.03a.144.144,0,0,0-.144.155l.414,6.076a.334.334,0,0,0,.334.31l10.426.039a.111.111,0,0,1,.111.111v6.024a.111.111,0,0,1-.113.109l-10.086.037a.2.2,0,0,0-.141.062.19.19,0,0,0-.05.145l.693,10.295a.158.158,0,0,1-.04.117.163.163,0,0,1-.112.053l-5.9.31a.156.156,0,0,1-.163-.144l-.778-10.557a.305.305,0,0,0-.3-.281l-10.509-.037a.112.112,0,0,1-.111-.111L256,649.957a.2.2,0,0,1,.058-.142.2.2,0,0,1,.143-.059h10.046a.206.206,0,0,0,.147-.061.188.188,0,0,0,.054-.144l-.386-6.041a.306.306,0,0,0-.31-.281l-9.6-.013a.15.15,0,0,1-.15-.15v-5.808a.146.146,0,0,1,.146-.146h9.248a.19.19,0,0,0,.14-.061.2.2,0,0,0,.052-.144l-.222-4.589a.2.2,0,0,1,.053-.146.208.208,0,0,1,.143-.066l5.492-.259q.425-.02.469.351Z" transform="translate(-240.085 -590.23)" fill="#fff"/>
      <path id="パス_24253" data-name="パス 24253" d="M458.482,637.486l.44-.026a1.353,1.353,0,0,0,.763.054l8.014.024,2.318.039h1.958a.209.209,0,0,1,.155.07.2.2,0,0,1,.05.161q-.549,4.356-1.493,8.544a.656.656,0,0,0-.218.545.893.893,0,0,0-.037.491l-.017.055a4.439,4.439,0,0,0-.318.708,47.168,47.168,0,0,1-2.126,5.668,58.067,58.067,0,0,1-9.66,15.194q-.168.19.013.331a.287.287,0,0,0-.281.172l-1.358,1.428-.6.752a1.332,1.332,0,0,1-1.014.639.5.5,0,0,0-.634-.286.073.073,0,0,1-.065-.01.068.068,0,0,1-.029-.058.948.948,0,0,0-.421-.831,6.086,6.086,0,0,0-.866-.855q-.916-.739-.944-.765-.637-.584-1.108-1.105a.454.454,0,0,1,.1-.787,2.263,2.263,0,0,0,.791-.839q.525-.22-.074-.482a.2.2,0,0,1-.048-.334,1.767,1.767,0,0,1,.58-.333q.586-.179.606-.192a2.313,2.313,0,0,0,.778-.763,29.142,29.142,0,0,0,3.166-4.075q1.075-1.443,2.69-4.118a6.186,6.186,0,0,0,.632-1.267.364.364,0,0,0,.118-.209,1.84,1.84,0,0,0,.34-.486,44.644,44.644,0,0,0,3.92-9.987.774.774,0,0,0,.087-.508.132.132,0,0,0-.135-.1l-1.214.022-12.809-.054a.751.751,0,0,0-.342.011l-.421.044a3.037,3.037,0,0,0-.818-.063q-2.313.061-5.832-.05a.113.113,0,0,1-.111-.111l-.065-6.011a.112.112,0,0,1,.111-.113l4.426-.046,1.145-.055h1.036a.173.173,0,0,0,.109,0Q454.131,637.656,458.482,637.486Z" transform="translate(-386.268 -594.618)" fill="#fff"/>
    </g>
    <text id="岐阜市民の" transform="translate(644 75.85)" fill="#fff" font-size="16" font-family="HiraginoSans-W6, Hiragino Sans"><tspan x="0" y="0">岐阜市民の</tspan></text>
    <g id="e0807_1" transform="translate(620.328 75.606)">
      <path id="パス_24260" data-name="パス 24260" d="M138.427,8.569c.128-.128.239-.223.335-.335.191-.207.335-.367.415-.447a11.2,11.2,0,0,0,1.866-2.616c.287-.654.3-1.053-.048-1.2a1.129,1.129,0,0,0-.415-.144.855.855,0,0,0-.8.415,7.1,7.1,0,0,0-.495.909q-.144.287-.287.622c-.048.112-.1.223-.144.351-.048.112-.1.223-.144.351a1.537,1.537,0,0,1-.223.367c-.128.191-.3.415-.526.7A8.927,8.927,0,0,1,135.827,9.4a11.2,11.2,0,0,1-3.653,1.42,7.916,7.916,0,0,1-1.1.191c-.367.064-.75.1-1.133.128-.383.048-.782.064-1.18.08-.191.016-.4.016-.59.032-.207,0-.4,0-.606.016-1.611.016-3.254-.032-4.85-.064-1.6-.048-3.127-.1-4.531-.128-2.792-.1-5.057-.16-6.126-.191s-3.318-.064-6.126-.1c-2.808-.016-6.158-.032-9.412.08-.814.032-1.627.064-2.409.128a22.117,22.117,0,0,0-2.329.271c-.191.032-.383.064-.558.112a5.7,5.7,0,0,0-.558.16,9.744,9.744,0,0,0-1.021.415,8.743,8.743,0,0,0-1.675,1.117,12.065,12.065,0,0,0-1.2,1.2q-.5.574-.861,1.005a8.025,8.025,0,0,1-.893.973c-.207.144-.415.271-.606.4-.128.08-.239.144-.351.207a.461.461,0,0,0,.175-.175,1.84,1.84,0,0,0,.223-.989,3.569,3.569,0,0,0-.415-1.659,4.611,4.611,0,0,0-.622-.909c-.128-.144-.271-.287-.415-.431a5.59,5.59,0,0,0-.479-.383,8.754,8.754,0,0,0-1.659-.957c-.207-.1-.447-.191-.7-.287-.255-.08-.51-.175-.8-.255-.287-.1-.574-.16-.893-.239-.319-.064-.638-.144-.973-.191a31.8,31.8,0,0,0-4.531-.415c-1.643-.032-3.35.016-5.089.048-3.478.08-7,.223-9.923.335s-5.232.191-6.269.207c-1.037.048-3.35.1-6.269.144-.734.016-1.5.016-2.3.032-.8,0-1.627.016-2.457.016-.845,0-1.691-.016-2.568-.016-.861-.016-1.739-.016-2.6-.048l-1.292-.048c-.431-.016-.845-.048-1.276-.08-.8-.064-1.611-.16-2.393-.271s-1.547-.255-2.265-.431A18.176,18.176,0,0,1,26.3,9.239a10.124,10.124,0,0,1-1.611-.75,8.4,8.4,0,0,1-1.18-.8A4.981,4.981,0,0,1,22.42,6.527a5.272,5.272,0,0,1-.686-1.579,12.259,12.259,0,0,1-.191-1.212,1.232,1.232,0,0,0-.032-.239c-.016-.08-.016-.144-.032-.207s-.016-.128-.032-.175a.288.288,0,0,0-.032-.16.445.445,0,0,0-.383-.3.839.839,0,0,0-.431,0c-.223.064-.51.271-.574.845a3.952,3.952,0,0,0,.128,1.34,4.033,4.033,0,0,0,.861,1.627c.048.064.144.207.319.431a6.731,6.731,0,0,0,.7.814,9.614,9.614,0,0,0,2.824,1.9A18.049,18.049,0,0,0,29.28,10.9c.83.144,1.691.239,2.568.319.447.032.877.064,1.34.08.447.016.893.048,1.356.064,3.605.1,7.322.048,10.433-.016,3.111-.048,5.615-.128,6.8-.16,1.18-.048,3.685-.128,6.8-.223s6.812-.223,10.4-.255c.893-.016,1.787,0,2.664,0s1.723.032,2.536.1a22.41,22.41,0,0,1,4.387.686,9.645,9.645,0,0,1,2.871,1.244,3.58,3.58,0,0,1,.989.941,4.976,4.976,0,0,1,.463,1.308c.08.383.1.718.128.941a1.016,1.016,0,0,0,.431.782,1.03,1.03,0,0,0,.415.144.308.308,0,0,0,.239-.016c-.048.032-.1.048-.144.08a6.784,6.784,0,0,1-.75.319.892.892,0,0,0-.367.255.876.876,0,0,0-.191.335c-.032.112-.048.223-.064.3v.128a.372.372,0,0,0,.287.4,1.618,1.618,0,0,0,.957-.016,3.38,3.38,0,0,0,1.372-.782,6.614,6.614,0,0,0,.638-.686c.207-.255.4-.526.606-.814.144-.191.463-.654.941-1.276a9.4,9.4,0,0,1,2.042-2.01,7.122,7.122,0,0,1,1.6-.814,9.9,9.9,0,0,1,1.962-.415c1.42-.175,2.967-.271,4.531-.335,3.111-.128,6.3-.128,8.933-.112s4.722.064,5.647.1c.925.016,3.015.08,5.647.175s5.823.223,8.949.287a29.505,29.505,0,0,0,4.626-.207,13.62,13.62,0,0,0,4.02-1.1,11.123,11.123,0,0,0,2.68-1.739A3.821,3.821,0,0,0,138.427,8.569Z" transform="translate(-20.013 -2.622)" fill="#fff"/>
    </g>
  </g>
</svg>
