<?xml version="1.0" encoding="UTF-8" standalone="no"?>
<!DOCTYPE svg PUBLIC "-//W3C//DTD SVG 1.1//EN" "http://www.w3.org/Graphics/SVG/1.1/DTD/svg11.dtd">
<svg xmlns="http://www.w3.org/2000/svg" version="1.1" viewBox="0.00 0.00 302.00 188.00">
<path fill="#7cb528" d="
  M 65.89 0.00
  L 67.30 0.00
  L 68.09 1.47
  A 0.66 0.66 0.0 0 0 68.69 1.82
  L 74.16 1.72
  Q 74.66 1.71 74.89 2.16
  Q 75.33 3.03 74.71 3.58
  Q 74.33 3.91 73.58 3.87
  Q 67.40 3.59 61.22 3.82
  Q 60.75 3.83 60.75 4.31
  L 60.75 8.48
  A 0.49 0.49 0.0 0 0 61.68 8.70
  L 63.77 4.53
  A 0.52 0.52 0.0 0 1 64.40 4.26
  L 65.37 4.58
  A 0.64 0.63 24.6 0 1 65.72 5.50
  L 64.81 7.06
  Q 64.41 7.75 65.16 7.49
  Q 67.62 6.63 70.25 7.07
  A 0.36 0.36 0.0 0 0 70.67 6.67
  Q 70.38 4.22 71.58 4.33
  Q 73.42 4.50 72.75 6.37
  A 0.49 0.49 0.0 0 0 73.33 7.01
  Q 74.61 6.69 75.39 7.77
  A 0.58 0.58 0.0 0 1 74.96 8.68
  L 73.22 8.78
  Q 72.84 8.81 72.81 9.18
  C 72.63 11.20 73.29 14.66 72.50 16.18
  C 71.48 18.12 67.97 18.63 67.49 15.77
  A 0.37 0.37 0.0 0 1 68.06 15.41
  Q 69.10 16.12 70.22 15.41
  A 1.05 1.03 -16.5 0 0 70.71 14.53
  L 70.77 9.42
  A 0.61 0.61 0.0 0 0 70.18 8.81
  L 65.32 8.62
  A 0.56 0.55 -89.0 0 0 64.75 9.18
  L 64.75 17.00
  Q 64.75 17.75 64.00 17.75
  L 63.13 17.75
  Q 62.50 17.75 62.50 17.12
  L 62.50 11.99
  Q 62.50 11.41 61.93 11.46
  L 61.30 11.51
  Q 60.82 11.55 60.69 12.00
  L 59.38 16.71
  Q 59.19 17.36 58.53 17.23
  L 57.01 16.94
  Q 56.40 16.83 56.69 16.28
  C 59.16 11.60 58.42 7.11 58.53 2.28
  A 0.62 0.62 0.0 0 1 59.24 1.68
  Q 64.65 2.42 65.89 0.00
  Z"
/>
<path fill="#7cb528" d="
  M 173.06 0.00
  L 175.30 0.00
  L 175.52 1.22
  Q 175.59 1.57 175.94 1.56
  L 182.11 1.47
  Q 182.75 1.46 182.75 2.11
  L 182.75 2.75
  Q 182.75 3.50 182.00 3.50
  L 179.76 3.50
  A 0.33 0.33 0.0 0 0 179.59 4.12
  L 182.03 5.52
  A 0.62 0.61 37.4 0 1 182.16 6.48
  Q 180.92 7.75 179.54 6.62
  A 1.51 1.46 62.6 0 0 178.52 6.28
  Q 172.86 6.60 167.30 7.16
  Q 166.28 7.27 165.90 6.81
  Q 165.54 6.39 165.54 5.61
  Q 165.55 5.12 166.04 5.06
  Q 167.41 4.91 168.74 4.93
  Q 169.86 4.95 170.02 4.08
  Q 170.13 3.50 169.54 3.50
  L 165.63 3.50
  Q 165.00 3.50 165.00 2.87
  L 165.00 2.10
  Q 165.00 1.45 165.65 1.46
  L 171.80 1.59
  Q 172.16 1.60 172.22 1.24
  Q 172.36 0.42 173.06 0.00
  Z
  M 172.16 4.93
  L 176.68 4.66
  A 0.14 0.14 0.0 0 0 176.81 4.52
  L 176.80 4.44
  A 1.55 1.12 -3.4 0 0 175.19 3.41
  L 173.49 3.51
  A 1.55 1.12 -3.4 0 0 172.01 4.72
  L 172.02 4.80
  A 0.14 0.14 0.0 0 0 172.16 4.93
  Z"
/>
<path fill="#7cb528" d="
  M 261.79 0.00
  L 263.33 0.00
  Q 263.65 0.45 263.83 1.34
  A 0.58 0.58 0.0 0 0 264.40 1.81
  L 271.01 1.73
  Q 271.55 1.72 271.51 2.26
  L 271.47 2.86
  A 0.49 0.49 0.0 0 1 270.92 3.31
  Q 268.09 3.00 265.26 2.92
  Q 264.37 2.89 263.96 3.49
  Q 263.61 4.00 264.24 4.00
  L 268.32 4.00
  A 1.11 1.10 88.9 0 1 269.42 5.07
  L 269.59 9.95
  Q 269.61 10.77 270.39 10.53
  Q 271.22 10.28 271.77 10.87
  Q 272.37 11.52 271.55 11.84
  L 270.26 12.37
  A 0.77 0.76 -9.2 0 0 269.78 13.03
  L 269.69 14.46
  A 0.55 0.53 5.0 0 1 269.08 14.96
  L 264.69 14.38
  Q 264.08 14.30 263.95 14.90
  C 263.42 17.39 259.19 19.36 258.05 16.58
  A 0.66 0.66 0.0 0 1 258.97 15.74
  Q 260.21 16.39 261.34 15.55
  A 0.58 0.58 0.0 0 0 261.00 14.50
  L 255.58 14.49
  A 0.56 0.56 0.0 0 1 255.22 13.50
  C 256.67 12.30 259.51 13.55 261.19 12.80
  A 0.45 0.45 0.0 0 0 260.99 11.94
  L 254.08 12.14
  Q 253.50 12.16 253.50 11.58
  L 253.50 11.21
  A 0.54 0.53 -89.5 0 1 254.04 10.67
  L 261.36 10.69
  Q 261.65 10.69 261.55 10.41
  Q 261.50 10.24 261.44 10.06
  Q 261.42 10.00 261.25 10.00
  L 256.06 10.00
  Q 255.49 10.00 255.50 9.43
  Q 255.50 9.26 255.50 9.09
  Q 255.50 8.88 255.72 8.87
  L 261.23 8.72
  A 0.36 0.36 0.0 0 0 261.32 8.01
  Q 259.01 7.31 256.81 8.41
  A 0.55 0.55 0.0 0 1 256.01 7.92
  L 255.99 4.66
  A 0.62 0.62 0.0 0 1 256.59 4.04
  L 261.01 3.92
  A 0.45 0.45 0.0 0 0 260.99 3.03
  L 254.24 3.13
  A 0.46 0.46 0.0 0 1 253.77 2.71
  L 253.74 2.28
  Q 253.70 1.75 254.23 1.75
  L 260.75 1.75
  Q 261.30 1.75 261.45 1.23
  L 261.79 0.00
  Z
  M 261.31 5.78
  A 0.31 0.30 -63.3 0 0 261.13 5.22
  L 258.36 5.36
  A 0.32 0.31 56.5 0 0 258.24 5.96
  Q 259.87 6.75 261.31 5.78
  Z
  M 267.03 5.53
  C 265.97 5.36 264.99 4.87 264.05 5.54
  Q 263.22 6.12 264.24 6.15
  L 266.97 6.21
  A 0.34 0.34 0.0 0 0 267.03 5.53
  Z
  M 267.02 9.04
  Q 267.93 9.29 268.47 8.64
  Q 268.94 8.08 268.21 8.02
  L 264.34 7.67
  Q 264.01 7.64 264.00 7.97
  Q 264.00 8.14 264.00 8.31
  Q 264.01 8.72 264.42 8.72
  C 265.42 8.74 265.92 8.74 267.02 9.04
  Z
  M 267.32 10.60
  A 0.31 0.31 0.0 0 0 267.25 9.99
  L 263.83 10.01
  A 0.26 0.25 -37.1 0 0 263.76 10.51
  Q 265.52 11.03 267.32 10.60
  Z
  M 267.5399 12.5501
  A 1.92 0.54 0.6 0 0 265.6257 11.9900
  A 1.92 0.54 0.6 0 0 263.7001 12.5099
  A 1.92 0.54 0.6 0 0 265.6143 13.0700
  A 1.92 0.54 0.6 0 0 267.5399 12.5501
  Z"
/>
<path fill="#7cb528" d="
  M 286.81 0.00
  L 287.29 0.00
  Q 288.27 0.31 287.89 2.10
  A 0.68 0.67 -27.1 0 0 289.17 2.51
  L 289.79 1.11
  A 0.76 0.76 0.0 0 1 290.72 0.70
  L 291.97 1.11
  A 0.39 0.38 32.0 0 1 292.12 1.75
  L 291.28 2.60
  Q 290.63 3.25 291.55 3.25
  L 293.44 3.25
  Q 294.01 3.25 294.00 3.82
  Q 294.00 4.05 294.00 4.28
  Q 294.00 5.00 293.28 5.00
  L 289.75 5.00
  A 0.50 0.50 0.0 0 0 289.25 5.51
  Q 289.25 5.64 289.25 5.78
  Q 289.26 6.33 289.81 6.28
  Q 291.17 6.15 292.61 6.34
  A 0.82 0.82 0.0 0 1 292.52 7.97
  L 286.49 8.07
  A 0.35 0.35 0.0 0 0 286.47 8.77
  L 291.85 9.09
  Q 292.33 9.11 292.23 9.58
  Q 292.17 9.84 291.95 10.03
  Q 291.74 10.20 291.35 10.21
  Q 289.10 10.26 286.82 10.28
  A 0.30 0.30 0.0 0 0 286.53 10.65
  L 286.62 11.01
  Q 286.69 11.25 286.93 11.25
  L 293.37 11.25
  Q 294.00 11.25 294.00 11.88
  L 294.00 12.38
  Q 294.00 13.00 293.37 13.00
  L 288.28 13.00
  A 0.45 0.45 0.0 0 0 288.14 13.88
  L 294.04 15.69
  Q 294.65 15.88 294.15 16.28
  L 292.64 17.46
  A 0.51 0.49 -51.7 0 1 292.13 17.53
  L 287.22 15.24
  A 0.54 0.53 3.9 0 0 286.48 15.88
  Q 287.00 17.56 285.43 17.76
  Q 283.42 18.02 284.02 16.08
  L 284.27 15.29
  A 0.40 0.40 0.0 0 0 283.66 14.85
  C 281.83 16.13 277.92 18.72 276.52 16.53
  Q 276.24 16.09 276.73 15.91
  L 282.32 13.84
  A 0.43 0.43 0.0 0 0 282.17 13.00
  Q 279.99 13.01 277.61 12.97
  Q 277.28 12.96 277.05 12.83
  Q 276.68 12.61 276.62 12.41
  A 0.92 0.91 82.2 0 1 277.50 11.23
  L 283.50 11.30
  A 0.47 0.47 0.0 0 0 283.98 10.80
  Q 283.95 10.38 283.68 10.37
  Q 281.54 10.23 279.40 10.25
  Q 278.86 10.26 278.66 10.04
  Q 278.48 9.84 278.48 9.53
  A 0.51 0.50 -1.1 0 1 278.98 9.02
  L 283.55 8.96
  A 0.34 0.34 0.0 0 0 283.70 8.32
  C 281.94 7.39 279.32 8.51 277.45 7.76
  A 0.78 0.78 0.0 0 1 277.74 6.26
  L 280.92 6.23
  A 0.39 0.39 0.0 0 0 281.20 5.57
  L 280.96 5.34
  A 0.75 0.75 0.0 0 0 280.47 5.11
  L 276.61 4.81
  A 0.57 0.57 0.0 0 1 276.31 3.79
  Q 277.37 2.97 278.77 3.28
  Q 279.66 3.48 279.27 2.65
  L 278.88 1.81
  A 0.55 0.55 0.0 0 1 279.20 1.06
  L 279.75 0.87
  Q 280.33 0.68 280.69 1.18
  L 281.92 2.90
  A 0.45 0.45 0.0 0 0 282.73 2.56
  L 282.44 0.82
  A 0.51 0.50 -3.8 0 1 282.95 0.24
  L 284.64 0.27
  A 0.50 0.50 0.0 0 1 284.97 1.13
  Q 284.11 1.96 284.67 3.06
  Q 284.82 3.35 285.11 3.20
  Q 285.24 3.13 285.38 3.06
  Q 285.77 2.88 285.74 2.45
  Q 285.60 0.91 286.81 0.00
  Z
  M 283.46 6.10
  L 286.68 6.26
  A 0.55 0.55 0.0 0 0 286.89 5.19
  Q 284.96 4.54 283.31 5.46
  A 0.34 0.34 0.0 0 0 283.46 6.10
  Z"
/>
<path fill="#7cb528" d="
  M 22.51 2.25
  L 29.42 2.25
  A 0.33 0.33 0.0 0 1 29.75 2.58
  L 29.75 3.92
  A 0.33 0.33 0.0 0 1 29.42 4.25
  L 12.33 4.25
  A 0.33 0.33 0.0 0 1 12.00 3.92
  L 12.00 2.58
  A 0.33 0.33 0.0 0 1 12.33 2.25
  L 19.42 2.25
  A 0.33 0.33 0.0 0 0 19.75 1.92
  L 19.75 0.58
  A 0.33 0.33 0.0 0 1 20.08 0.25
  L 22.11 0.25
  A 0.33 0.33 0.0 0 1 22.43 0.64
  L 22.19 1.86
  A 0.33 0.33 0.0 0 0 22.51 2.25
  Z"
/>
<path fill="#7cb528" d="
  M 47.75 14.71
  L 47.75 17.12
  Q 47.75 17.75 47.12 17.75
  L 45.75 17.75
  Q 45.25 17.75 45.25 17.25
  L 45.25 8.03
  Q 45.25 7.57 44.79 7.60
  L 41.31 7.82
  A 0.56 0.56 0.0 0 0 41.32 8.94
  L 43.53 9.03
  A 0.50 0.49 -88.8 0 1 44.00 9.53
  L 43.99 16.93
  A 0.83 0.83 0.0 0 1 42.67 17.60
  Q 40.21 15.84 37.93 17.69
  A 0.88 0.88 0.0 0 1 36.50 17.01
  L 36.50 12.78
  A 0.76 0.75 -88.4 0 0 35.79 12.02
  Q 34.82 11.97 34.26 11.15
  Q 33.95 10.68 34.45 10.42
  L 37.98 8.57
  A 0.44 0.43 30.9 0 0 37.77 7.75
  L 35.00 7.75
  Q 34.50 7.75 34.50 7.25
  L 34.50 6.33
  Q 34.50 5.65 35.18 5.71
  L 37.03 5.89
  A 0.83 0.83 0.0 0 0 37.30 4.25
  Q 36.76 4.12 35.98 4.36
  A 0.54 0.54 0.0 0 1 35.28 3.87
  L 35.25 3.15
  A 0.61 0.61 0.0 0 1 35.86 2.50
  L 37.18 2.50
  A 0.78 0.78 0.0 0 0 37.95 1.82
  L 38.09 0.80
  A 1.09 1.08 48.9 0 1 40.25 0.95
  L 40.25 1.59
  Q 40.25 2.12 40.71 2.37
  Q 42.43 3.32 43.09 1.97
  Q 43.34 1.45 43.92 1.43
  L 51.45 1.18
  A 1.18 1.18 0.0 0 1 52.59 2.78
  L 51.04 6.85
  Q 50.85 7.36 51.20 7.77
  C 53.51 10.52 53.65 14.21 49.99 15.50
  A 0.77 0.76 58.3 0 1 49.19 15.31
  L 48.34 14.47
  Q 47.75 13.88 47.75 14.71
  Z
  M 44.45 6.02
  Q 45.21 5.88 45.24 5.10
  L 45.28 3.76
  Q 45.31 3.04 44.73 3.46
  Q 43.73 4.20 43.74 5.52
  Q 43.75 6.16 44.45 6.02
  Z
  M 48.77 6.70
  L 49.74 4.14
  A 0.66 0.65 -79.5 0 0 49.13 3.25
  L 48.50 3.25
  Q 47.75 3.25 47.75 4.00
  L 47.75 12.27
  A 1.31 1.31 0.0 0 0 50.34 12.53
  Q 50.84 10.08 49.10 8.28
  Q 48.43 7.60 48.77 6.70
  Z
  M 40.62 5.61
  Q 41.60 5.49 41.53 4.62
  A 0.75 0.74 -43.4 0 0 40.05 4.58
  L 39.99 4.98
  Q 39.90 5.70 40.62 5.61
  Z
  M 38.85 11.99
  L 41.65 11.99
  A 0.44 0.44 0.0 0 0 41.86 11.17
  Q 40.35 10.33 38.67 10.92
  A 0.55 0.55 0.0 0 0 38.85 11.99
  Z
  M 38.77 14.96
  L 41.48 14.96
  A 0.54 0.53 -37.6 0 0 41.62 13.91
  Q 40.12 13.52 38.63 13.91
  A 0.54 0.53 37.6 0 0 38.77 14.96
  Z"
/>
<path fill="#7cb528" d="
  M 98.52 5.98
  L 98.44 2.88
  Q 98.43 2.25 99.05 2.25
  L 100.44 2.25
  Q 100.87 2.25 100.85 2.68
  L 100.70 8.35
  A 0.94 0.94 0.0 0 1 99.35 9.17
  Q 97.29 8.17 94.91 8.56
  Q 94.50 8.62 94.50 9.04
  L 94.50 13.75
  Q 94.50 14.50 95.25 14.50
  L 98.48 14.50
  A 0.57 0.57 0.0 0 0 99.05 13.88
  Q 98.87 12.07 99.10 10.95
  A 1.21 1.21 0.0 0 1 101.50 11.20
  L 101.50 17.02
  A 0.70 0.69 81.6 0 1 101.01 17.69
  Q 99.45 18.20 98.82 16.97
  Q 98.58 16.50 98.05 16.50
  L 88.31 16.50
  Q 87.74 16.50 87.75 17.07
  Q 87.75 17.27 87.75 17.42
  A 1.28 1.00 51.7 0 1 85.52 16.88
  Q 85.50 14.11 85.50 10.83
  Q 85.50 10.25 86.08 10.25
  L 87.47 10.25
  Q 87.93 10.25 87.90 10.71
  L 87.69 13.95
  Q 87.66 14.50 88.21 14.50
  L 91.25 14.50
  Q 92.00 14.50 92.00 13.75
  L 92.00 9.11
  Q 92.00 8.18 91.08 8.35
  L 86.78 9.15
  A 0.66 0.66 0.0 0 1 86.00 8.50
  L 86.00 2.64
  A 0.50 0.50 0.0 0 1 86.55 2.14
  L 87.99 2.29
  Q 88.57 2.34 88.56 2.93
  L 88.48 5.85
  A 0.63 0.63 0.0 0 0 89.11 6.50
  L 91.25 6.50
  Q 92.00 6.50 92.00 5.75
  L 92.00 1.27
  Q 92.00 0.54 92.73 0.51
  L 94.00 0.47
  Q 94.54 0.45 94.54 0.99
  L 94.48 5.86
  Q 94.48 6.50 95.11 6.50
  L 98.02 6.50
  Q 98.54 6.50 98.52 5.98
  Z"
/>
<path fill="#7cb528" d="
  M 117.57 7.88
  Q 117.89 8.41 118.44 8.71
  Q 118.80 8.91 119.22 8.93
  L 122.64 9.09
  A 0.83 0.83 0.0 0 1 122.61 10.75
  L 118.75 10.75
  A 0.74 0.74 0.0 0 0 118.72 12.22
  Q 120.43 12.29 122.19 12.24
  Q 122.75 12.22 122.75 12.78
  L 122.75 13.46
  A 0.56 0.55 -88.5 0 1 122.17 14.02
  Q 120.44 13.94 118.71 14.05
  A 0.73 0.72 43.2 0 0 118.76 15.50
  L 123.94 15.50
  Q 124.51 15.50 124.50 16.07
  Q 124.50 16.38 124.50 16.68
  Q 124.51 17.25 123.94 17.25
  L 110.74 17.25
  Q 109.85 17.25 110.25 16.46
  L 110.65 15.65
  A 0.28 0.28 0.0 0 1 110.90 15.50
  L 115.42 15.50
  Q 115.94 15.50 116.20 15.06
  L 116.44 14.66
  A 0.33 0.33 0.0 0 0 116.19 14.17
  L 112.74 13.87
  A 1.03 1.01 77.1 0 1 111.93 13.35
  Q 111.57 12.70 110.84 12.74
  A 0.62 0.62 0.0 0 0 110.28 13.17
  L 109.14 16.57
  Q 108.89 17.31 108.13 17.13
  L 106.75 16.80
  Q 106.08 16.65 106.48 16.09
  C 108.86 12.80 108.10 9.46 108.28 5.71
  A 0.49 0.49 0.0 0 1 108.77 5.25
  L 111.28 5.25
  A 0.58 0.58 0.0 0 0 111.76 4.35
  Q 110.85 2.99 108.94 3.59
  A 0.51 0.51 0.0 0 1 108.28 3.13
  L 108.24 2.27
  Q 108.21 1.75 108.73 1.75
  L 113.99 1.75
  Q 114.58 1.75 114.69 1.18
  Q 114.97 -0.33 116.84 0.28
  Q 117.38 0.46 117.30 1.02
  L 117.25 1.41
  Q 117.19 1.87 117.65 1.85
  L 123.09 1.71
  Q 123.75 1.69 123.75 2.35
  L 123.75 2.83
  A 0.61 0.61 0.0 0 1 123.18 3.44
  L 120.73 3.61
  A 0.82 0.82 0.0 0 0 120.79 5.25
  L 124.04 5.25
  A 0.74 0.74 0.0 0 1 124.65 5.57
  Q 125.24 6.43 124.33 6.89
  Q 124.06 7.02 123.65 7.00
  Q 120.75 6.86 117.86 7.27
  Q 117.25 7.36 117.57 7.88
  Z
  M 117.8795 4.2797
  A 0.83 0.83 0.0 0 0 117.0408 3.4584
  L 114.8210 3.4817
  A 0.83 0.83 0.0 0 0 113.9997 4.3203
  L 114.0005 4.4003
  A 0.83 0.83 0.0 0 0 114.8392 5.2216
  L 117.0590 5.1983
  A 0.83 0.83 0.0 0 0 117.8803 4.3597
  L 117.8795 4.2797
  Z
  M 112.80 8.02
  Q 113.98 7.42 114.75 8.69
  A 0.59 0.59 0.0 0 0 115.65 8.82
  L 116.15 8.37
  A 0.73 0.73 0.0 0 0 115.66 7.10
  L 111.09 7.07
  A 0.59 0.59 0.0 0 0 110.50 7.66
  L 110.50 10.49
  Q 110.50 11.61 111.19 10.73
  Q 111.88 9.85 112.21 8.74
  Q 112.35 8.25 112.80 8.02
  Z
  M 113.04 11.25
  A 0.57 0.57 0.0 0 0 113.38 12.29
  L 116.11 12.14
  A 0.57 0.57 0.0 0 0 116.31 11.05
  Q 114.58 10.25 113.04 11.25
  Z"
/>
<path fill="#7cb528" d="
  M 219.75 2.00
  L 225.62 2.00
  Q 226.25 2.00 226.25 2.62
  L 226.25 3.66
  Q 226.25 4.32 225.59 4.30
  L 219.74 4.12
  A 0.46 0.46 0.0 0 0 219.50 4.98
  Q 222.25 6.51 222.26 7.29
  A 1.23 1.15 -64.7 0 1 220.15 8.13
  Q 219.06 6.61 217.38 6.01
  Q 216.87 5.82 216.94 5.28
  L 217.01 4.79
  Q 217.08 4.25 216.54 4.25
  L 213.04 4.25
  A 0.60 0.59 -2.2 0 0 212.44 4.89
  Q 212.91 10.90 211.15 16.65
  A 1.03 1.03 0.0 0 1 209.56 17.19
  Q 209.12 16.87 208.56 17.00
  A 0.52 0.51 -86.4 0 1 207.97 16.32
  Q 208.18 15.76 208.55 15.30
  Q 208.86 14.92 209.03 14.46
  C 210.68 9.93 210.16 6.79 210.00 2.53
  A 0.51 0.51 0.0 0 1 210.51 2.00
  L 216.00 2.00
  Q 216.75 2.00 216.75 1.25
  L 216.75 0.87
  Q 216.75 0.25 217.38 0.25
  L 218.62 0.25
  Q 219.25 0.25 219.25 0.88
  L 219.25 1.50
  Q 219.25 2.00 219.75 2.00
  Z"
/>
<path fill="#7cb528" d="
  M 233.00 3.50
  L 233.00 0.75
  A 0.50 0.50 0.0 0 1 233.50 0.25
  L 235.09 0.25
  Q 235.58 0.25 235.51 0.74
  L 235.15 3.14
  Q 235.03 3.97 235.87 3.99
  Q 236.86 4.01 237.00 4.92
  A 0.78 0.78 0.0 0 1 236.50 5.77
  L 235.34 6.19
  A 0.98 0.98 0.0 0 0 235.69 8.09
  L 239.33 8.03
  Q 239.76 8.03 239.75 7.60
  Q 239.75 7.41 239.75 7.22
  A 0.18 0.18 0.0 0 0 239.58 7.04
  L 238.28 6.94
  A 0.48 0.48 0.0 0 1 237.86 6.32
  L 238.61 3.93
  Q 238.77 3.42 238.26 3.25
  Q 237.19 2.90 236.81 1.89
  Q 236.63 1.41 237.14 1.38
  L 246.84 0.80
  A 1.39 1.39 0.0 0 1 248.10 2.93
  L 246.96 4.74
  Q 246.40 5.63 247.40 5.30
  Q 248.60 4.90 248.90 6.11
  A 0.71 0.71 0.0 0 1 248.22 6.99
  L 242.27 7.05
  A 0.26 0.26 0.0 0 0 242.02 7.37
  L 242.12 7.76
  Q 242.19 8.00 242.43 8.00
  L 248.75 8.00
  A 0.50 0.50 0.0 0 1 249.25 8.50
  L 249.25 9.00
  Q 249.25 9.50 248.75 9.50
  L 242.25 9.50
  A 0.50 0.50 0.0 0 0 241.75 10.01
  Q 241.75 10.16 241.75 10.33
  Q 241.76 10.68 242.11 10.66
  L 246.70 10.44
  A 1.02 1.02 0.0 0 1 247.59 12.04
  L 246.17 14.11
  A 0.69 0.69 0.0 0 0 246.63 15.17
  L 249.08 15.58
  A 0.53 0.53 0.0 0 1 249.31 16.52
  L 247.82 17.65
  A 0.58 0.57 36.1 0 1 247.27 17.73
  L 243.85 16.42
  Q 243.36 16.23 242.96 16.60
  Q 240.87 18.52 238.67 17.01
  Q 238.27 16.73 237.85 16.97
  Q 236.75 17.58 235.64 16.97
  Q 235.24 16.74 234.80 16.92
  L 232.52 17.82
  A 0.76 0.75 -22.6 0 1 231.56 17.43
  L 230.98 16.12
  Q 230.71 15.50 231.39 15.50
  L 232.25 15.50
  Q 233.00 15.50 233.00 14.75
  L 233.00 11.76
  A 0.47 0.47 0.0 0 0 232.20 11.43
  L 231.68 11.95
  Q 231.15 12.48 230.96 11.75
  L 230.59 10.39
  Q 230.40 9.66 231.14 9.53
  Q 231.53 9.46 232.03 9.43
  A 1.72 1.72 0.0 0 0 231.94 6.00
  L 231.38 6.00
  Q 230.75 6.00 230.75 5.37
  L 230.75 4.62
  Q 230.75 4.00 231.38 4.00
  L 232.50 4.00
  Q 233.00 4.00 233.00 3.50
  Z
  M 244.94 2.83
  Q 243.97 2.57 243.19 2.91
  Q 242.65 3.14 243.00 3.61
  L 244.18 5.18
  A 0.49 0.49 0.0 0 0 245.07 4.88
  Q 245.05 2.59 247.28 3.03
  A 0.42 0.41 -9.6 0 0 247.72 2.42
  L 247.57 2.17
  Q 247.30 1.72 246.87 2.01
  L 245.89 2.67
  Q 245.45 2.96 244.94 2.83
  Z
  M 240.94 3.07
  A 0.62 0.62 0.0 0 0 240.16 3.97
  L 240.81 4.99
  A 0.51 0.51 0.0 0 0 241.75 4.78
  Q 241.93 3.52 240.94 3.07
  Z
  M 238.78 9.53
  Q 236.96 8.92 235.59 10.26
  A 1.05 1.01 -22.2 0 0 235.30 10.92
  L 235.16 15.07
  A 0.41 0.41 0.0 0 0 235.82 15.41
  Q 238.31 13.53 239.29 10.54
  Q 239.54 9.78 238.78 9.53
  Z
  M 244.65 12.09
  Q 243.20 11.40 242.65 12.82
  A 0.61 0.60 83.1 0 0 243.56 13.54
  L 244.70 12.72
  A 0.37 0.37 0.0 0 0 244.65 12.09
  Z
  M 240.03 14.11
  L 239.07 15.38
  A 0.43 0.43 0.0 0 0 239.58 16.03
  L 240.53 15.62
  Q 241.01 15.42 241.28 14.96
  Q 241.82 14.08 241.08 13.81
  A 0.93 0.91 -60.5 0 0 240.03 14.11
  Z"
/>
<path fill="#7cb528" d="
  M 150.52 7.11
  L 149.09 6.14
  Q 148.64 5.84 148.97 5.41
  C 149.58 4.63 151.87 5.35 153.23 3.83
  Q 153.75 3.25 152.97 3.25
  L 144.75 3.25
  Q 144.25 3.25 144.25 2.75
  L 144.25 1.75
  A 0.50 0.50 0.0 0 1 144.75 1.25
  L 156.72 1.25
  A 1.08 1.08 0.0 0 1 157.38 3.18
  L 153.45 6.23
  A 0.83 0.83 0.0 0 0 153.95 7.72
  L 159.89 7.77
  A 0.62 0.61 90.0 0 1 160.50 8.39
  L 160.50 9.60
  Q 160.50 10.00 160.10 10.00
  L 154.70 10.00
  Q 154.08 10.00 154.15 10.61
  Q 154.92 17.35 148.18 17.88
  A 0.77 0.76 -19.4 0 1 147.48 17.55
  L 145.96 15.36
  A 0.44 0.44 0.0 0 1 146.52 14.72
  C 150.59 16.79 151.80 13.69 151.71 10.46
  Q 151.70 10.00 151.24 10.00
  L 142.50 10.00
  Q 142.00 10.00 142.00 9.50
  L 142.00 8.37
  Q 142.00 7.75 142.63 7.75
  L 150.33 7.75
  Q 151.48 7.75 150.52 7.11
  Z"
/>
<path fill="#7cb528" d="
  M 195.50 4.98
  L 189.34 6.44
  Q 188.71 6.59 188.35 6.06
  L 187.47 4.76
  Q 187.10 4.22 187.75 4.11
  Q 198.79 2.25 201.74 1.94
  Q 203.71 1.73 203.65 3.76
  Q 203.64 4.19 203.22 4.22
  C 196.93 4.76 190.37 13.97 201.35 14.20
  A 0.42 0.42 0.0 0 1 201.67 14.88
  L 200.56 16.33
  Q 200.25 16.75 199.72 16.69
  C 193.43 15.97 190.22 10.18 195.79 5.58
  A 0.35 0.34 -71.3 0 0 195.50 4.98
  Z"
/>
<path fill="#7cb528" d="
  M 15.91 11.93
  L 14.93 11.60
  Q 14.50 11.45 14.50 11.00
  L 14.50 6.25
  Q 14.50 5.50 15.25 5.50
  L 26.50 5.50
  Q 27.25 5.50 27.25 6.25
  L 27.25 10.49
  Q 27.25 12.29 25.58 11.60
  Q 24.27 11.05 22.82 11.27
  Q 22.24 11.35 22.24 11.93
  C 22.23 13.85 23.12 16.54 20.78 17.54
  Q 18.29 18.60 17.05 16.57
  A 0.52 0.52 0.0 0 1 17.46 15.78
  L 19.22 15.68
  A 0.83 0.83 0.0 0 0 20.00 14.85
  L 20.00 11.97
  Q 20.00 11.32 19.35 11.26
  Q 18.27 11.15 17.21 11.38
  Q 16.03 11.64 17.08 12.24
  L 18.15 12.86
  Q 18.83 13.25 18.21 13.73
  L 14.17 16.89
  Q 13.66 17.29 13.12 16.92
  L 12.02 16.17
  Q 11.56 15.84 12.02 15.52
  L 16.03 12.76
  A 0.47 0.47 0.0 0 0 15.91 11.93
  Z
  M 24.9822 8.0808
  A 0.59 0.59 0.0 0 0 24.3953 7.4878
  L 17.6154 7.4523
  A 0.59 0.59 0.0 0 0 17.0223 8.0392
  L 17.0178 8.8992
  A 0.59 0.59 0.0 0 0 17.6047 9.4922
  L 24.3846 9.5277
  A 0.59 0.59 0.0 0 0 24.9777 8.9408
  L 24.9822 8.0808
  Z"
/>
<circle fill="#7cb528" cx="134.20" cy="9.02" r="2.47"/>
<path fill="#7cb528" d="
  M 216.27 8.73
  Q 215.90 7.19 217.68 7.92
  A 1.33 1.33 0.0 0 1 218.50 9.15
  L 218.50 14.88
  Q 218.50 15.58 219.20 15.52
  L 220.85 15.38
  A 0.72 0.71 -2.6 0 0 221.50 14.67
  L 221.50 13.01
  A 0.47 0.46 15.2 0 1 222.20 12.61
  Q 224.09 13.74 223.63 15.41
  C 222.98 17.78 219.48 17.83 217.63 17.18
  A 2.07 2.05 -80.5 0 1 216.25 15.23
  L 216.25 10.56
  A 0.39 0.39 0.0 0 0 215.49 10.47
  L 214.37 15.10
  Q 214.23 15.69 213.63 15.72
  L 212.92 15.75
  A 0.92 0.91 14.3 0 1 212.09 14.36
  Q 213.42 12.20 213.45 9.66
  A 0.73 0.73 0.0 0 1 214.32 8.95
  L 215.78 9.24
  Q 216.43 9.37 216.27 8.73
  Z"
/>
<path fill="#7cb528" d="
  M 168.57 7.91
  L 179.43 7.71
  Q 179.96 7.70 179.97 8.24
  Q 180.07 13.53 179.99 15.25
  C 179.89 17.69 175.56 19.04 174.56 16.28
  A 0.43 0.42 87.0 0 1 175.06 15.72
  Q 176.51 16.08 177.68 15.27
  A 0.42 0.42 0.0 0 0 177.44 14.50
  L 170.68 14.50
  Q 170.06 14.50 170.11 15.12
  L 170.30 17.45
  A 0.51 0.51 0.0 0 1 169.79 18.00
  L 168.75 18.00
  Q 168.00 18.00 168.00 17.25
  L 168.00 8.49
  A 0.58 0.58 0.0 0 1 168.57 7.91
  Z
  M 177.6826 9.8517
  A 0.32 0.32 0.0 0 0 177.3671 9.5272
  L 170.6077 9.4329
  A 0.32 0.32 0.0 0 0 170.2833 9.7484
  L 170.2774 10.1683
  A 0.32 0.32 0.0 0 0 170.5929 10.4928
  L 177.3523 10.5871
  A 0.32 0.32 0.0 0 0 177.6767 10.2716
  L 177.6826 9.8517
  Z
  M 177.8900 12.4967
  A 0.48 0.48 0.0 0 0 177.4109 12.0158
  L 170.7309 12.0042
  A 0.48 0.48 0.0 0 0 170.2500 12.4833
  L 170.2500 12.5233
  A 0.48 0.48 0.0 0 0 170.7291 13.0042
  L 177.4091 13.0158
  A 0.48 0.48 0.0 0 0 177.8900 12.5367
  L 177.8900 12.4967
  Z"
/>
<path fill="#7cb528" d="
  M 222.69 10.06
  Q 222.05 10.06 222.30 9.08
  A 1.12 1.12 0.0 0 1 224.33 8.75
  L 226.90 12.79
  Q 227.29 13.40 226.75 13.90
  L 225.86 14.72
  Q 225.29 15.25 225.01 14.52
  Q 224.10 12.11 222.69 10.06
  Z"
/>
<path fill="#7cb528" d="
  M 68.69 13.65
  A 0.43 0.43 0.0 0 1 68.08 13.61
  L 67.87 13.38
  A 3.64 0.80 48.0 0 1 66.03 10.14
  L 66.48 9.74
  A 3.64 0.80 48.0 0 1 69.51 11.91
  L 69.72 12.14
  A 0.43 0.43 0.0 0 1 69.68 12.75
  L 68.69 13.65
  Z"
/>
<path fill="#7cb528" d="
  M 30.13 15.27
  A 0.18 0.18 0.0 0 1 30.20 15.51
  L 30.17 15.58
  A 2.33 2.13 29.1 0 1 27.09 16.30
  L 25.07 15.18
  A 2.33 2.13 29.1 0 1 24.07 12.18
  L 24.10 12.12
  A 0.18 0.18 0.0 0 1 24.35 12.05
  L 30.13 15.27
  Z"
/>
<rect fill="#7cb528" x="-16.90" y="-7.05" transform="translate(122.60,49.69) rotate(23.0)" width="33.80" height="14.10" rx="6.79"/>
<path fill="#7cb528" d="
  M 0.00 106.87
  L 0.00 102.98
  C 1.79 91.31 10.49 87.39 21.02 86.68
  Q 21.60 86.64 21.74 86.08
  Q 25.02 72.78 26.41 59.15
  Q 26.48 58.53 25.85 58.52
  C 22.48 58.46 17.39 59.18 14.60 57.58
  C 8.36 54.00 10.96 44.65 17.82 44.56
  C 22.83 44.50 33.60 43.40 37.57 45.71
  C 41.37 47.93 41.44 51.72 40.92 56.04
  Q 39.06 71.48 35.96 86.95
  Q 35.83 87.58 36.47 87.68
  L 55.78 90.80
  A 0.79 0.79 0.0 0 0 56.68 90.20
  C 57.85 85.24 57.58 78.29 64.15 77.55
  C 68.25 77.09 71.49 80.29 71.96 84.20
  C 72.27 86.82 71.18 90.44 70.50 93.29
  Q 70.38 93.84 70.93 93.91
  Q 75.69 94.56 77.24 95.25
  C 83.07 97.84 83.66 106.00 77.76 108.31
  C 74.71 109.50 70.53 108.23 67.09 107.72
  Q 66.54 107.63 66.37 108.16
  C 64.71 113.13 60.02 127.09 55.83 129.88
  C 51.91 132.49 46.05 129.88 45.29 125.37
  C 44.57 121.06 50.74 109.84 52.55 105.50
  Q 52.94 104.56 51.94 104.39
  L 33.11 101.15
  A 0.83 0.83 0.0 0 0 32.16 101.78
  C 30.30 109.39 24.60 126.81 13.55 123.85
  Q 1.38 120.60 0.00 106.87
  Z
  M 18.02 99.84
  C 12.89 99.79 8.90 105.88 13.84 108.93
  A 1.33 1.33 0.0 0 0 15.80 108.23
  L 18.46 100.45
  Q 18.66 99.85 18.02 99.84
  Z"
/>
<path fill="#7cb528" d="
  M 269.03 86.44
  Q 283.98 103.23 299.09 119.88
  C 305.79 127.27 295.46 137.22 288.48 129.27
  Q 271.71 110.16 254.99 91.02
  C 251.07 86.53 253.80 82.57 257.42 78.76
  Q 271.17 64.24 284.92 49.71
  Q 287.89 46.57 289.46 45.76
  C 296.38 42.19 302.86 51.78 297.56 57.06
  Q 283.25 71.29 269.05 85.62
  Q 268.65 86.02 269.03 86.44
  Z"
/>
<path fill="#7cb528" d="
  M 187.66 102.17
  C 193.55 100.37 198.75 105.97 196.16 111.44
  C 194.01 115.98 185.12 119.54 180.25 121.76
  C 169.60 126.60 167.39 108.19 166.66 101.56
  Q 164.85 85.20 167.04 64.00
  C 168.29 51.89 182.84 53.77 181.18 65.00
  C 179.34 77.51 178.75 92.29 181.87 104.65
  A 0.52 0.51 62.7 0 0 182.71 104.92
  Q 184.89 103.01 187.66 102.17
  Z"
/>
<path fill="#7cb528" d="
  M 132.00 104.68
  C 131.50 84.61 100.27 118.14 100.25 94.79
  Q 100.25 80.89 100.25 67.01
  Q 100.25 62.92 101.58 60.88
  C 104.13 56.96 111.42 57.21 113.52 61.85
  Q 114.20 63.35 114.22 66.39
  Q 114.29 76.55 114.24 86.60
  A 0.67 0.67 0.0 0 0 115.17 87.23
  C 130.84 80.61 144.95 86.09 145.98 104.26
  C 147.09 123.79 131.09 131.65 113.92 133.96
  Q 109.44 134.56 107.15 133.82
  C 102.70 132.38 100.59 125.25 104.73 122.24
  Q 106.13 121.22 110.04 120.43
  C 119.28 118.58 132.32 117.40 132.00 104.68
  Z"
/>
<path fill="#7cb528" d="
  M 217.01 73.27
  C 218.31 66.65 226.70 65.00 230.02 71.40
  Q 235.94 82.83 238.88 94.58
  C 240.57 101.34 232.57 105.92 227.59 101.64
  Q 225.86 100.15 224.59 96.13
  Q 221.85 87.42 218.18 79.05
  Q 216.58 75.41 217.01 73.27
  Z"
/>
<ellipse fill="#7cb528" cx="0.00" cy="0.00" transform="translate(189.88,152.45) rotate(90.9)" rx="3.33" ry="2.26"/>
<ellipse fill="#7cb528" cx="0.00" cy="0.00" transform="translate(195.31,152.46) rotate(90.0)" rx="3.33" ry="2.25"/>
<ellipse fill="#7cb528" cx="0.00" cy="0.00" transform="translate(110.84,152.73) rotate(89.9)" rx="3.36" ry="2.27"/>
<ellipse fill="#7cb528" cx="0.00" cy="0.00" transform="translate(116.19,152.74) rotate(89.3)" rx="3.34" ry="2.24"/>
<path fill="#7cb528" d="
  M 174.69 155.97
  C 174.60 153.65 173.04 149.72 177.31 149.90
  C 179.99 150.01 180.13 153.92 180.56 155.93
  Q 180.66 156.41 181.15 156.44
  C 184.50 156.63 188.04 155.83 190.60 157.50
  Q 191.02 157.77 191.14 158.26
  C 192.42 163.64 185.05 162.18 182.32 162.28
  Q 181.61 162.30 181.75 163.00
  L 182.56 166.99
  Q 182.67 167.58 183.27 167.55
  C 186.47 167.41 191.10 166.93 191.83 169.54
  C 193.14 174.22 186.40 173.07 184.32 173.33
  Q 183.77 173.39 183.89 173.93
  C 184.44 176.49 186.51 183.36 185.87 185.57
  C 185.00 188.55 180.97 187.59 180.34 184.33
  Q 179.32 179.09 178.23 173.85
  Q 178.13 173.35 177.62 173.33
  C 173.97 173.15 169.95 173.86 167.56 172.82
  C 165.41 171.89 165.16 169.26 167.15 168.03
  C 168.87 166.97 174.38 167.52 176.59 167.48
  Q 177.14 167.46 177.02 166.92
  L 176.12 162.92
  Q 175.98 162.31 175.35 162.29
  C 172.90 162.22 167.44 163.25 166.82 159.91
  C 166.04 155.75 172.09 156.53 174.21 156.48
  Q 174.70 156.47 174.69 155.97
  Z"
/>
<path fill="#7cb528" d="
  M 256.67 161.92
  L 269.51 165.84
  A 1.33 1.31 -9.1 0 1 270.20 166.33
  C 272.25 169.08 269.98 172.10 266.97 171.13
  Q 261.84 169.48 256.76 167.74
  A 0.57 0.57 0.0 0 0 256.01 168.28
  C 256.00 171.60 256.86 182.48 255.61 185.02
  C 253.92 188.46 250.28 185.64 250.27 182.39
  Q 250.22 168.19 250.32 154.00
  C 250.35 148.98 256.29 150.44 256.06 153.25
  Q 255.75 157.23 256.09 161.20
  Q 256.14 161.76 256.67 161.92
  Z"
/>
<path fill="#7cb528" d="
  M 97.10 160.12
  Q 103.11 158.55 109.05 156.81
  C 112.78 155.71 114.20 161.39 110.75 162.26
  Q 103.80 164.01 96.89 166.00
  A 0.54 0.54 0.0 0 0 96.50 166.52
  L 96.50 179.00
  A 0.47 0.47 0.0 0 0 96.95 179.47
  Q 103.76 179.72 110.49 178.92
  C 113.94 178.51 115.08 183.79 110.47 184.51
  C 107.34 184.99 91.03 186.84 91.02 181.67
  Q 90.98 168.28 91.01 154.89
  C 91.02 152.75 92.18 151.05 94.44 151.57
  C 97.32 152.22 96.48 157.61 96.56 159.73
  Q 96.58 160.26 97.10 160.12
  Z"
/>
<ellipse fill="#7cb528" cx="0.00" cy="0.00" transform="translate(69.78,157.05) rotate(89.5)" rx="3.31" ry="2.23"/>
<rect fill="#7cb528" x="-2.13" y="-3.13" transform="translate(75.13,157.11) rotate(0.7)" width="4.26" height="6.26" rx="1.90"/>
<path fill="#7cb528" d="
  M 228.72 154.53
  C 231.52 156.06 230.51 162.41 230.25 165.02
  C 229.58 171.92 221.92 180.66 217.16 184.91
  C 214.30 187.45 210.91 183.39 213.93 180.22
  C 219.32 174.57 225.65 168.67 224.95 160.59
  Q 224.91 160.05 224.37 160.04
  Q 216.64 159.90 209.02 160.02
  C 204.74 160.09 204.24 154.27 209.27 154.26
  Q 218.67 154.24 227.65 154.25
  A 2.20 2.18 59.4 0 1 228.72 154.53
  Z"
/>
<path fill="#7cb528" d="
  M 60.78 164.79
  L 52.39 173.55
  Q 52.06 173.88 51.59 173.95
  C 47.90 174.51 46.73 171.28 49.14 168.76
  Q 53.49 164.21 57.69 159.88
  A 4.82 4.81 42.7 0 1 64.33 159.62
  Q 71.83 166.20 79.51 173.00
  C 83.71 176.72 80.05 181.09 76.17 177.65
  Q 68.90 171.21 61.66 164.76
  A 0.64 0.63 -46.7 0 0 60.78 164.79
  Z"
/>
<rect fill="#7cb528" x="124.99" y="164.27" width="32.94" height="5.72" rx="2.79"/>
</svg>
