<svg xmlns="http://www.w3.org/2000/svg" width="457.68" height="101.901" viewBox="0 0 457.68 101.901">
  <g id="スクリーンショット_2023-05-18_195756" data-name="スクリーンショット 2023-05-18 195756" transform="translate(-52.05 -37.18)">
    <g id="グループ_17788" data-name="グループ 17788" transform="translate(52.05 37.18)">
      <path id="パス_30192" data-name="パス 30192" d="M153.951,88.131A50.951,50.951,0,1,0,103,139.081a50.951,50.951,0,0,0,50.951-50.951" transform="translate(-52.05 -37.18)" fill="none"/>
      <path id="パス_30193" data-name="パス 30193" d="M433.966,59.75H415.18a.367.367,0,0,0-.367.367v4.708a.327.327,0,0,0,.327.327H423.8a.341.341,0,0,1,.341.341l-.026,5.513a.334.334,0,0,1-.34.327l-8.631.039a.327.327,0,0,0-.327.327v4.708a.367.367,0,0,0,.367.367H423.8a.337.337,0,0,1,.341.334l-.033,7.851a.426.426,0,0,1-.5.413,8.637,8.637,0,0,0-8.224,2.292,8.251,8.251,0,0,0,2.744,13.3,7.714,7.714,0,0,0,7.373-.779,8.827,8.827,0,0,0,4.053-7.838.348.348,0,0,1,.124-.266.319.319,0,0,1,.276-.068l3.647.792a.316.316,0,0,0,.248-.05.244.244,0,0,0,.105-.205l-.079-4.682a.449.449,0,0,0-.347-.419l-3.536-.9a.434.434,0,0,1-.341-.4l-.091-8.879a.549.549,0,0,1,.57-.524l3.392-.052a.36.36,0,0,0,.354-.36l.059-4.505a.437.437,0,0,0-.14-.324.5.5,0,0,0-.345-.135l-3.536-.02a.341.341,0,0,1-.334-.34l-.026-5.52a.324.324,0,0,1,.1-.236.337.337,0,0,1,.239-.1h3.739a.341.341,0,0,0,.341-.34V59.75" transform="translate(-176.659 -44.971)" fill="none"/>
      <path id="パス_30194" data-name="パス 30194" d="M445,57.075h2.842a.432.432,0,0,0,.432-.432v-4.3a.341.341,0,0,0-.341-.341H445.34a.341.341,0,0,0-.34.34v4.734" transform="translate(-187.692 -42.296)" fill="none"/>
      <path id="パス_30195" data-name="パス 30195" d="M455.762,52.2a.2.2,0,0,0-.2-.2l-2.868.01a.2.2,0,0,0-.2.2l.016,4.662a.2.2,0,0,0,.2.2l2.868-.01a.2.2,0,0,0,.2-.2l-.016-4.662" transform="translate(-190.277 -42.297)" fill="none"/>
      <path id="パス_30196" data-name="パス 30196" d="M515.759,59.75H497.031a.41.41,0,0,0-.285.114.37.37,0,0,0-.115.273l.065,4.571a.354.354,0,0,0,.354.34l8.434.092a.439.439,0,0,1,.445.432l-.026,5.435a.334.334,0,0,1-.34.327l-8.624.039a.331.331,0,0,0-.229.091.292.292,0,0,0-.092.217l.079,4.643a.354.354,0,0,0,.354.34l8.512.151a.341.341,0,0,1,.347.327L505.832,85a.271.271,0,0,1-.1.211.285.285,0,0,1-.232.057q-4.794-.845-7.786,1.866a8.415,8.415,0,0,0-2.8,6.574,7.459,7.459,0,0,0,4.105,6.712,8.591,8.591,0,0,0,2.914,1.094,6.587,6.587,0,0,0,3.189-.183q6.332-2.036,6.267-8.971a.3.3,0,0,1,.1-.222.268.268,0,0,1,.224-.066l3.693.629a.31.31,0,0,0,.234-.054.24.24,0,0,0,.1-.195l-.007-4.512a.436.436,0,0,0-.314-.439L511.8,86.61a.563.563,0,0,1-.465-.517V77.122a.354.354,0,0,1,.36-.347l3.693-.033a.358.358,0,0,0,.248-.1.319.319,0,0,0,.1-.236l-.072-4.584a.37.37,0,0,0-.36-.367l-3.5-.059a.456.456,0,0,1-.465-.439V65.453a.328.328,0,0,1,.334-.314l3.634-.072a.367.367,0,0,0,.354-.367l.1-4.95" transform="translate(-204.921 -44.971)" fill="none"/>
      <path id="パス_30197" data-name="パス 30197" d="M526.75,57.075h2.934a.341.341,0,0,0,.34-.34V52.341a.341.341,0,0,0-.341-.341h-2.593a.341.341,0,0,0-.341.341v4.734" transform="translate(-215.912 -42.296)" fill="none"/>
      <path id="パス_30198" data-name="パス 30198" d="M537.518,52.173a.177.177,0,0,0-.177-.176L534.42,52a.177.177,0,0,0-.176.177l.008,4.728a.177.177,0,0,0,.177.176l2.921-.005a.177.177,0,0,0,.176-.177l-.008-4.728" transform="translate(-218.498 -42.294)" fill="none"/>
      <path id="パス_30199" data-name="パス 30199" d="M267.208,63.22l-1.663-7.7a.367.367,0,0,0-.406-.3l-4.918.8a.334.334,0,0,0-.275.4l1.408,6.758a.349.349,0,0,1-.062.285.32.32,0,0,1-.252.128H243.327a.327.327,0,0,0-.327.327v4.708a.367.367,0,0,0,.367.367h18.708a.488.488,0,0,1,.478.386l1.729,8.578a.451.451,0,0,1-.1.382.48.48,0,0,1-.366.168l-3.1.007a.354.354,0,0,0-.248.1.327.327,0,0,0-.1.24l.072,4.584a.357.357,0,0,0,.354.354l5.409.059a1.981,1.981,0,0,0,1.329-.458l3.025-2.573a.6.6,0,0,0,.164-.57L268.511,69.6a.511.511,0,0,1,.5-.615l6.037-.033a.344.344,0,0,0,.347-.334l-.072-4.584a.357.357,0,0,0-.36-.34l-7.36-.151a.412.412,0,0,1-.393-.327" transform="translate(-117.964 -43.405)" fill="none"/>
      <path id="パス_30200" data-name="パス 30200" d="M341.72,93.087q-.7-6.666-6.443-7.648a8.589,8.589,0,0,0-6.162,1.139,7.289,7.289,0,0,0-3.562,5.88,8,8,0,0,0,1.5,5.677,8.344,8.344,0,0,0,5.507,3.2q11.02,1.925,15.382-7.936a14.5,14.5,0,0,0,1.309-8.251q-1.65-10.385-12.913-10.654-.668-.02-.209-.511l9.455-10.156a.6.6,0,0,0,.085-.747l-2.285-3.038a.7.7,0,0,0-.563-.229H322.443a.338.338,0,0,0-.347.327l.072,4.584a.361.361,0,0,0,.367.341l13.1.1q.74.007.242.55L318.088,85.125a.517.517,0,0,0,.013.714l3.268,3.261a.57.57,0,0,0,.832-.026,68.653,68.653,0,0,1,5.271-5.409,13.888,13.888,0,0,1,8.094-3.693,8.43,8.43,0,0,1,4.682.609,5.746,5.746,0,0,1,3.006,4.191,12.316,12.316,0,0,1-1.048,8.4q-.393.786-.484-.085" transform="translate(-143.837 -44.992)" fill="none"/>
      <path id="パス_30201" data-name="パス 30201" d="M645.495,81.9l.04,18.741a.363.363,0,0,0,.36.367h5.821a.367.367,0,0,0,.367-.367V76.552a.827.827,0,0,1,.236-.576A32.079,32.079,0,0,0,660.771,60.1a.285.285,0,0,0-.057-.244.3.3,0,0,0-.231-.109h-5.475a.527.527,0,0,0-.5.373,28.156,28.156,0,0,1-8.355,13.338,33.5,33.5,0,0,1-16.789,7.72.392.392,0,0,0-.327.38L629,87.167a.279.279,0,0,0,.1.216.292.292,0,0,0,.236.059,51.964,51.964,0,0,0,15.866-5.716.185.185,0,0,1,.19,0,.2.2,0,0,1,.1.17" transform="translate(-251.208 -44.971)" fill="none"/>
      <path id="パス_30202" data-name="パス 30202" d="M713.719,69.957a.249.249,0,0,0-.083-.342l-9.044-5.52a.249.249,0,0,0-.342.083l-3.043,4.986a.249.249,0,0,0,.083.342l9.043,5.52a.249.249,0,0,0,.342-.083l3.043-4.986" transform="translate(-276.12 -46.458)" fill="none"/>
      <path id="パス_30203" data-name="パス 30203" d="M581.569,71V92.695a.334.334,0,0,1-.334.327l-20.79.157a.341.341,0,0,0-.347.327l-.072,5.572a.316.316,0,0,0,.1.231.341.341,0,0,0,.239.1l27.142.039a.327.327,0,0,0,.328-.327v-34.5a.367.367,0,0,0-.367-.367H560.341a.341.341,0,0,0-.341.341v5.716a.327.327,0,0,0,.328.327l20.908.039a.331.331,0,0,1,.334.327" transform="translate(-227.389 -46.524)" fill="none"/>
      <path id="パス_30204" data-name="パス 30204" d="M401.393,92.664a.34.34,0,0,1-.491-.308V70.682a.432.432,0,0,0-.432-.432H395.84a.341.341,0,0,0-.341.341v26.67a.731.731,0,0,0,.223.563l2.5,2.154a.506.506,0,0,0,.557.052l4.9-2.488a.543.543,0,0,0,.294-.485l.026-5.291a.214.214,0,0,0-.1-.192.245.245,0,0,0-.229-.011l-2.279,1.1" transform="translate(-170.605 -48.595)" fill="none"/>
      <path id="パス_30205" data-name="パス 30205" d="M483.393,92.664a.33.33,0,0,1-.33-.013.345.345,0,0,1-.161-.3V70.682a.432.432,0,0,0-.432-.432h-4.629a.341.341,0,0,0-.341.34V97.5a.883.883,0,0,0,.328.655l2.161,1.84a.5.5,0,0,0,.543.092l4.983-2.541a.54.54,0,0,0,.3-.485l.033-5.186a.317.317,0,0,0-.161-.274.332.332,0,0,0-.323,0l-1.971,1.067" transform="translate(-198.911 -48.595)" fill="none"/>
      <path id="パス_30206" data-name="パス 30206" d="M727.713,76.791a28.618,28.618,0,0,1-3.084,8.873,25.879,25.879,0,0,1-5.946,7.065,33.4,33.4,0,0,1-16.514,7.6.5.5,0,0,0-.419.491v5.35a.311.311,0,0,0,.109.234.3.3,0,0,0,.245.067A40.344,40.344,0,0,0,726.757,93.26,28.127,28.127,0,0,0,733.8,76.765a.349.349,0,0,0-.073-.254.3.3,0,0,0-.222-.113l-5.265-.079a.549.549,0,0,0-.53.471" transform="translate(-276.32 -50.691)" fill="none"/>
      <path id="パス_30207" data-name="パス 30207" d="M248.1,111.324a14.649,14.649,0,0,0,9.148,3.693.324.324,0,0,0,.236-.087.311.311,0,0,0,.1-.227l.033-4.7a.311.311,0,0,0-.268-.308q-7.733-1.087-8.964-8.971a.275.275,0,0,0-.268-.229h-4.675a.308.308,0,0,0-.308.334,14.7,14.7,0,0,0,4.97,10.49" transform="translate(-118.008 -59.037)" fill="none"/>
      <path id="パス_30208" data-name="パス 30208" d="M279.7,164.2l5.887.072a.533.533,0,0,1,.465.327l.792,1.775a.525.525,0,0,0,.452.347l3.621-.072a.222.222,0,0,0,.187-.119.282.282,0,0,0,.01-.241L282.84,145.7q-.125-.314-.249-.007l-8.323,20.685a.275.275,0,0,0,.018.248.23.23,0,0,0,.2.112l3.529-.052a.532.532,0,0,0,.465-.341l.766-1.82a.49.49,0,0,1,.445-.321" transform="translate(-128.75 -74.584)" fill="none"/>
      <path id="パス_30209" data-name="パス 30209" d="M700.979,162.229l-.007-12.356a.5.5,0,0,1,.288-.478,1.357,1.357,0,0,1,.806-.059.56.56,0,0,0,.468-.109.546.546,0,0,0,.207-.428v-3.209a.34.34,0,0,0-.34-.341h-6.758a.432.432,0,0,0-.432.432q0,1.7-.072,3-.053.943.969.635a.576.576,0,0,1,.74.55v10.6q0,.1.085.982.131,1.4-1.356,1.244a.317.317,0,0,0-.237.07.276.276,0,0,0-.1.212v3.346a.337.337,0,0,0,.334.34l6.836.033a.337.337,0,0,0,.334-.341,11.474,11.474,0,0,1,.138-1.925q.386-2.161-1.572-1.919a.3.3,0,0,1-.23-.07.274.274,0,0,1-.1-.212" transform="translate(-274.037 -74.485)" fill="none"/>
      <path id="パス_30210" data-name="パス 30210" d="M250.938,160.218a1.853,1.853,0,0,1-1.572,2.39,2.772,2.772,0,0,1-3.641-1.84.675.675,0,0,0-.635-.432h-2.822a.547.547,0,0,0-.408.185.534.534,0,0,0-.129.424,6.135,6.135,0,0,0,4.656,5.441,6.229,6.229,0,0,0,6.83-1.591,5.647,5.647,0,0,0,1.578-5.749,6.191,6.191,0,0,0-2.351-3.412,7.339,7.339,0,0,0-4.178-1.369,2.559,2.559,0,0,1-2.2-1.08,2.091,2.091,0,0,1-.1-2.108q.9-2.023,3.484-1.094a2.415,2.415,0,0,1,1.591,1.971.4.4,0,0,0,.38.334l2.979.013a.553.553,0,0,0,.418-.188.594.594,0,0,0,.145-.447,6.013,6.013,0,0,0-2.96-4.682,6.388,6.388,0,0,0-7.628.157,5.471,5.471,0,0,0-2.456,6.443q1.231,4.381,6.181,4.61,2.5.118,2.835,2.023" transform="translate(-117.501 -74.674)" fill="none"/>
      <path id="パス_30211" data-name="パス 30211" d="M320.473,158.134l1.578.111a.619.619,0,0,1,.452.393l3.647,7.753a.563.563,0,0,0,.465.347l3.477.026a.319.319,0,0,0,.279-.155.349.349,0,0,0,.016-.329l-3.8-8.244a.511.511,0,0,1,.2-.655q4.2-2.527,3.2-7.039a4.819,4.819,0,0,0-2.213-3.294,10.929,10.929,0,0,0-5.893-1.441q-2.449.066-2.547.066-1.427-.007-2.855.118a.36.36,0,0,0-.334.36l-.079,20.306a.328.328,0,0,0,.321.334l3.4.02a.344.344,0,0,0,.34-.34l.026-7.969a.414.414,0,0,1,.1-.269.275.275,0,0,1,.228-.1" transform="translate(-143.184 -74.607)" fill="none"/>
      <path id="パス_30212" data-name="パス 30212" d="M369.838,163.79a5.209,5.209,0,0,0,1.283-3.359l.138-14.268a.419.419,0,0,0-.426-.413h-3.32a.34.34,0,0,0-.341.34v11.23q0,2.835-.046,3.045a2.814,2.814,0,0,1-2.573,2.246q-4.4.773-5.134-2.534-.1-.478-.1-4.774V146.09a.341.341,0,0,0-.341-.34h-3.156a.57.57,0,0,0-.57.557q-.216,6.98.171,13.378a7.223,7.223,0,0,0,1.067,3.654q2.626,3.85,7.9,3.333a7.785,7.785,0,0,0,5.448-2.881" transform="translate(-156.685 -74.657)" fill="none"/>
      <path id="パス_30213" data-name="パス 30213" d="M409.751,156.055a4.815,4.815,0,0,0,1.827-4.924,5.8,5.8,0,0,0-2.619-4.191,9.878,9.878,0,0,0-4.426-1.12,51.594,51.594,0,0,0-6.6-.052.452.452,0,0,0-.432.452v20.044a.563.563,0,0,0,.55.563,57.1,57.1,0,0,0,7.786-.262,6.114,6.114,0,0,0,4.8-2.626q2.645-4.1-.9-7.471a.275.275,0,0,1,.02-.413" transform="translate(-171.296 -74.636)" fill="none"/>
      <path id="パス_30214" data-name="パス 30214" d="M456.561,156.28a10.47,10.47,0,1,0-10.47,10.47,10.471,10.471,0,0,0,10.47-10.47" transform="translate(-184.455 -74.678)" fill="none"/>
      <path id="パス_30215" data-name="パス 30215" d="M496.613,155.849a1.546,1.546,0,0,0,1.12-1.048q1.748-4.263-.688-6.777-1.67-1.729-5.441-2.2a28.3,28.3,0,0,0-7.033,0,.363.363,0,0,0-.32.367l.118,20.175a.357.357,0,0,0,.334.354,44.653,44.653,0,0,0,7.9-.066,6.262,6.262,0,0,0,4.852-2.75,5.689,5.689,0,0,0,1-3.87,6.638,6.638,0,0,0-1.945-3.818q-.281-.288.112-.367" transform="translate(-201.241 -74.607)" fill="none"/>
      <path id="パス_30216" data-name="パス 30216" d="M542.514,156.287a10.477,10.477,0,1,0-10.477,10.477,10.477,10.477,0,0,0,10.477-10.477" transform="translate(-214.12 -74.678)" fill="none"/>
      <path id="パス_30217" data-name="パス 30217" d="M605.684,149.858q-3.732,5.311-1.617,10.235a10.854,10.854,0,0,0,6.712,6.227q5.048,1.735,10.208-2.285a.558.558,0,0,0,.208-.414.639.639,0,0,0-.169-.456l-1.847-2.05a.555.555,0,0,0-.746-.092q-3.9,3.006-7.537,1.008a6.925,6.925,0,0,1-2.907-2.9,5.885,5.885,0,0,1-.465-4.322,6.208,6.208,0,0,1,4.361-4.715,6.079,6.079,0,0,1,3.405-.111,7.6,7.6,0,0,1,3.123,1.657.355.355,0,0,0,.485.007l2.331-2.272a.3.3,0,0,0,.09-.229.331.331,0,0,0-.109-.229,10.423,10.423,0,0,0-9.9-2.691,9.118,9.118,0,0,0-5.625,3.634" transform="translate(-242.337 -74.712)" fill="none"/>
      <path id="パス_30218" data-name="パス 30218" d="M666.181,156.28a10.471,10.471,0,1,0-10.47,10.47,10.47,10.47,0,0,0,10.47-10.47" transform="translate(-256.813 -74.678)" fill="none"/>
      <path id="パス_30219" data-name="パス 30219" d="M728.544,153.418l9.088,13.181a.638.638,0,0,0,.531.269h3.156a.36.36,0,0,0,.36-.36l-.039-20.4a.331.331,0,0,0-.321-.334l-3.392-.02a.34.34,0,0,0-.34.34v12.841q0,.635-.367.118l-9.141-12.991a.659.659,0,0,0-.524-.288l-3.045-.026a.5.5,0,0,0-.361.149.525.525,0,0,0-.15.368v20.26a.34.34,0,0,0,.34.341h3.221a.367.367,0,0,0,.367-.367V153.6q0-1.081.615-.183" transform="translate(-284.001 -74.657)" fill="none"/>
      <path id="パス_30220" data-name="パス 30220" d="M65.154,105.058l-2.8-2.554a.363.363,0,0,0-.5.013L60.308,104.1a.553.553,0,0,0-.111.563,46.876,46.876,0,0,0,48.181,32.485q20.109-1.48,33.343-17.621a46.7,46.7,0,0,0,8.107-14.759.74.74,0,0,0-.157-.76l-1.585-1.578a.351.351,0,0,0-.491.013l-2.685,2.613a.53.53,0,0,1-.537.144q-1.1-.354-1.054-1.159a2.223,2.223,0,0,1,.747-1.264q1.519-1.565,3.451-3.209a.773.773,0,0,1,1.028.1l1.932,1.847q.255.249.334-.144,5.4-25.878-12.1-44.206A45.132,45.132,0,0,0,114.7,43.9a47.815,47.815,0,0,0-13.018-.9A44.782,44.782,0,0,0,79.7,50.29Q59.968,63.242,58.03,87.011a40.554,40.554,0,0,0,.046,7.1,65.481,65.481,0,0,0,1.08,7.033q.177.818.779.2l1.958-1.971a.347.347,0,0,1,.491-.007l4.355,4.25a.39.39,0,0,1,.052.511,3.74,3.74,0,0,1-1.126,1.015.446.446,0,0,1-.511-.085" transform="translate(-54.068 -39.151)" fill="none"/>
      <path id="パス_30221" data-name="パス 30221" d="M137.253,55.068a1.638,1.638,0,0,0,1.08-1.139q1.067-3.706-2.567-4.819a23.519,23.519,0,0,0-4.459-.891.39.39,0,0,0-.426.321l-1.755,11.23a.468.468,0,0,0,.354.524,24.122,24.122,0,0,0,3.516.642,5.107,5.107,0,0,0,3.385-.674q2.462-1.617.72-4.813a.268.268,0,0,1,.151-.38" transform="translate(-78.654 -40.99)" fill="none"/>
      <path id="パス_30222" data-name="パス 30222" d="M112.837,59.7a1.508,1.508,0,0,1-1.349-1.31q-.694-3.549-1.395-7.137a1.034,1.034,0,0,0-.314-.622.7.7,0,0,0-.786-.059,1.53,1.53,0,0,1-.616.131q-.851.007-.648,1.015.452,2.226.93,4.446.72,3.392.786,3.543a3.753,3.753,0,0,0,3.2,2.325q4.387.629,5.415-2.659a10.423,10.423,0,0,0-.17-4.813q-.485-2.364-1.015-4.774a.537.537,0,0,0-.406-.406,2.6,2.6,0,0,0-1.591.033.468.468,0,0,0-.223.5q.439,2.979,1.087,5.919a5.113,5.113,0,0,1,.085,2.665q-.609,1.585-2.986,1.2" transform="translate(-71.256 -41.354)" fill="none"/>
      <path id="パス_30223" data-name="パス 30223" d="M159.718,61.5a6.129,6.129,0,1,0-6.129,6.129,6.129,6.129,0,0,0,6.129-6.129" transform="translate(-84.985 -43.459)" fill="none"/>
      <path id="パス_30224" data-name="パス 30224" d="M94.684,65.819a1.279,1.279,0,0,1,.714-.373,1.313,1.313,0,0,1,.93.321q1.7,1.244,3.444,2.416a.535.535,0,0,0,.57.052l1.624-.982a.215.215,0,0,0,.1-.189.245.245,0,0,0-.109-.2l-4.217-2.934a.423.423,0,0,1-.164-.5,3.372,3.372,0,0,1,.164-.334,1.82,1.82,0,0,0,.223-.635q.432-3.922-2.724-4.282a6.019,6.019,0,0,0-3.326.766,27.634,27.634,0,0,0-3.006,1.775.36.36,0,0,0-.1.478l5.88,9.953a.463.463,0,0,0,.224.2.27.27,0,0,0,.247-.015l1.408-.917a.443.443,0,0,0,.1-.6l-2.017-3.464a.441.441,0,0,1,.039-.537" transform="translate(-64.72 -44.42)" fill="none"/>
      <path id="パス_30225" data-name="パス 30225" d="M166.938,79.779q2.593,1,4.151-1.886a1.719,1.719,0,0,0,.151-.622q.065-.8.877-.563a1.077,1.077,0,0,0,.629.026,3.362,3.362,0,0,0,2.508-2.508,4.333,4.333,0,0,0-.642-3.065A17.3,17.3,0,0,0,172,67.639a.5.5,0,0,0-.681-.039l-8.853,7.118a.37.37,0,0,0-.079.5,24.155,24.155,0,0,0,1.984,2.606,6.867,6.867,0,0,0,2.567,1.958" transform="translate(-90.115 -47.641)" fill="none"/>
      <path id="パス_30226" data-name="パス 30226" d="M127.681,75.493q.956.956,1.912,1.919.033.026.406.485.825,1,1.892-.9a.393.393,0,0,0-.059-.465l-4.073-4.066a.517.517,0,0,0-.746.007,53.118,53.118,0,0,1-3.975,3.863q-.93.812.792,1.775a.469.469,0,0,0,.544-.059l2.835-2.567a.34.34,0,0,1,.471.007" transform="translate(-76.442 -49.307)" fill="none"/>
      <path id="パス_30227" data-name="パス 30227" d="M136.818,87.162a5.448,5.448,0,0,0-4.859-.1,10.984,10.984,0,0,0-4.178,3.693.75.75,0,0,1-.5.323.763.763,0,0,1-.584-.146,26.868,26.868,0,0,0-15.237-5.52,37.357,37.357,0,0,0-19.343,4.165.8.8,0,0,1-.91-.124,20.041,20.041,0,0,0-6.437-3.9,8.09,8.09,0,0,0-3.268-.517.879.879,0,0,1-.589-.17,1.961,1.961,0,0,1-.674-1.126.692.692,0,0,1,.157-.576l1.919-2.4a.4.4,0,0,1,.491-.092q1.323.655,2.384-1.369a.286.286,0,0,0,.012-.241.271.271,0,0,0-.176-.159l-12.062-3.68q-.36-.111-.177.216L78.4,85.427a.422.422,0,0,1-.092.491l-1.552,1.617a.438.438,0,0,1-.5.118q-3.667-1.7-5.232,1.82-.923,2.069-2.331.989a.878.878,0,0,1-.321-.53q-.4-2.036,1.637-2.135a.523.523,0,0,0,.465-.3,3.362,3.362,0,0,0,.295-1.5.4.4,0,0,0-.354-.38q-3.11-.432-4.138,2.22Q64.959,91.242,67.7,92.7a3.643,3.643,0,0,0,2.8.36,3.744,3.744,0,0,0,2.37-1.978,6.393,6.393,0,0,1,.707-1.166q.845-.877,1.552-.092a1.728,1.728,0,0,1,.445,1.473,1.438,1.438,0,0,1-1.441,1.257.689.689,0,0,0-.5.3q-1.761,2.881,1.827,1.788a.341.341,0,0,1,.419.216,61.586,61.586,0,0,0,7.386,15.12,56.563,56.563,0,0,0,8.29,10.1q10.326,9.462,25.472,5.73a20.345,20.345,0,0,0,11.079-7.039,33.3,33.3,0,0,0,2.691-4.2q1.238-2.174,2.606-4.269a38.886,38.886,0,0,0,5.847-15.971.317.317,0,0,1,.156-.232.331.331,0,0,1,.283-.023q5.3,2.122,8.238-1.683a5.606,5.606,0,0,0,.982-5.507,5.922,5.922,0,0,0-2.757-3.4,6.115,6.115,0,0,0-4.04-.668A5.986,5.986,0,0,0,137.23,87a.308.308,0,0,1-.413.164" transform="translate(-56.813 -50.303)" fill="none"/>
      <path id="パス_30228" data-name="パス 30228" d="M110.468,82.273q-.557-.485-1.126-.949a.412.412,0,0,0-.511,0,29.793,29.793,0,0,0-2.685,2.4q-.039.033-1.061.949-1.631,1.454.583,2.383a.472.472,0,0,0,.517-.138l2.462-2.573a.531.531,0,0,1,.4-.163.612.612,0,0,1,.417.183l2.5,2.5a.539.539,0,0,0,.543.144q1.545-.478.832-1.879a16.4,16.4,0,0,0-2.875-2.862" transform="translate(-70.119 -52.387)" fill="none"/>
      <path id="パス_30229" data-name="パス 30229" d="M146.239,84.21l2.724,2.573a.475.475,0,0,0,.57.065q1.781-1.1.792-1.945-2.115-1.807-4.06-3.752a.423.423,0,0,0-.3-.129.409.409,0,0,0-.3.122l-4.152,4.21a.44.44,0,0,0-.085.524,2.6,2.6,0,0,0,1.041,1.041.46.46,0,0,0,.537-.085l2.757-2.619a.344.344,0,0,1,.471-.007" transform="translate(-82.886 -52.314)" fill="none"/>
      <path id="パス_30230" data-name="パス 30230" d="M68.542,117.341l2.659,2.482a.445.445,0,0,0,.517.085q1.781-1,.878-1.833-2.043-1.886-4.06-3.876a.347.347,0,0,0-.485,0l-4.276,4.184a.393.393,0,0,0-.092.53l1.074,1.067a.369.369,0,0,0,.5-.052l2.77-2.58a.373.373,0,0,1,.511-.007" transform="translate(-56.042 -63.732)" fill="none"/>
      <path id="パス_30231" data-name="パス 30231" d="M186.709,117.265a25.751,25.751,0,0,0,1.971,1.873,7.6,7.6,0,0,0,1.021.812q.6.118,1.336-1.087a.532.532,0,0,0-.1-.655l-4.151-3.994a.344.344,0,0,0-.478-.02l-4.348,4.165a.436.436,0,0,0-.059.55q1.172,1.781,2.135.583.485-.6.517-.635.812-.832,1.683-1.611a.337.337,0,0,1,.471.02" transform="translate(-96.849 -63.734)" fill="none"/>
      <path id="パス_30232" data-name="パス 30232" d="M82.538,132.213q.969.93,1.984,1.82a9.4,9.4,0,0,0,1.041.858q.6.118,1.342-1.2a.492.492,0,0,0-.1-.6l-3.981-3.8a.588.588,0,0,0-.812-.039l-4.256,4.093a.357.357,0,0,0-.11.248.344.344,0,0,0,.1.25l1.028,1.048a.355.355,0,0,0,.491-.02l2.8-2.665a.347.347,0,0,1,.478.007" transform="translate(-60.884 -68.913)" fill="none"/>
      <path id="パス_30233" data-name="パス 30233" d="M172.692,132.2l2.58,2.469a.482.482,0,0,0,.563.092q1.866-1.048.943-1.873-2.069-1.853-4.079-3.752a.432.432,0,0,0-.6.007l-4.256,4.1a.441.441,0,0,0-.092.517,2.935,2.935,0,0,0,1.12,1.12.46.46,0,0,0,.53-.092l2.789-2.586a.36.36,0,0,1,.5,0" transform="translate(-91.974 -68.883)" fill="none"/>
      <path id="パス_30234" data-name="パス 30234" d="M78.688,146.957a7.028,7.028,0,0,0-1.329-1,.453.453,0,0,0-.543.052l-4.23,4.086a.413.413,0,0,0-.052.524,3.43,3.43,0,0,0,1.1,1.041.437.437,0,0,0,.524-.079l2.7-2.7a.436.436,0,0,1,.609.007l2.8,2.75a.358.358,0,0,0,.5.02l.969-.976a.43.43,0,0,0-.007-.589q-1.7-1.86-3.038-3.13" transform="translate(-59.096 -74.705)" fill="none"/>
      <path id="パス_30235" data-name="パス 30235" d="M177.927,148.853q1.185,1.2,2.344,2.416.89.936,1.951-.773a.416.416,0,0,0-.066-.517l-4.014-3.87a.822.822,0,0,0-1.159.02l-3.89,3.9a.384.384,0,0,0-.072.517l1.008,1.12a.28.28,0,0,0,.234.084.442.442,0,0,0,.264-.123l2.927-2.783a.337.337,0,0,1,.471.013" transform="translate(-93.784 -74.702)" fill="none"/>
      <path id="パス_30236" data-name="パス 30236" d="M149.416,159.7q3.857,1.794,7.727,3.549a1.475,1.475,0,0,0,1.558-.026,2.72,2.72,0,0,1,.557-.314q.766-.3.3-1.094-4.093-6.993-5.762-9.672a.341.341,0,0,0-.465-.118l-1.2.76a.357.357,0,0,0-.118.485l3.732,6.443q.341.59-.268.308l-8.506-3.935a.6.6,0,0,0-.589.02l-1.27.864a.371.371,0,0,0-.072.5q2.547,4.341,5.029,8.722a2.546,2.546,0,0,0,.963,1.094q.877.419,1.644-.622a.508.508,0,0,0,.013-.55l-3.412-6.26q-.157-.295.144-.157" transform="translate(-84.125 -76.807)" fill="none"/>
      <path id="パス_30237" data-name="パス 30237" d="M96.26,162.471a3.366,3.366,0,0,1-2.659-2.416,3.7,3.7,0,0,1,1.113-4.191,3.985,3.985,0,0,1,3.307-.832,3.706,3.706,0,0,1,2.881,2.547.46.46,0,0,0,.439.308,2.948,2.948,0,0,0,1.663-.57.436.436,0,0,0,.138-.517,6.065,6.065,0,0,0-4.846-4.132,6.3,6.3,0,0,0-3.667.432,6.215,6.215,0,0,0-3.228,7.877,6.523,6.523,0,0,0,2.528,3.051,6.243,6.243,0,0,0,4.092.936q1.238-.118.694-1.224a1.893,1.893,0,0,1-.144-.622.812.812,0,0,0-.144-.386.7.7,0,0,0-.576-.216,8.269,8.269,0,0,1-1.591-.046" transform="translate(-65.477 -77.011)" fill="none"/>
      <path id="パス_30238" data-name="パス 30238" d="M138.62,169.238q-.805-4.787-1.172-6.312-.157-.648.327-.832a.547.547,0,0,0,.386-.393,2.509,2.509,0,0,0-.334-1.65.463.463,0,0,0-.5-.216l-3.274.6a.472.472,0,0,0-.386.472,3.518,3.518,0,0,0,.393,1.676.649.649,0,0,0,.517.242q.537.046.616.72a50.13,50.13,0,0,0,1.231,6.234.375.375,0,0,1-.236.426.944.944,0,0,0-.53,1.441,1.577,1.577,0,0,1,.118.616.578.578,0,0,0,.2.465.8.8,0,0,0,.648.02,16.8,16.8,0,0,1,2.94-.517.537.537,0,0,0,.485-.517q.033-1.781-1.054-2.089a.51.51,0,0,1-.38-.38" transform="translate(-80.224 -79.516)" fill="none"/>
      <path id="パス_30239" data-name="パス 30239" d="M122.661,166.366a6.136,6.136,0,1,0-6.136,6.136,6.136,6.136,0,0,0,6.136-6.136" transform="translate(-72.188 -79.656)" fill="none"/>
      <path id="パス_30240" data-name="パス 30240" d="M137.115,52.723a4.193,4.193,0,0,0-2.135-.413.367.367,0,0,0-.36.327l-.242,1.886a.331.331,0,0,0,.282.373l1.768.268a1.051,1.051,0,0,0,.622-.085q2.036-.989.065-2.357" transform="translate(-80.468 -42.403)" fill="none"/>
      <path id="パス_30241" data-name="パス 30241" d="M136.123,60.441q-2.776-1.493-2.894.694-.046.76-.039.884.026.746.858.616a1.381,1.381,0,0,1,.635.039q1.591.517,2.023-.733a1.251,1.251,0,0,0-.583-1.5" transform="translate(-80.058 -45)" fill="none"/>
      <path id="パス_30242" data-name="パス 30242" d="M158.6,62.745a3.785,3.785,0,1,0-3.785,3.785,3.785,3.785,0,0,0,3.785-3.785" transform="translate(-86.217 -44.698)" fill="none"/>
      <path id="パス_30243" data-name="パス 30243" d="M96,61.672a3.612,3.612,0,0,0-1.761,1.041.593.593,0,0,0-.164.563Q94.654,65.66,96,64.684q.544-.4,1.094-.877a1.084,1.084,0,0,0,.327-1.513A1.252,1.252,0,0,0,96,61.672" transform="translate(-66.55 -45.623)" fill="none"/>
      <path id="パス_30244" data-name="パス 30244" d="M343.177,109.623a2.763,2.763,0,1,0-2.763,2.763,2.763,2.763,0,0,0,2.763-2.763" transform="translate(-150.636 -61.233)" fill="none"/>
      <path id="パス_30245" data-name="パス 30245" d="M426.853,109.606a2.776,2.776,0,1,0-2.776,2.776,2.776,2.776,0,0,0,2.776-2.776" transform="translate(-179.511 -61.222)" fill="none"/>
      <path id="パス_30246" data-name="パス 30246" d="M508.659,109.62a2.77,2.77,0,1,0-2.77,2.77,2.77,2.77,0,0,0,2.77-2.77" transform="translate(-207.755 -61.229)" fill="none"/>
      <path id="パス_30247" data-name="パス 30247" d="M175.079,76.018q1.48.6,1.7-.524a2.518,2.518,0,0,0-.21-1.362q-1.172-2.888-3.025-.268a.54.54,0,0,0-.026.57,3.391,3.391,0,0,0,1.565,1.585" transform="translate(-93.954 -49.413)" fill="none"/>
      <path id="パス_30248" data-name="パス 30248" d="M169.229,80.972a1.03,1.03,0,0,0,1.558-.55.94.94,0,0,0,.046-.622q-1-3.994-3.326-1.094a.465.465,0,0,0-.026.543,4.685,4.685,0,0,0,1.748,1.722" transform="translate(-91.869 -51.093)" fill="none"/>
      <path id="パス_30249" data-name="パス 30249" d="M85.924,81.911q-2.174-1.152-1.657-.039.137.295.386.9.445,1.067,1.388-.412a.3.3,0,0,0,.04-.247.318.318,0,0,0-.158-.2" transform="translate(-63.137 -52.418)" fill="none"/>
      <path id="パス_30250" data-name="パス 30250" d="M185.6,94.058a3.778,3.778,0,1,0-3.778,3.778,3.778,3.778,0,0,0,3.778-3.778" transform="translate(-95.54 -55.51)" fill="none"/>
      <path id="パス_30251" data-name="パス 30251" d="M130.239,98.006A25.9,25.9,0,0,0,117.1,93.743a34.6,34.6,0,0,0-18.387,4.433,1.542,1.542,0,0,1-1.735-.17,31.275,31.275,0,0,0-4.322-3.045,9.53,9.53,0,0,0-4.466-1.572,3.768,3.768,0,0,0-3.418,1.866,5.218,5.218,0,0,0-.622,3.457,22.54,22.54,0,0,0,2.135,7.229,63.569,63.569,0,0,0,4.394,7.91.729.729,0,0,0,.5.36q.36.02.347-.491-.386-13.646,12.461-16.73a43.907,43.907,0,0,1,26.238,1.591q.53.2.426-.164-.052-.183-.413-.413" transform="translate(-63.114 -56.583)" fill="none"/>
      <path id="パス_30252" data-name="パス 30252" d="M168.57,96.384a2.179,2.179,0,0,0-2.279-.406,7.763,7.763,0,0,0-3.673,2.763q-.956,1.3-1.067,1.473a3.372,3.372,0,0,0-.53,1.775,4.982,4.982,0,0,0,.891,2.364,19,19,0,0,1,2.744,9.881.409.409,0,0,0,.3.426q.609.1,1-.674a39.883,39.883,0,0,0,4.184-13.45,4.407,4.407,0,0,0-1.572-4.151" transform="translate(-89.665 -57.423)" fill="none"/>
      <path id="パス_30253" data-name="パス 30253" d="M135.973,104.552a16.782,16.782,0,0,0-7.19-3.307A41.811,41.811,0,0,0,111.2,101.2q-5.743,1.244-8.447,3.615-3.759,3.307-3.785,9.2a17,17,0,0,0,6.607,14.039,24.418,24.418,0,0,0,31.025-.491,12.588,12.588,0,0,0,4.426-8.27,20.247,20.247,0,0,0-.471-7.9,13.072,13.072,0,0,0-4.584-6.836" transform="translate(-68.246 -58.964)" fill="none"/>
      <path id="パス_30254" data-name="パス 30254" d="M118.533,121.887a1.107,1.107,0,1,0-1.107,1.107,1.107,1.107,0,0,0,1.107-1.107" transform="translate(-74.235 -66.038)" fill="none"/>
      <path id="パス_30255" data-name="パス 30255" d="M131.671,122.45a1.08,1.08,0,1,0-1.08,1.08,1.08,1.08,0,0,0,1.08-1.08" transform="translate(-78.788 -66.242)" fill="none"/>
      <path id="パス_30256" data-name="パス 30256" d="M145.74,122.47a1.1,1.1,0,1,0-1.1,1.1,1.1,1.1,0,0,0,1.1-1.1" transform="translate(-83.631 -66.242)" fill="none"/>
      <path id="パス_30257" data-name="パス 30257" d="M127.727,127.767q-1.008-.2-2.023-.354a.45.45,0,0,0-.491.236q-.242.576.661.864a8.939,8.939,0,0,0,6.247-.138,1.267,1.267,0,0,0,.563-.439q.661-.936-.373-.805a2.6,2.6,0,0,0-.72.236,6.171,6.171,0,0,1-3.863.4" transform="translate(-77.287 -68.225)" fill="none"/>
      <path id="パス_30258" data-name="パス 30258" d="M286.127,162.144l-1.369,3.281a.29.29,0,0,0,.005.237.261.261,0,0,0,.178.143,5.745,5.745,0,0,0,2.6.033.3.3,0,0,0,.2-.15.284.284,0,0,0,.012-.243l-1.362-3.313q-.125-.308-.262.013" transform="translate(-132.371 -80.26)" fill="none"/>
      <path id="パス_30259" data-name="パス 30259" d="M328.268,154.35a1.69,1.69,0,0,0-.34-1.513,3.028,3.028,0,0,0-1.709-.884,10.923,10.923,0,0,0-3.634-.19.373.373,0,0,0-.334.373v3.451a.563.563,0,0,0,.471.557,6.453,6.453,0,0,0,4.721-.635,1.84,1.84,0,0,0,.825-1.159" transform="translate(-145.32 -76.709)" fill="none"/>
      <path id="パス_30260" data-name="パス 30260" d="M409.45,154.9a1.934,1.934,0,0,0-1.512-2.848,11.517,11.517,0,0,0-4.04-.288.368.368,0,0,0-.347.36l.052,3.746a.411.411,0,0,0,.367.38,9.7,9.7,0,0,0,4.485-.373,1.571,1.571,0,0,0,1-.976" transform="translate(-173.384 -76.711)" fill="none"/>
      <path id="パス_30261" data-name="パス 30261" d="M409.212,168.268q1.761-1.67-.491-2.7a7.435,7.435,0,0,0-4.918-.491.429.429,0,0,0-.334.406q-.039.74-.033,1.486,0,.092-.091,1.192-.112,1.349,1.159,1.316,1.2-.026,1.486-.013a4.206,4.206,0,0,0,3.222-1.2" transform="translate(-173.311 -81.257)" fill="none"/>
      <path id="パス_30262" data-name="パス 30262" d="M454.668,158.359a6.489,6.489,0,1,0-6.49,6.489,6.489,6.489,0,0,0,6.49-6.489" transform="translate(-186.55 -76.77)" fill="none"/>
      <path id="パス_30263" data-name="パス 30263" d="M496.564,154.111a1.727,1.727,0,0,0-1.3-1.84,8.57,8.57,0,0,0-4.3-.471.5.5,0,0,0-.452.5l.013,3.5a.442.442,0,0,0,.327.413,5.7,5.7,0,0,0,4.61-.583,2.034,2.034,0,0,0,1.094-1.519" transform="translate(-203.406 -76.719)" fill="none"/>
      <path id="パス_30264" data-name="パス 30264" d="M496.456,167.779a1.906,1.906,0,0,0-1.061-2.469,7.573,7.573,0,0,0-4.427-.3.416.416,0,0,0-.367.38l-.033,3.4a.539.539,0,0,0,.511.524,11.619,11.619,0,0,0,4.1-.249,1.839,1.839,0,0,0,1.277-1.283" transform="translate(-203.423 -81.246)" fill="none"/>
      <path id="パス_30265" data-name="パス 30265" d="M540.625,158.363a6.483,6.483,0,1,0-6.483,6.483,6.483,6.483,0,0,0,6.483-6.483" transform="translate(-216.226 -76.773)" fill="none"/>
      <path id="パス_30266" data-name="パス 30266" d="M664.3,158.379a6.489,6.489,0,1,0-6.489,6.489,6.489,6.489,0,0,0,6.489-6.489" transform="translate(-258.912 -76.777)" fill="none"/>
      <path id="パス_30267" data-name="パス 30267" d="M121.56,167.565a3.785,3.785,0,1,0-3.785,3.785,3.785,3.785,0,0,0,3.785-3.785" transform="translate(-73.431 -80.881)" fill="none"/>
    </g>
    <path id="パス_30269" data-name="パス 30269" d="M153.951,88.131A50.951,50.951,0,1,1,103,37.18a50.951,50.951,0,0,1,50.951,50.951ZM63.136,103.087l-2.8-2.554a.363.363,0,0,0-.5.013l-1.545,1.585a.553.553,0,0,0-.111.563,46.875,46.875,0,0,0,48.181,32.485q20.109-1.48,33.343-17.621a46.7,46.7,0,0,0,8.107-14.759.74.74,0,0,0-.157-.76l-1.585-1.578a.351.351,0,0,0-.491.013l-2.685,2.613a.53.53,0,0,1-.537.144q-1.1-.354-1.054-1.159a2.224,2.224,0,0,1,.746-1.264q1.519-1.565,3.451-3.209a.773.773,0,0,1,1.028.1l1.932,1.847q.255.249.334-.144,5.4-25.878-12.1-44.206a45.132,45.132,0,0,0-24.012-13.266,47.815,47.815,0,0,0-13.018-.9,44.782,44.782,0,0,0-21.982,7.288Q57.95,61.27,56.012,85.04a40.551,40.551,0,0,0,.046,7.1,65.482,65.482,0,0,0,1.08,7.033q.177.819.779.2L59.875,97.4a.347.347,0,0,1,.491-.007l4.354,4.25a.39.39,0,0,1,.052.511,3.74,3.74,0,0,1-1.126,1.015A.446.446,0,0,1,63.136,103.087Z" transform="translate(0)" fill="#404040"/>
    <path id="パス_30271" data-name="パス 30271" d="M137.1,55.448q1.742,3.2-.72,4.813a5.107,5.107,0,0,1-3.385.674,24.126,24.126,0,0,1-3.516-.642.468.468,0,0,1-.354-.524l1.755-11.23a.39.39,0,0,1,.426-.321,23.517,23.517,0,0,1,4.459.891q3.634,1.113,2.567,4.819a1.639,1.639,0,0,1-1.081,1.139.269.269,0,0,0-.151.38Zm-1.8-4.138a4.193,4.193,0,0,0-2.135-.413.367.367,0,0,0-.36.327l-.242,1.886a.331.331,0,0,0,.282.373l1.768.268a1.051,1.051,0,0,0,.622-.085Q137.273,52.678,135.3,51.31Zm-.583,5.121q-2.777-1.493-2.894.694-.046.76-.039.884.026.746.858.616a1.381,1.381,0,0,1,.635.039q1.591.517,2.023-.733a1.251,1.251,0,0,0-.583-1.5Z" transform="translate(-26.604 -3.81)" fill="#404040"/>
    <path id="パス_30272" data-name="パス 30272" d="M112.837,59.7q2.377.386,2.986-1.2a5.113,5.113,0,0,0-.085-2.665q-.648-2.94-1.087-5.919a.468.468,0,0,1,.223-.5,2.6,2.6,0,0,1,1.591-.033.537.537,0,0,1,.406.406q.531,2.41,1.015,4.774a10.423,10.423,0,0,1,.17,4.813q-1.028,3.287-5.415,2.659a3.753,3.753,0,0,1-3.2-2.325q-.065-.151-.786-3.543-.478-2.22-.93-4.446-.2-1.008.648-1.015a1.53,1.53,0,0,0,.616-.131.7.7,0,0,1,.786.059,1.034,1.034,0,0,1,.314.622q.7,3.588,1.395,7.137A1.508,1.508,0,0,0,112.837,59.7Z" transform="translate(-19.206 -4.174)" fill="#404040"/>
    <path id="パス_30273" data-name="パス 30273" d="M445,57.075V52.341a.341.341,0,0,1,.34-.341h2.593a.341.341,0,0,1,.341.341v4.3a.432.432,0,0,1-.432.432Z" transform="translate(-135.643 -5.116)" fill="#404040"/>
    <rect id="長方形_3656" data-name="長方形 3656" width="3.274" height="5.068" rx="0.31" transform="translate(314.26 46.897) rotate(-0.2)" fill="#404040"/>
    <path id="パス_30274" data-name="パス 30274" d="M526.75,57.075V52.34a.341.341,0,0,1,.341-.34h2.593a.341.341,0,0,1,.34.34v4.394a.341.341,0,0,1-.341.34Z" transform="translate(-163.862 -5.116)" fill="#404040"/>
    <rect id="長方形_3657" data-name="長方形 3657" width="3.274" height="5.081" rx="0.27" transform="translate(367.795 46.887) rotate(-0.1)" fill="#404040"/>
    <path id="パス_30276" data-name="パス 30276" d="M267.6,63.547l7.36.151a.357.357,0,0,1,.36.34l.072,4.584a.344.344,0,0,1-.347.334l-6.037.033a.511.511,0,0,0-.5.616l2.213,10.641a.6.6,0,0,1-.164.57l-3.025,2.573a1.981,1.981,0,0,1-1.329.458l-5.409-.059a.357.357,0,0,1-.354-.354l-.072-4.584a.327.327,0,0,1,.1-.24.354.354,0,0,1,.248-.1l3.1-.007a.48.48,0,0,0,.366-.168.451.451,0,0,0,.1-.382l-1.729-8.578a.488.488,0,0,0-.478-.386H243.367a.367.367,0,0,1-.367-.367V63.914a.327.327,0,0,1,.327-.327H261.04a.32.32,0,0,0,.252-.128.349.349,0,0,0,.062-.285l-1.408-6.758a.334.334,0,0,1,.275-.4l4.918-.8a.367.367,0,0,1,.406.3l1.663,7.7A.412.412,0,0,0,267.6,63.547Z" transform="translate(-65.914 -6.225)" fill="#404040"/>
    <path id="パス_30277" data-name="パス 30277" d="M159.718,61.5a6.129,6.129,0,1,1-6.129-6.129,6.129,6.129,0,0,1,6.129,6.129Zm-2.351.007a3.785,3.785,0,1,0-3.785,3.785A3.785,3.785,0,0,0,157.367,61.506Z" transform="translate(-32.935 -6.279)" fill="#404040"/>
    <path id="パス_30278" data-name="パス 30278" d="M94.645,66.356l2.017,3.464a.443.443,0,0,1-.1.6l-1.408.917a.27.27,0,0,1-.247.015.463.463,0,0,1-.224-.2L88.8,61.2a.36.36,0,0,1,.1-.478,27.634,27.634,0,0,1,3.006-1.775,6.019,6.019,0,0,1,3.326-.766q3.156.36,2.724,4.282a1.82,1.82,0,0,1-.223.635,3.379,3.379,0,0,0-.164.334.423.423,0,0,0,.164.5l4.217,2.934a.245.245,0,0,1,.109.2.215.215,0,0,1-.1.189l-1.624.982a.535.535,0,0,1-.57-.052q-1.748-1.172-3.444-2.416a1.313,1.313,0,0,0-.93-.321,1.279,1.279,0,0,0-.714.373.441.441,0,0,0-.039.537Zm-.478-5.887a3.612,3.612,0,0,0-1.761,1.041.592.592,0,0,0-.164.563q.583,2.384,1.925,1.408.544-.4,1.094-.877a1.084,1.084,0,0,0,.327-1.513A1.252,1.252,0,0,0,94.167,60.469Z" transform="translate(-12.67 -7.24)" fill="#404040"/>
    <path id="パス_30280" data-name="パス 30280" d="M341.72,93.087q.092.871.484.085a12.316,12.316,0,0,0,1.048-8.4,5.746,5.746,0,0,0-3.006-4.191,8.431,8.431,0,0,0-4.682-.609,13.888,13.888,0,0,0-8.094,3.693,68.653,68.653,0,0,0-5.271,5.409.57.57,0,0,1-.832.026L318.1,85.839a.517.517,0,0,1-.013-.714l17.791-19.409q.5-.543-.242-.55l-13.1-.1a.361.361,0,0,1-.367-.34l-.072-4.584a.338.338,0,0,1,.347-.327H342.82a.7.7,0,0,1,.563.229l2.285,3.038a.594.594,0,0,1-.085.746L336.128,73.98q-.459.491.209.511,11.263.268,12.913,10.654a14.5,14.5,0,0,1-1.309,8.251q-4.361,9.861-15.382,7.936a8.345,8.345,0,0,1-5.507-3.2,8,8,0,0,1-1.5-5.677,7.289,7.289,0,0,1,3.562-5.88,8.589,8.589,0,0,1,6.162-1.139Q341.02,86.421,341.72,93.087Zm-5.343.295a2.763,2.763,0,1,0-2.763,2.763A2.763,2.763,0,0,0,336.377,93.382Z" transform="translate(-91.787 -7.812)" fill="#404040"/>
    <path id="パス_30281" data-name="パス 30281" d="M433.966,59.75v5.062a.341.341,0,0,1-.341.34h-3.739a.337.337,0,0,0-.239.1.324.324,0,0,0-.1.236l.026,5.52a.341.341,0,0,0,.334.34l3.536.02a.5.5,0,0,1,.345.135.437.437,0,0,1,.14.324l-.059,4.505a.36.36,0,0,1-.354.36l-3.392.052a.549.549,0,0,0-.57.524l.091,8.879a.434.434,0,0,0,.341.4l3.536.9a.449.449,0,0,1,.347.419l.079,4.682a.244.244,0,0,1-.105.205.316.316,0,0,1-.248.05l-3.647-.792a.319.319,0,0,0-.276.068.348.348,0,0,0-.124.266,8.827,8.827,0,0,1-4.053,7.838,7.932,7.932,0,0,1-12.134-4.721,7.6,7.6,0,0,1,2.017-7.8,8.637,8.637,0,0,1,8.224-2.292.426.426,0,0,0,.5-.413l.033-7.851a.337.337,0,0,0-.341-.334H415.18a.367.367,0,0,1-.367-.367V71.7a.327.327,0,0,1,.327-.327l8.631-.039a.334.334,0,0,0,.34-.327l.026-5.513a.341.341,0,0,0-.341-.341H415.14a.327.327,0,0,1-.327-.327V60.117a.367.367,0,0,1,.367-.367ZM424,93.355a2.776,2.776,0,1,0-2.776,2.776A2.776,2.776,0,0,0,424,93.355Z" transform="translate(-124.609 -7.791)" fill="#404040"/>
    <path id="パス_30282" data-name="パス 30282" d="M515.759,59.75l-.1,4.95a.367.367,0,0,1-.354.367l-3.634.072a.328.328,0,0,0-.334.314V70.96a.456.456,0,0,0,.465.439l3.5.059a.37.37,0,0,1,.36.367l.072,4.584a.319.319,0,0,1-.1.236.358.358,0,0,1-.248.1l-3.693.033a.354.354,0,0,0-.36.347v8.971a.563.563,0,0,0,.465.517l3.608.891a.436.436,0,0,1,.315.439l.007,4.512a.24.24,0,0,1-.1.195.311.311,0,0,1-.234.054l-3.693-.629a.268.268,0,0,0-.224.066.3.3,0,0,0-.1.222q.065,6.935-6.267,8.971a6.587,6.587,0,0,1-3.189.183,8.591,8.591,0,0,1-2.914-1.094,7.459,7.459,0,0,1-4.105-6.712,8.415,8.415,0,0,1,2.8-6.574q2.992-2.711,7.786-1.866a.285.285,0,0,0,.232-.057.271.271,0,0,0,.1-.211l.078-7.858a.341.341,0,0,0-.347-.327l-8.512-.151a.354.354,0,0,1-.354-.34l-.079-4.643a.292.292,0,0,1,.092-.217.332.332,0,0,1,.229-.091l8.624-.039a.334.334,0,0,0,.34-.327l.026-5.435a.439.439,0,0,0-.445-.432l-8.434-.092a.354.354,0,0,1-.354-.34l-.065-4.571a.37.37,0,0,1,.115-.273.41.41,0,0,1,.285-.114Zm-9.934,33.611a2.77,2.77,0,1,0-2.77,2.77A2.77,2.77,0,0,0,505.825,93.361Z" transform="translate(-152.871 -7.791)" fill="#404040"/>
    <path id="パス_30283" data-name="パス 30283" d="M645.207,81.725a51.965,51.965,0,0,1-15.866,5.716.292.292,0,0,1-.236-.059.277.277,0,0,1-.1-.216l.033-5.605a.394.394,0,0,1,.328-.38,33.5,33.5,0,0,0,16.789-7.72A28.152,28.152,0,0,0,654.5,60.123a.527.527,0,0,1,.5-.373h5.474a.3.3,0,0,1,.231.109.285.285,0,0,1,.057.244,32.082,32.082,0,0,1-8.453,15.873.823.823,0,0,0-.236.576v24.084a.367.367,0,0,1-.367.367h-5.821a.364.364,0,0,1-.36-.367L645.495,81.9a.2.2,0,0,0-.1-.17A.186.186,0,0,0,645.207,81.725Z" transform="translate(-199.158 -7.791)" fill="#404040"/>
    <rect id="長方形_3658" data-name="長方形 3658" width="11.092" height="6.339" rx="0.38" transform="translate(480.31 54.687) rotate(31.4)" fill="#404040"/>
    <path id="パス_30285" data-name="パス 30285" d="M581.235,70.674l-20.908-.039a.327.327,0,0,1-.328-.327V64.591a.341.341,0,0,1,.341-.341h27.122a.367.367,0,0,1,.367.367v34.5a.327.327,0,0,1-.328.327l-27.142-.039a.341.341,0,0,1-.239-.1.316.316,0,0,1-.1-.231l.072-5.572a.341.341,0,0,1,.347-.327l20.79-.157a.334.334,0,0,0,.334-.327V71A.331.331,0,0,0,581.235,70.674Z" transform="translate(-175.339 -9.344)" fill="#404040"/>
    <path id="パス_30286" data-name="パス 30286" d="M164.371,77.822a24.155,24.155,0,0,1-1.984-2.606.37.37,0,0,1,.079-.5l8.853-7.118a.5.5,0,0,1,.681.039,17.3,17.3,0,0,1,2.613,3.523,4.333,4.333,0,0,1,.642,3.065,3.362,3.362,0,0,1-2.508,2.508,1.077,1.077,0,0,1-.629-.026q-.812-.236-.877.563a1.719,1.719,0,0,1-.151.622q-1.558,2.888-4.151,1.886A6.867,6.867,0,0,1,164.371,77.822Zm6.869-3.575q1.48.6,1.7-.524a2.518,2.518,0,0,0-.21-1.362q-1.172-2.888-3.025-.269a.54.54,0,0,0-.026.57A3.391,3.391,0,0,0,171.24,74.246Zm-3.765,3.274a1.03,1.03,0,0,0,1.559-.55.939.939,0,0,0,.046-.622q-1-3.994-3.326-1.094a.465.465,0,0,0-.026.544A4.686,4.686,0,0,0,167.474,77.52Z" transform="translate(-38.065 -10.461)" fill="#404040"/>
    <path id="パス_30287" data-name="パス 30287" d="M401.393,92.664l2.279-1.1a.245.245,0,0,1,.229.011.215.215,0,0,1,.1.192l-.026,5.291a.543.543,0,0,1-.295.485l-4.9,2.488a.507.507,0,0,1-.557-.052l-2.5-2.154a.731.731,0,0,1-.223-.563V70.59a.341.341,0,0,1,.34-.34h4.63a.432.432,0,0,1,.432.432V92.356a.34.34,0,0,0,.491.308Z" transform="translate(-118.556 -11.415)" fill="#404040"/>
    <path id="パス_30288" data-name="パス 30288" d="M483.393,92.664l1.971-1.067a.332.332,0,0,1,.323,0,.316.316,0,0,1,.161.274l-.033,5.186a.54.54,0,0,1-.3.485l-4.983,2.541a.5.5,0,0,1-.543-.092l-2.161-1.84a.88.88,0,0,1-.327-.655V70.59a.341.341,0,0,1,.34-.34h4.629a.432.432,0,0,1,.432.432V92.356a.344.344,0,0,0,.161.3A.329.329,0,0,0,483.393,92.664Z" transform="translate(-146.861 -11.415)" fill="#404040"/>
    <path id="パス_30289" data-name="パス 30289" d="M127.209,75.486l-2.835,2.567a.469.469,0,0,1-.544.059q-1.722-.963-.792-1.775a53.118,53.118,0,0,0,3.975-3.863.517.517,0,0,1,.746-.007l4.073,4.066a.393.393,0,0,1,.059.465q-1.067,1.892-1.892.9-.373-.458-.406-.485-.956-.963-1.912-1.919A.34.34,0,0,0,127.209,75.486Z" transform="translate(-24.392 -12.127)" fill="#404040"/>
    <path id="パス_30291" data-name="パス 30291" d="M137.23,87a5.986,5.986,0,0,1,4.878-4.171,6.115,6.115,0,0,1,4.04.668,5.922,5.922,0,0,1,2.757,3.4,5.606,5.606,0,0,1-.982,5.507q-2.934,3.8-8.238,1.683a.331.331,0,0,0-.283.023.317.317,0,0,0-.156.232A38.886,38.886,0,0,1,133.4,110.31q-1.369,2.1-2.606,4.269a33.3,33.3,0,0,1-2.691,4.2,20.345,20.345,0,0,1-11.079,7.039q-15.146,3.732-25.472-5.73a56.563,56.563,0,0,1-8.29-10.1,61.586,61.586,0,0,1-7.386-15.12.341.341,0,0,0-.419-.216q-3.588,1.094-1.827-1.788a.689.689,0,0,1,.5-.3A1.438,1.438,0,0,0,75.573,91.3a1.728,1.728,0,0,0-.445-1.473q-.707-.786-1.552.092a6.393,6.393,0,0,0-.707,1.166,3.744,3.744,0,0,1-2.37,1.978,3.643,3.643,0,0,1-2.8-.36q-2.744-1.46-1.427-4.865,1.028-2.652,4.138-2.22a.4.4,0,0,1,.354.38,3.362,3.362,0,0,1-.295,1.5.523.523,0,0,1-.465.3q-2.036.1-1.637,2.135a.878.878,0,0,0,.321.53q1.408,1.08,2.331-.989,1.565-3.516,5.232-1.82a.438.438,0,0,0,.5-.118L78.3,85.918a.422.422,0,0,0,.092-.491l-5.612-9.986q-.183-.327.177-.216l12.062,3.68a.271.271,0,0,1,.176.159.285.285,0,0,1-.012.241q-1.061,2.023-2.384,1.369a.4.4,0,0,0-.491.092l-1.919,2.4a.692.692,0,0,0-.157.576,1.961,1.961,0,0,0,.674,1.126.879.879,0,0,0,.589.17,8.09,8.09,0,0,1,3.268.517,20.041,20.041,0,0,1,6.437,3.9.8.8,0,0,0,.91.124,37.357,37.357,0,0,1,19.343-4.165,26.868,26.868,0,0,1,15.237,5.52.763.763,0,0,0,.584.146.75.75,0,0,0,.5-.323,10.984,10.984,0,0,1,4.178-3.693,5.448,5.448,0,0,1,4.859.1A.308.308,0,0,0,137.23,87ZM79.6,79.8q-2.174-1.152-1.657-.039.138.295.386.9.445,1.067,1.388-.413a.3.3,0,0,0,.04-.247A.318.318,0,0,0,79.6,79.8Zm67.269,9.056a3.778,3.778,0,1,0-3.778,3.778A3.778,3.778,0,0,0,146.869,88.852Zm-22.931,2.875A25.9,25.9,0,0,0,110.8,87.463,34.6,34.6,0,0,0,92.415,91.9a1.542,1.542,0,0,1-1.735-.17,31.261,31.261,0,0,0-4.322-3.045,9.53,9.53,0,0,0-4.466-1.572,3.768,3.768,0,0,0-3.418,1.866,5.218,5.218,0,0,0-.622,3.457,22.539,22.539,0,0,0,2.135,7.229,63.564,63.564,0,0,0,4.394,7.91.73.73,0,0,0,.5.36q.36.02.347-.491Q84.839,93.8,97.686,90.711A43.906,43.906,0,0,1,123.924,92.3q.53.2.426-.164Q124.3,91.955,123.938,91.726Zm11.78-2.462a2.179,2.179,0,0,0-2.279-.406,7.763,7.763,0,0,0-3.673,2.763q-.956,1.3-1.067,1.473a3.372,3.372,0,0,0-.53,1.775,4.982,4.982,0,0,0,.891,2.364,19,19,0,0,1,2.744,9.881.409.409,0,0,0,.3.426q.609.1,1-.674a39.883,39.883,0,0,0,4.184-13.45A4.407,4.407,0,0,0,135.718,89.264ZM124.54,95.891a16.781,16.781,0,0,0-7.19-3.307,41.81,41.81,0,0,0-17.582-.046q-5.743,1.244-8.447,3.615-3.759,3.307-3.785,9.2a17,17,0,0,0,6.607,14.039,24.418,24.418,0,0,0,31.025-.491,12.589,12.589,0,0,0,4.426-8.27,20.247,20.247,0,0,0-.471-7.9A13.071,13.071,0,0,0,124.54,95.891Z" transform="translate(-4.763 -13.123)" fill="#404040"/>
    <path id="パス_30292" data-name="パス 30292" d="M727.713,76.791a.549.549,0,0,1,.53-.471l5.265.079a.3.3,0,0,1,.222.113.352.352,0,0,1,.073.254,28.131,28.131,0,0,1-7.046,16.495A40.343,40.343,0,0,1,702.1,106.467a.3.3,0,0,1-.245-.067.311.311,0,0,1-.109-.234v-5.35a.5.5,0,0,1,.419-.491,33.406,33.406,0,0,0,16.514-7.6,25.879,25.879,0,0,0,5.946-7.065A28.617,28.617,0,0,0,727.713,76.791Z" transform="translate(-224.27 -13.511)" fill="#404040"/>
    <path id="パス_30294" data-name="パス 30294" d="M110.468,82.273a16.4,16.4,0,0,1,2.875,2.862q.714,1.4-.832,1.879a.539.539,0,0,1-.543-.144l-2.5-2.5a.612.612,0,0,0-.417-.183.531.531,0,0,0-.4.163l-2.462,2.573a.472.472,0,0,1-.517.138q-2.213-.93-.583-2.383,1.021-.917,1.061-.949a29.793,29.793,0,0,1,2.685-2.4.412.412,0,0,1,.511,0Q109.911,81.788,110.468,82.273Z" transform="translate(-18.069 -15.207)" fill="#404040"/>
    <path id="パス_30295" data-name="パス 30295" d="M145.767,84.216l-2.757,2.619a.46.46,0,0,1-.537.085,2.6,2.6,0,0,1-1.041-1.041.44.44,0,0,1,.085-.524l4.151-4.21a.409.409,0,0,1,.3-.122.422.422,0,0,1,.3.129q1.945,1.945,4.06,3.752.989.845-.792,1.945a.475.475,0,0,1-.57-.065l-2.724-2.573A.344.344,0,0,0,145.767,84.216Z" transform="translate(-30.836 -15.134)" fill="#404040"/>
    <path id="パス_30300" data-name="パス 30300" d="M248.1,111.324a14.7,14.7,0,0,1-4.97-10.49.308.308,0,0,1,.308-.334h4.675a.275.275,0,0,1,.268.229q1.231,7.884,8.964,8.971a.311.311,0,0,1,.268.308l-.033,4.7a.311.311,0,0,1-.1.227.324.324,0,0,1-.236.087A14.649,14.649,0,0,1,248.1,111.324Z" transform="translate(-65.958 -21.857)" fill="#404040"/>
    <path id="パス_30301" data-name="パス 30301" d="M68.031,117.348l-2.77,2.58a.369.369,0,0,1-.5.052l-1.074-1.067a.393.393,0,0,1,.092-.53l4.276-4.184a.347.347,0,0,1,.485,0q2.017,1.991,4.06,3.876.9.838-.877,1.833a.445.445,0,0,1-.517-.085l-2.659-2.482A.373.373,0,0,0,68.031,117.348Z" transform="translate(-3.992 -26.552)" fill="#404040"/>
    <path id="パス_30302" data-name="パス 30302" d="M186.237,117.245q-.871.779-1.683,1.611-.033.033-.517.635-.962,1.2-2.135-.583a.436.436,0,0,1,.059-.55l4.348-4.165a.344.344,0,0,1,.478.02l4.151,3.994a.532.532,0,0,1,.1.655q-.74,1.2-1.336,1.087a7.6,7.6,0,0,1-1.021-.812,25.751,25.751,0,0,1-1.971-1.873A.337.337,0,0,0,186.237,117.245Z" transform="translate(-44.799 -26.554)" fill="#404040"/>
    <circle id="楕円形_290" data-name="楕円形 290" cx="1.107" cy="1.107" r="1.107" transform="translate(94.135 91.922)" fill="#404040"/>
    <circle id="楕円形_291" data-name="楕円形 291" cx="1.08" cy="1.08" r="1.08" transform="translate(102.772 92.308)" fill="#404040"/>
    <circle id="楕円形_292" data-name="楕円形 292" cx="1.1" cy="1.1" r="1.1" transform="translate(111.959 92.308)" fill="#404040"/>
    <path id="パス_30303" data-name="パス 30303" d="M127.727,127.767a6.171,6.171,0,0,0,3.863-.4,2.6,2.6,0,0,1,.72-.236q1.035-.131.373.805a1.267,1.267,0,0,1-.563.439,8.939,8.939,0,0,1-6.247.138q-.9-.288-.661-.864a.45.45,0,0,1,.491-.236Q126.719,127.564,127.727,127.767Z" transform="translate(-25.237 -31.045)" fill="#404040"/>
    <path id="パス_30304" data-name="パス 30304" d="M82.06,132.207l-2.8,2.665a.355.355,0,0,1-.491.02l-1.028-1.048a.344.344,0,0,1-.1-.25.357.357,0,0,1,.11-.248l4.256-4.093a.588.588,0,0,1,.812.039l3.981,3.8a.492.492,0,0,1,.1.6q-.74,1.316-1.342,1.2a9.4,9.4,0,0,1-1.041-.858q-1.015-.891-1.984-1.82A.347.347,0,0,0,82.06,132.207Z" transform="translate(-8.834 -31.733)" fill="#404040"/>
    <path id="パス_30305" data-name="パス 30305" d="M172.194,132.2,169.4,134.79a.46.46,0,0,1-.53.092,2.935,2.935,0,0,1-1.12-1.12.441.441,0,0,1,.092-.517l4.256-4.1a.432.432,0,0,1,.6-.007q2.01,1.9,4.079,3.752.923.825-.943,1.873a.482.482,0,0,1-.563-.092l-2.58-2.469A.36.36,0,0,0,172.194,132.2Z" transform="translate(-39.924 -31.703)" fill="#404040"/>
    <path id="パス_30306" data-name="パス 30306" d="M279.252,164.522l-.766,1.82a.532.532,0,0,1-.465.341l-3.529.052a.23.23,0,0,1-.2-.112.275.275,0,0,1-.018-.248l8.323-20.685q.124-.308.249.007l8.27,20.594a.282.282,0,0,1-.01.241.221.221,0,0,1-.187.119l-3.621.072a.525.525,0,0,1-.452-.347l-.792-1.775a.533.533,0,0,0-.465-.327L279.7,164.2A.49.49,0,0,0,279.252,164.522Zm3.255-8.054-1.369,3.281a.29.29,0,0,0,.005.237.262.262,0,0,0,.178.143,5.744,5.744,0,0,0,2.6.033.3.3,0,0,0,.2-.15.285.285,0,0,0,.013-.243l-1.362-3.313Q282.644,156.147,282.506,156.468Z" transform="translate(-76.7 -37.404)" fill="#404040"/>
    <path id="パス_30307" data-name="パス 30307" d="M701.307,162.511q1.958-.242,1.572,1.919a11.472,11.472,0,0,0-.138,1.925.337.337,0,0,1-.334.341l-6.836-.033a.337.337,0,0,1-.334-.34v-3.346a.276.276,0,0,1,.1-.212.318.318,0,0,1,.237-.07q1.487.157,1.356-1.244-.085-.877-.085-.982v-10.6a.576.576,0,0,0-.74-.55q-1.022.308-.969-.635.072-1.3.072-3a.432.432,0,0,1,.432-.432H702.4a.34.34,0,0,1,.34.341V148.8a.546.546,0,0,1-.207.428.56.56,0,0,1-.468.109,1.357,1.357,0,0,0-.806.059.5.5,0,0,0-.288.478l.007,12.356a.275.275,0,0,0,.1.212A.3.3,0,0,0,701.307,162.511Z" transform="translate(-221.987 -37.305)" fill="#404040"/>
    <path id="パス_30308" data-name="パス 30308" d="M78.688,146.957q1.342,1.27,3.038,3.13a.429.429,0,0,1,.007.589l-.969.976a.358.358,0,0,1-.5-.02l-2.8-2.75a.436.436,0,0,0-.609-.007l-2.7,2.7a.437.437,0,0,1-.524.079,3.432,3.432,0,0,1-1.1-1.041.413.413,0,0,1,.052-.524l4.23-4.086a.453.453,0,0,1,.543-.052A7.028,7.028,0,0,1,78.688,146.957Z" transform="translate(-7.046 -37.525)" fill="#404040"/>
    <path id="パス_30309" data-name="パス 30309" d="M177.455,148.839l-2.927,2.783a.443.443,0,0,1-.264.123.279.279,0,0,1-.234-.084l-1.008-1.12a.385.385,0,0,1,.072-.517l3.89-3.9a.822.822,0,0,1,1.159-.02l4.014,3.87a.416.416,0,0,1,.066.517q-1.061,1.709-1.951.773-1.159-1.218-2.344-2.416A.337.337,0,0,0,177.455,148.839Z" transform="translate(-41.734 -37.522)" fill="#404040"/>
    <path id="パス_30310" data-name="パス 30310" d="M250.938,160.218q-.334-1.905-2.835-2.023-4.95-.229-6.181-4.61a5.471,5.471,0,0,1,2.456-6.443,6.388,6.388,0,0,1,7.628-.157,6.013,6.013,0,0,1,2.96,4.682.594.594,0,0,1-.145.447.553.553,0,0,1-.418.188l-2.979-.013a.4.4,0,0,1-.38-.334,2.415,2.415,0,0,0-1.591-1.971q-2.587-.93-3.484,1.094a2.091,2.091,0,0,0,.1,2.108,2.559,2.559,0,0,0,2.2,1.08,7.339,7.339,0,0,1,4.178,1.369,6.191,6.191,0,0,1,2.351,3.412,5.647,5.647,0,0,1-1.578,5.749,6.229,6.229,0,0,1-6.83,1.591,6.135,6.135,0,0,1-4.656-5.441.534.534,0,0,1,.129-.424.547.547,0,0,1,.408-.185h2.822a.675.675,0,0,1,.635.432,2.772,2.772,0,0,0,3.641,1.84A1.853,1.853,0,0,0,250.938,160.218Z" transform="translate(-65.451 -37.494)" fill="#404040"/>
    <path id="パス_30311" data-name="パス 30311" d="M320.146,158.5l-.026,7.969a.344.344,0,0,1-.34.34l-3.4-.02a.327.327,0,0,1-.321-.334l.078-20.306a.36.36,0,0,1,.334-.36q1.427-.124,2.855-.118.1,0,2.547-.066a10.929,10.929,0,0,1,5.893,1.441,4.818,4.818,0,0,1,2.213,3.294q1.008,4.512-3.2,7.039a.511.511,0,0,0-.2.655l3.8,8.244a.349.349,0,0,1-.016.329.319.319,0,0,1-.279.155l-3.477-.026a.563.563,0,0,1-.465-.347l-3.647-7.753a.619.619,0,0,0-.452-.393l-1.578-.111a.275.275,0,0,0-.228.1A.414.414,0,0,0,320.146,158.5Zm5.985-6.253a1.689,1.689,0,0,0-.34-1.513,3.029,3.029,0,0,0-1.709-.884,10.926,10.926,0,0,0-3.634-.19.373.373,0,0,0-.334.373v3.451a.563.563,0,0,0,.471.557,6.454,6.454,0,0,0,4.721-.635A1.84,1.84,0,0,0,326.131,152.248Z" transform="translate(-91.134 -37.427)" fill="#404040"/>
    <path id="パス_30312" data-name="パス 30312" d="M369.838,163.79a7.784,7.784,0,0,1-5.448,2.881q-5.278.517-7.9-3.333a7.221,7.221,0,0,1-1.067-3.654q-.387-6.4-.17-13.378a.57.57,0,0,1,.57-.557h3.156a.34.34,0,0,1,.34.341V155.3q0,4.3.1,4.773.733,3.307,5.134,2.534a2.815,2.815,0,0,0,2.573-2.246q.046-.209.046-3.045V146.09a.341.341,0,0,1,.34-.341h3.32a.419.419,0,0,1,.426.413l-.137,14.268A5.21,5.21,0,0,1,369.838,163.79Z" transform="translate(-104.635 -37.477)" fill="#404040"/>
    <path id="パス_30313" data-name="パス 30313" d="M409.732,156.467q3.549,3.372.9,7.471a6.114,6.114,0,0,1-4.8,2.626,57.084,57.084,0,0,1-7.786.262.563.563,0,0,1-.55-.563V146.22a.452.452,0,0,1,.432-.452,51.59,51.59,0,0,1,6.6.052,9.878,9.878,0,0,1,4.426,1.12,5.8,5.8,0,0,1,2.619,4.191,4.815,4.815,0,0,1-1.827,4.924.275.275,0,0,0-.02.413Zm-2.371-3.647a1.934,1.934,0,0,0-1.512-2.848,11.517,11.517,0,0,0-4.04-.288.368.368,0,0,0-.347.36l.052,3.746a.411.411,0,0,0,.367.38,9.7,9.7,0,0,0,4.485-.373A1.571,1.571,0,0,0,407.361,152.82Zm-.164,8.827q1.762-1.67-.491-2.7a7.435,7.435,0,0,0-4.918-.491.428.428,0,0,0-.334.406q-.039.74-.033,1.486,0,.092-.092,1.192-.112,1.349,1.159,1.316,1.2-.026,1.487-.013A4.207,4.207,0,0,0,407.2,161.647Z" transform="translate(-119.246 -37.456)" fill="#404040"/>
    <path id="パス_30314" data-name="パス 30314" d="M456.561,156.28a10.47,10.47,0,1,1-10.47-10.47A10.47,10.47,0,0,1,456.561,156.28Zm-3.988-.013a6.489,6.489,0,1,0-6.489,6.489A6.489,6.489,0,0,0,452.573,156.267Z" transform="translate(-132.405 -37.498)" fill="#404040"/>
    <path id="パス_30315" data-name="パス 30315" d="M496.613,155.849q-.393.079-.112.367a6.638,6.638,0,0,1,1.945,3.818,5.689,5.689,0,0,1-1,3.87,6.262,6.262,0,0,1-4.852,2.75,44.653,44.653,0,0,1-7.9.066.357.357,0,0,1-.334-.354l-.118-20.175a.363.363,0,0,1,.321-.367,28.3,28.3,0,0,1,7.033,0q3.771.472,5.441,2.2,2.436,2.514.688,6.777A1.546,1.546,0,0,1,496.613,155.849ZM494.4,152a1.727,1.727,0,0,0-1.3-1.84,8.571,8.571,0,0,0-4.3-.471.5.5,0,0,0-.452.5l.013,3.5a.442.442,0,0,0,.327.412,5.7,5.7,0,0,0,4.61-.583A2.034,2.034,0,0,0,494.4,152Zm-.125,9.141a1.906,1.906,0,0,0-1.061-2.469,7.572,7.572,0,0,0-4.426-.3.416.416,0,0,0-.367.38l-.033,3.4a.539.539,0,0,0,.511.524,11.623,11.623,0,0,0,4.1-.249A1.84,1.84,0,0,0,494.275,161.14Z" transform="translate(-149.191 -37.427)" fill="#404040"/>
    <path id="パス_30316" data-name="パス 30316" d="M542.514,156.287a10.477,10.477,0,1,1-10.477-10.477A10.477,10.477,0,0,1,542.514,156.287Zm-3.995-.02a6.483,6.483,0,1,0-6.483,6.483,6.482,6.482,0,0,0,6.483-6.483Z" transform="translate(-162.07 -37.498)" fill="#404040"/>
    <path id="パス_30317" data-name="パス 30317" d="M605.684,149.858a9.118,9.118,0,0,1,5.625-3.634,10.423,10.423,0,0,1,9.9,2.691.331.331,0,0,1,.109.229.3.3,0,0,1-.09.229l-2.331,2.272a.354.354,0,0,1-.484-.006,7.6,7.6,0,0,0-3.123-1.657,6.079,6.079,0,0,0-3.405.111,6.208,6.208,0,0,0-4.361,4.715,5.885,5.885,0,0,0,.465,4.322,6.925,6.925,0,0,0,2.907,2.9q3.641,2,7.537-1.008a.555.555,0,0,1,.746.092l1.847,2.05a.639.639,0,0,1,.169.456.558.558,0,0,1-.208.414q-5.16,4.02-10.208,2.285a10.854,10.854,0,0,1-6.712-6.227Q601.951,155.168,605.684,149.858Z" transform="translate(-190.287 -37.532)" fill="#404040"/>
    <path id="パス_30318" data-name="パス 30318" d="M666.181,156.28a10.471,10.471,0,1,1-10.47-10.47A10.47,10.47,0,0,1,666.181,156.28Zm-3.981,0a6.489,6.489,0,1,0-6.489,6.489A6.489,6.489,0,0,0,662.2,156.28Z" transform="translate(-204.763 -37.498)" fill="#404040"/>
    <path id="パス_30319" data-name="パス 30319" d="M728.544,153.418q-.615-.9-.615.183v12.9a.367.367,0,0,1-.367.367h-3.221a.341.341,0,0,1-.341-.341v-20.26a.526.526,0,0,1,.15-.368.5.5,0,0,1,.361-.149l3.045.026a.661.661,0,0,1,.524.288l9.141,12.991q.366.517.366-.118V146.1a.341.341,0,0,1,.341-.341l3.392.02a.33.33,0,0,1,.321.334l.04,20.4a.36.36,0,0,1-.36.36h-3.156a.638.638,0,0,1-.531-.269Z" transform="translate(-231.95 -37.477)" fill="#404040"/>
    <path id="パス_30320" data-name="パス 30320" d="M149.272,159.856l3.412,6.26a.508.508,0,0,1-.013.55q-.766,1.041-1.644.622a2.546,2.546,0,0,1-.963-1.094q-2.482-4.381-5.029-8.722a.371.371,0,0,1,.072-.5l1.27-.864a.594.594,0,0,1,.589-.02l8.506,3.935q.609.282.268-.308l-3.732-6.443a.357.357,0,0,1,.118-.485l1.2-.76a.341.341,0,0,1,.465.118q1.67,2.678,5.762,9.672.465.792-.3,1.094a2.72,2.72,0,0,0-.557.314,1.475,1.475,0,0,1-1.558.026q-3.87-1.755-7.727-3.549Q149.115,159.562,149.272,159.856Z" transform="translate(-32.075 -39.627)" fill="#404040"/>
    <path id="パス_30324" data-name="パス 30324" d="M96.26,162.471a8.269,8.269,0,0,0,1.591.046.7.7,0,0,1,.576.216.812.812,0,0,1,.144.386,1.893,1.893,0,0,0,.144.622q.544,1.107-.694,1.224a6.243,6.243,0,0,1-4.092-.936,6.523,6.523,0,0,1-2.528-3.051,6.215,6.215,0,0,1,3.228-7.877,6.3,6.3,0,0,1,3.667-.432,6.065,6.065,0,0,1,4.846,4.132.436.436,0,0,1-.138.517,2.948,2.948,0,0,1-1.663.57.46.46,0,0,1-.439-.308,3.706,3.706,0,0,0-2.881-2.547,3.985,3.985,0,0,0-3.307.832,3.7,3.7,0,0,0-1.113,4.191A3.366,3.366,0,0,0,96.26,162.471Z" transform="translate(-13.427 -39.831)" fill="#404040"/>
    <path id="パス_30325" data-name="パス 30325" d="M139,169.618q1.087.308,1.054,2.089a.537.537,0,0,1-.485.517,16.8,16.8,0,0,0-2.94.517.8.8,0,0,1-.648-.02.578.578,0,0,1-.2-.465,1.578,1.578,0,0,0-.118-.616.944.944,0,0,1,.53-1.441.375.375,0,0,0,.236-.426,50.147,50.147,0,0,1-1.231-6.234q-.079-.674-.616-.72a.648.648,0,0,1-.517-.242,3.519,3.519,0,0,1-.393-1.676.472.472,0,0,1,.386-.472l3.274-.6a.463.463,0,0,1,.5.216,2.508,2.508,0,0,1,.334,1.65.547.547,0,0,1-.386.393q-.485.183-.327.832.367,1.526,1.172,6.312a.51.51,0,0,0,.38.38Z" transform="translate(-28.174 -42.336)" fill="#404040"/>
    <path id="パス_30326" data-name="パス 30326" d="M122.661,166.366a6.136,6.136,0,1,1-6.136-6.136,6.135,6.135,0,0,1,6.136,6.136Zm-2.344-.026a3.785,3.785,0,1,0-3.785,3.785A3.785,3.785,0,0,0,120.317,166.339Z" transform="translate(-20.138 -42.476)" fill="#404040"/>
  </g>
</svg>
