<svg xmlns="http://www.w3.org/2000/svg" width="74.237" height="75.429" viewBox="0 0 74.237 75.429">
  <g id="スクリーンショット_2023-05-18_201137" data-name="スクリーンショット 2023-05-18 201137" transform="translate(-10.378 -7.967)">
    <g id="グループ_17789" data-name="グループ 17789" transform="translate(11.378 8.969)">
      <path id="パス_30328" data-name="パス 30328" d="M214.17,313.855a1.357,1.357,0,0,1,1.281-.71,6.913,6.913,0,0,0,.95,0q1.666-.254,3.322-.58" transform="translate(-165.984 -240.43)" fill="none" stroke="#ecefdc" stroke-width="2"/>
      <path id="パス_30329" data-name="パス 30329" d="M237.54,312.486l3.317-.026" transform="translate(-183.801 -240.346)" fill="none" stroke="#d3d8c0" stroke-width="2"/>
      <path id="パス_30330" data-name="パス 30330" d="M251.5,200.023a13.5,13.5,0,0,0,6.187-1.231q1.4-.644,2.274-1.152a9.31,9.31,0,0,0,2.027-1.585,18.146,18.146,0,0,0,2.264-3.006,14.368,14.368,0,0,0,2.084-6.028,25.734,25.734,0,0,0,.192-3.324q-.116-6.753-.059-11.881.024-2.134.207-4.945a2.016,2.016,0,0,0-.15-.891,5.047,5.047,0,0,1-.295-.877q-.059-.335-.109.238" transform="translate(-194.444 -127.909)" fill="none" stroke="#ededed" stroke-width="2"/>
      <path id="パス_30331" data-name="パス 30331" d="M312.773,154.874a22.14,22.14,0,0,0-.083-3.624" transform="translate(-241.094 -117.442)" fill="none" stroke="#c5d989" stroke-width="2"/>
      <path id="パス_30332" data-name="パス 30332" d="M312.69,150.488l.024-.238" transform="translate(-241.094 -116.68)" fill="none" stroke="#d2e185" stroke-width="2"/>
      <path id="パス_30333" data-name="パス 30333" d="M220.482,42.539a.391.391,0,0,0,.34-.078.266.266,0,0,0,.081-.207q-.012-7.608-.014-15.219,0-3.959-.081-4.748a14.251,14.251,0,0,0-5.28-9.851A14.094,14.094,0,0,0,209.554,9.5a22.123,22.123,0,0,0-4.567-.354q-3.693,0-7.385.059a40.322,40.322,0,0,1-5.287-.233.6.6,0,0,0-.573.183q-.081.1.052.114a24.5,24.5,0,0,0,3.491.164q2-.048,2.022-.05l7.3-.021a23.881,23.881,0,0,1,4.5.337,13.5,13.5,0,0,1,4.983,2.079,14.351,14.351,0,0,1,3.441,3.248,14.8,14.8,0,0,1,3,9.034q.031,2.626.024,4.555-.007,2.34.012,4.553.036,4-.138,8.008" transform="translate(-148.862 -8.969)" fill="none" stroke="#f2f1f1" stroke-width="2"/>
      <path id="パス_30334" data-name="パス 30334" d="M303.589,111.915a39.813,39.813,0,0,0-2.8-10.165" transform="translate(-232.022 -79.704)" fill="none" stroke="#d2e185" stroke-width="2"/>
      <path id="パス_30335" data-name="パス 30335" d="M192.5,32.925A35.571,35.571,0,0,0,158.75,11.49" transform="translate(-123.732 -10.879)" fill="none" stroke="#e1eb80" stroke-width="2"/>
      <path id="パス_30336" data-name="パス 30336" d="M47.853,11.54a35.6,35.6,0,0,0-34.2,30.474q-.093.62-.162,2.013-.052,1.012-.2,2.017" transform="translate(-12.836 -10.929)" fill="none" stroke="#ecf090" stroke-width="2"/>
      <path id="パス_30337" data-name="パス 30337" d="M11.832,44.5q-.181-9.459-.1-18.919a24.512,24.512,0,0,1,.366-4.667,12.905,12.905,0,0,1,1.813-4.379A14.409,14.409,0,0,1,26.569,9.859q6.1-.059,12.209-.062.173,0,.185-.152a.1.1,0,0,0-.033-.082.135.135,0,0,0-.092-.034q-6.171.026-12.342-.01a14.611,14.611,0,0,0-10.172,3.723,14.374,14.374,0,0,0-4.586,7.867,23.032,23.032,0,0,0-.33,4.519V63.365q0,.019-.026,1.837a25.96,25.96,0,0,0,.145,3.241,15.084,15.084,0,0,0,2.122,6.187q.069.114.589.748a6.1,6.1,0,0,1,.542.8,11.259,11.259,0,0,0,.948,1.2,3.581,3.581,0,0,0,.623.525,2.667,2.667,0,0,1,.589.582.472.472,0,0,0,.173.147,3.18,3.18,0,0,1,.6.383q.535.432.651.506a12.327,12.327,0,0,0,3.208,1.421.512.512,0,0,1,.2.114,1.763,1.763,0,0,0,.817.378,23.45,23.45,0,0,0,5.451.489,19.647,19.647,0,0,1,2.421.121.55.55,0,0,1,.214.083l1.152.687" transform="translate(-11.378 -9.388)" fill="none" stroke="#ecefdc" stroke-width="2"/>
      <path id="パス_30338" data-name="パス 30338" d="M312.622,145.889l-.052-1.359" transform="translate(-241.002 -112.319)" fill="none" stroke="#c5d377" stroke-width="2"/>
      <path id="パス_30339" data-name="パス 30339" d="M13.29,156.75v2.257" transform="translate(-12.836 -121.635)" fill="none" stroke="#d8e06d" stroke-width="2"/>
      <path id="パス_30340" data-name="パス 30340" d="M13.037,166.25q-.074,2.257-.076,4.515-.01,7.6.014,15.207a14.1,14.1,0,0,0,4.85,11.063,14.566,14.566,0,0,0,11.009,3.59" transform="translate(-12.583 -128.878)" fill="none" stroke="#eaeed6" stroke-width="2"/>
      <path id="パス_30341" data-name="パス 30341" d="M79.574,310.92q-.145.24.055.242,16.661.2,33.325.074,2.611-.021,4.108.076" transform="translate(-63.323 -239.172)" fill="none" stroke="#bfc89d" stroke-width="2"/>
      <path id="パス_30342" data-name="パス 30342" d="M186.789,317.76a28.1,28.1,0,0,0-4.1,0" transform="translate(-141.984 -244.33)" fill="none" stroke="#ecefdc" stroke-width="2"/>
      <path id="パス_30343" data-name="パス 30343" d="M124.769,317.76a7.257,7.257,0,0,0-2.079,0" transform="translate(-96.241 -244.33)" fill="none" stroke="#eaeed9" stroke-width="2"/>
      <path id="パス_30344" data-name="パス 30344" d="M105.253,11.54q-.235.178.233.081a.4.4,0,0,1,.345.055q.1.086-.04.119a3.1,3.1,0,0,0-1.442.732q-1.946,1.823-5.791,5.584-.273.269-3.362,3.355Q91.98,24.68,88.58,27.688" transform="translate(-70.236 -10.929)" fill="none" stroke="#cedb11" stroke-width="2"/>
      <path id="パス_30345" data-name="パス 30345" d="M69.623,72.321q-.962-2.569-3.386-2.188a3.17,3.17,0,0,0-1.692.741,2.8,2.8,0,0,0,.558,4.4,3.534,3.534,0,0,0,1.35.4,2.282,2.282,0,0,1,1.091.326.757.757,0,0,1,.2,1.074,1.109,1.109,0,0,1-.753.551,1.2,1.2,0,0,1-1.518-.908.211.211,0,0,0-.157-.135,3.9,3.9,0,0,0-1.459,0,.138.138,0,0,0-.112.143,2.722,2.722,0,0,0,1.941,2.609" transform="translate(-51.279 -55.562)" fill="none" stroke="#7d7c1b" stroke-width="2"/>
      <path id="パス_30346" data-name="パス 30346" d="M27.622,109.04a1.19,1.19,0,0,1-.238.822q-3.524,3.376-6.974,6.822-.808.806-2.892,2.775-1.459,1.376-2.839,2.835a1.078,1.078,0,0,1-.195.119l-.375.2a.354.354,0,0,0-.109.195l-.209.715" transform="translate(-13.217 -85.262)" fill="none" stroke="#cedb11" stroke-width="2"/>
      <path id="パス_30347" data-name="パス 30347" d="M13.409,167.141l-.119-.891" transform="translate(-12.836 -128.878)" fill="none" stroke="#eaee8a" stroke-width="2"/>
      <path id="パス_30348" data-name="パス 30348" d="M268.427,101.7a.381.381,0,0,1-.53.031.218.218,0,0,0-.2-.036,2.619,2.619,0,0,0-.977.653q-.587.625-.606.642a14.91,14.91,0,0,0-1.148,1.2,6.6,6.6,0,0,1-.936.9q-.748.585-.991.82-2.35,2.274-4.7,4.567" transform="translate(-199.658 -79.652)" fill="none" stroke="#b4cd05" stroke-width="2"/>
      <path id="パス_30349" data-name="パス 30349" d="M231.618,133.2a4.818,4.818,0,0,0-2.559-1.587,4.742,4.742,0,0,0-2.842.245,4.32,4.32,0,0,0-2.5,2.393,4.824,4.824,0,0,0-.268,3.213,4.7,4.7,0,0,0,2.455,3" transform="translate(-172.936 -102.386)" fill="none" stroke="#73770b" stroke-width="2"/>
      <path id="パス_30350" data-name="パス 30350" d="M208.262,169.25a13.586,13.586,0,0,0-2.326,2.257,6.632,6.632,0,0,1-.943.927q-.782.637-1.007.848-1.913,1.808-3.835,3.6" transform="translate(-155.295 -131.165)" fill="none" stroke="#b4cd05" stroke-width="2"/>
      <path id="パス_30351" data-name="パス 30351" d="M89.029,195.39l.017-1.606a.251.251,0,0,0-.074-.18.255.255,0,0,0-.182-.074l-2.956.031a.134.134,0,0,0-.14.126l.033,1.262a.557.557,0,0,0,.093.3.232.232,0,0,0,.2.113q.47-.038.416.323-.048.314-.048.345-.021,1.806-.012,3.652a.1.1,0,0,1-.121.1,31.769,31.769,0,0,0-6.1-.378.189.189,0,0,1-.146-.061.184.184,0,0,1-.046-.15,4.8,4.8,0,0,0-.8-3.557,4.694,4.694,0,0,0-2.424-1.763,4.53,4.53,0,0,0-3.179.135,4.3,4.3,0,0,0-2.687,2.778,5.025,5.025,0,0,0,.454,4.163.106.106,0,0,1,.008.087.111.111,0,0,1-.06.065l-3.771,1.656a.609.609,0,0,1-.639-.081,19.637,19.637,0,0,0-4.177-2.768,8.177,8.177,0,0,0-4.035-.827.135.135,0,0,1-.143-.109,3,3,0,0,1,.235-1.91,2.779,2.779,0,0,1,1.381-1.314,3.038,3.038,0,0,1,3.312.561.138.138,0,0,0,.178-.014l1.048-.984a.217.217,0,0,0,.069-.15.188.188,0,0,0-.059-.145,4.846,4.846,0,0,0-3.4-1.324,4.405,4.405,0,0,0-4.111,2.455,4.877,4.877,0,0,0-.413,3.538.164.164,0,0,1-.074.176,4.118,4.118,0,0,0-2.022,2.569,7.63,7.63,0,0,0-.178,3.089,23.043,23.043,0,0,0,2.436,7.178" transform="translate(-44.174 -149.676)" fill="none" stroke="#73770b" stroke-width="2"/>
      <path id="パス_30352" data-name="パス 30352" d="M25.958,194.762a.59.59,0,0,1-.482-.214q-.211-.254-.223-.266a35.861,35.861,0,0,1-10.819-18.935A28.981,28.981,0,0,1,13.79,170" transform="translate(-13.217 -131.737)" fill="none" stroke="#dfe97a" stroke-width="2"/>
      <path id="パス_30353" data-name="パス 30353" d="M71.384,84.965a3.168,3.168,0,0,0,2.98-.532A2.768,2.768,0,0,0,75.393,82.2a2.623,2.623,0,0,0-1.528-2.343,3.729,3.729,0,0,0-1.39-.4,1.828,1.828,0,0,1-1-.335.77.77,0,0,1-.166-1.015,1.2,1.2,0,0,1,1.972-.219q.009.01.278.511.226.423.8.24a.4.4,0,0,1,.23-.007q1.041.271.734-.687" transform="translate(-56.979 -61.186)" fill="none" stroke="#73770b" stroke-width="2"/>
      <path id="パス_30354" data-name="パス 30354" d="M119.249,77.821l.245.646a.513.513,0,0,0,.437.368H121.4a.167.167,0,0,0,.138-.075.173.173,0,0,0,.017-.158l-3.731-9.322q-.064-.162-.128,0l-3.723,9.329a.165.165,0,0,0,.016.152.16.16,0,0,0,.133.071l1.556-.009a.182.182,0,0,0,.171-.109l.366-.853a.234.234,0,0,1,.214-.152l2.635.01a.187.187,0,0,1,.183.1" transform="translate(-89.587 -54.888)" fill="none" stroke="#73770b" stroke-width="2"/>
      <path id="パス_30355" data-name="パス 30355" d="M178.744,70.441a2.833,2.833,0,0,0-1.264-.518,28.8,28.8,0,0,0-3.773-.176.211.211,0,0,0-.207.211v9.072a.219.219,0,0,0,.219.219h1.362a.2.2,0,0,0,.2-.2V75.654a.215.215,0,0,1,.169-.209q.889-.2,1.11.347.67,1.654,1.419,3.274a.2.2,0,0,0,.169.128l1.694.036a.125.125,0,0,0,.107-.061.136.136,0,0,0,.007-.127l-1.735-3.7a.244.244,0,0,1,.112-.326,2.572,2.572,0,0,0,1.464-1.689,2.555,2.555,0,0,0-1.053-2.885" transform="translate(-134.977 -55.302)" fill="none" stroke="#73770b" stroke-width="2"/>
      <path id="パス_30356" data-name="パス 30356" d="M231.7,77.052a1.826,1.826,0,0,1-.606-1.659q.076-1.243-.04-5.479a.13.13,0,0,0-.121-.131l-1.556-.026a.117.117,0,0,0-.087.037.136.136,0,0,0-.036.093v4.748q0,1.777.012,1.87a2.682,2.682,0,0,0,.893,1.725,3.785,3.785,0,0,0,3.638.884,4.025,4.025,0,0,0,1.806-.943,2.657,2.657,0,0,0,.839-2.005V69.883a.133.133,0,0,0-.133-.133h-1.49a.219.219,0,0,0-.219.219v4.458q0,1.564-.021,1.692a1.43,1.43,0,0,1-1.362,1.288,1.969,1.969,0,0,1-1.516-.354" transform="translate(-177.48 -55.307)" fill="none" stroke="#73770b" stroke-width="2"/>
      <path id="パス_30357" data-name="パス 30357" d="M69.2,136.182a2.6,2.6,0,0,0,.718-2.733A2.625,2.625,0,0,0,69,132.135a2.748,2.748,0,0,0-1.566-.606q-1.751-.1-3.636-.057a.126.126,0,0,0-.124.126l.017,9.193a.122.122,0,0,0,.121.124q.948,0,1.956.04a7.68,7.68,0,0,0,1.6-.1,4.05,4.05,0,0,0,1.5-.523,2.577,2.577,0,0,0,1.065-2.977,1.48,1.48,0,0,0-.71-1.026.094.094,0,0,1-.046-.067.089.089,0,0,1,.024-.076" transform="translate(-51.252 -102.354)" fill="none" stroke="#73770b" stroke-width="2"/>
      <path id="パス_30358" data-name="パス 30358" d="M121.679,136.219a4.71,4.71,0,1,0-4.71,4.71,4.71,4.71,0,0,0,4.71-4.71" transform="translate(-88.289 -102.392)" fill="none" stroke="#73770b" stroke-width="2"/>
      <path id="パス_30359" data-name="パス 30359" d="M180.206,136.282q-.133-.048-.021-.135a2.306,2.306,0,0,0,.691-.8,2.165,2.165,0,0,0,.195-1,2.546,2.546,0,0,0-1.3-2.4,5.647,5.647,0,0,0-2.409-.463q-1.193-.038-2.485,0a.124.124,0,0,0-.121.124v9.136a.128.128,0,0,0,.119.128,20.483,20.483,0,0,0,3.564-.01,2.747,2.747,0,0,0,2.39-1.592,2.536,2.536,0,0,0,.252-1.255,3.065,3.065,0,0,0-.364-1.269.936.936,0,0,0-.506-.461" transform="translate(-135.93 -102.358)" fill="none" stroke="#73770b" stroke-width="2"/>
      <path id="パス_30360" data-name="パス 30360" d="M127.2,91.871l1.055.012a.155.155,0,0,0,.133-.076.182.182,0,0,0,.012-.162l-.478-1.219q-.14-.352-.28,0l-.516,1.3a.117.117,0,0,0,0,.1.079.079,0,0,0,.07.045" transform="translate(-99.614 -70.936)" fill="none" stroke="#73770b" stroke-width="2"/>
      <path id="パス_30361" data-name="パス 30361" d="M182.88,77.479a3.361,3.361,0,0,0-1.682,0,.16.16,0,0,0-.126.15l-.021,1.58a.188.188,0,0,0,.164.183,4.67,4.67,0,0,0,1.4.007,1.665,1.665,0,0,0,.993-.437.685.685,0,0,0,.024-1.015,1.374,1.374,0,0,0-.753-.463" transform="translate(-140.733 -61.117)" fill="none" stroke="#73770b" stroke-width="2"/>
      <path id="パス_30362" data-name="パス 30362" d="M268.517,149.59q-.029-.492-.406-.442a.349.349,0,0,1-.209-.045.321.321,0,0,0-.371.081,19.111,19.111,0,0,0-2.043,2.055.587.587,0,0,1-.219.15.677.677,0,0,0-.216.135q-3.842,3.816-7.687,7.63-.017.014-.337.375a2.7,2.7,0,0,1-.867.632q-.157.076-.133-.1.057-.38-.432-.48a2.07,2.07,0,0,0-.846.154" transform="translate(-196.921 -115.782)" fill="none" stroke="#98bb0f" stroke-width="2"/>
      <path id="パス_30363" data-name="パス 30363" d="M210.593,193.96l-.7.078a.128.128,0,0,0-.119.124l-.029,5.731q0,.356-.207.064l-4.066-5.8a.432.432,0,0,0-.356-.188l-1.312.012a.228.228,0,0,0-.223.23l.014,8.946a.31.31,0,0,0,.113.241.315.315,0,0,0,.26.066q.841-.159.763.121a2.407,2.407,0,0,1-.23.413.521.521,0,0,1-.575.269,1.393,1.393,0,0,1-.5-.266,22.763,22.763,0,0,0-6.53-3.331.055.055,0,0,1-.038-.052l-.029-4.733a.164.164,0,0,1,.109-.159,1.417,1.417,0,0,1,.68-.007" transform="translate(-152.764 -150.003)" fill="none" stroke="#646d10" stroke-width="2"/>
      <path id="パス_30364" data-name="パス 30364" d="M234.29,145.936a4.751,4.751,0,0,0,3.5.238,4.539,4.539,0,0,0,3.267-4.218A4.478,4.478,0,0,0,240,138.67" transform="translate(-181.323 -107.851)" fill="none" stroke="#646d10" stroke-width="2"/>
      <path id="パス_30365" data-name="パス 30365" d="M73.134,139.128a3.985,3.985,0,0,0-1.654-.081.266.266,0,0,0-.23.264v1.495a.266.266,0,0,0,.259.266,5.993,5.993,0,0,0,1.428-.109,1.534,1.534,0,0,0,.889-.468.655.655,0,0,0-.007-.922,1.339,1.339,0,0,0-.684-.444" transform="translate(-57.023 -108.102)" fill="none" stroke="#73770b" stroke-width="2"/>
      <path id="パス_30366" data-name="パス 30366" d="M73.172,155.09a3.623,3.623,0,0,0-1.72-.138.149.149,0,0,0-.131.138l-.021,1.637a.189.189,0,0,0,.171.185,4.649,4.649,0,0,0,1.775-.083,1.121,1.121,0,0,0,.625-.383.673.673,0,0,0,.069-.82,1.34,1.34,0,0,0-.767-.537" transform="translate(-57.062 -120.23)" fill="none" stroke="#73770b" stroke-width="2"/>
      <path id="パス_30367" data-name="パス 30367" d="M125.623,141.991a2.9,2.9,0,1,0-2.9,2.9,2.9,2.9,0,0,0,2.9-2.9" transform="translate(-94.053 -108.171)" fill="none" stroke="#73770b" stroke-width="2"/>
      <path id="パス_30368" data-name="パス 30368" d="M184.066,139.091a4.235,4.235,0,0,0-1.649-.071.181.181,0,0,0-.157.178l.01,1.668a.139.139,0,0,0,.124.135,4.453,4.453,0,0,0,1.792-.131,1.188,1.188,0,0,0,.649-.406.678.678,0,0,0,.045-.855,1.367,1.367,0,0,0-.813-.518" transform="translate(-141.656 -108.082)" fill="none" stroke="#73770b" stroke-width="2"/>
      <path id="パス_30369" data-name="パス 30369" d="M184.268,155.1a3.509,3.509,0,0,0-1.8-.162.148.148,0,0,0-.128.14l-.017,1.659a.162.162,0,0,0,.147.159,5.052,5.052,0,0,0,1.542-.024,1.465,1.465,0,0,0,.86-.444.65.65,0,0,0,.033-.874,1.28,1.28,0,0,0-.634-.454" transform="translate(-141.702 -120.214)" fill="none" stroke="#73770b" stroke-width="2"/>
      <path id="パス_30370" data-name="パス 30370" d="M236.583,142.011a2.9,2.9,0,1,0-2.9,2.9,2.9,2.9,0,0,0,2.9-2.9" transform="translate(-178.647 -108.187)" fill="none" stroke="#6b720d" stroke-width="2"/>
      <path id="パス_30371" data-name="パス 30371" d="M312.506,166.5l-.166,3.027" transform="translate(-240.827 -129.068)" fill="none" stroke="#b2c777" stroke-width="2"/>
      <path id="パス_30372" data-name="パス 30372" d="M288.607,179.24A36.668,36.668,0,0,1,281.21,197" transform="translate(-217.094 -138.781)" fill="none" stroke="#c3d886" stroke-width="2"/>
      <path id="パス_30373" data-name="パス 30373" d="M265.993,254a37.741,37.741,0,0,1-4.743,4.921" transform="translate(-201.877 -195.777)" fill="none" stroke="#b1c966" stroke-width="2"/>
      <path id="パス_30374" data-name="パス 30374" d="M256.294,213.147a27.374,27.374,0,0,0,1.5-6.708,7.934,7.934,0,0,0-.257-2.916,3.564,3.564,0,0,0-1.718-2.264.364.364,0,0,1-.185-.318l-.05-6.793a.138.138,0,0,0-.119-.143l-.718-.045" transform="translate(-196.921 -150.003)" fill="none" stroke="#566514" stroke-width="2"/>
      <path id="パス_30375" data-name="パス 30375" d="M251.5,311.377a.293.293,0,0,0,.3-.337" transform="translate(-194.444 -239.264)" fill="none" stroke="#c0c5ae" stroke-width="2"/>
      <path id="パス_30376" data-name="パス 30376" d="M252.75,210.558a14.218,14.218,0,0,0,10.826-4.985,13.69,13.69,0,0,0,3.315-7.371q.116-.9.185-4.745.126-7.112-.166-14.216" transform="translate(-195.397 -138.781)" fill="none" stroke="#ebebea" stroke-width="2"/>
      <path id="パス_30377" data-name="パス 30377" d="M65,274.21l.3.356" transform="translate(-52.259 -211.185)" fill="none" stroke="#8f8a84" stroke-width="2"/>
      <path id="パス_30378" data-name="パス 30378" d="M65.655,275.71q-.4.245.067.549a.549.549,0,0,1,.245.383,2.2,2.2,0,0,0,.691,1.371l.594.547a33.613,33.613,0,0,0,2.977,2.982q.5.411,2.923,1.951.021.014.226.114a.8.8,0,0,1,.392.475q.033.086-.057.069a.672.672,0,0,0-.394.055" transform="translate(-52.617 -212.328)" fill="none" stroke="#ecefd1" stroke-width="2"/>
      <path id="パス_30379" data-name="パス 30379" d="M84.221,311.048l-4.451-.128" transform="translate(-63.519 -239.172)" fill="none" stroke="#d1d6ba" stroke-width="2"/>
      <path id="パス_30380" data-name="パス 30380" d="M243.441,310.842l-2.9-.062" transform="translate(-186.088 -239.065)" fill="none" stroke="#d1d6bd" stroke-width="2"/>
      <path id="パス_30381" data-name="パス 30381" d="M240.54,267.492a31.5,31.5,0,0,0,5.893-6.064q.314-.423,1.053-1.711a12.708,12.708,0,0,1,1.138-1.663,8.555,8.555,0,0,0,.639-1.2,3.192,3.192,0,0,1,.34-.528,1.232,1.232,0,0,0,.278-.57,2.3,2.3,0,0,1,.169-.656q.326-.784.154-1.1" transform="translate(-186.088 -195.777)" fill="none" stroke="#eaeed9" stroke-width="2"/>
      <path id="パス_30382" data-name="パス 30382" d="M253.108,274.71a18.666,18.666,0,0,1-2.538,2.063" transform="translate(-193.735 -211.566)" fill="none" stroke="#7d7b67" stroke-width="2"/>
      <path id="パス_30383" data-name="パス 30383" d="M235.012,242.336a49.429,49.429,0,0,0,2.039-6.805,14.3,14.3,0,0,0,.309-1.915,7.212,7.212,0,0,0-.048-1.946,2.57,2.57,0,0,0-1.583-1.953,1.99,1.99,0,0,0-1.625,0,5.626,5.626,0,0,0-2.12,1.561q-.96,1.129-1.34,1.689a2.529,2.529,0,0,0,.119,3.117,13.255,13.255,0,0,1,2.336,7.482" transform="translate(-178.177 -177.129)" fill="none" stroke="#5e6a12" stroke-width="2"/>
      <path id="パス_30384" data-name="パス 30384" d="M237.244,288.55a4.593,4.593,0,0,1-1.644.927" transform="translate(-182.322 -222.118)" fill="none" stroke="#7d7b67" stroke-width="2"/>
      <path id="パス_30385" data-name="パス 30385" d="M192.449,252.493a7.471,7.471,0,0,1-.083-1.057,10.507,10.507,0,0,0-6.608-9.847A18.79,18.79,0,0,0,179,240.04" transform="translate(-139.171 -185.134)" fill="none" stroke="#656e0f" stroke-width="2"/>
      <path id="パス_30386" data-name="パス 30386" d="M114.281,239.424a33.714,33.714,0,0,0-11.615.775,13.771,13.771,0,0,0-5.123,2.319,8.57,8.57,0,0,0-3.281,5.57,18.427,18.427,0,0,0-.059,4.327" transform="translate(-74.451 -184.518)" fill="none" stroke="#6f750c" stroke-width="2"/>
      <path id="パス_30387" data-name="パス 30387" d="M93.356,294.138A.332.332,0,0,1,93,293.96" transform="translate(-73.605 -226.242)" fill="none" stroke="#807c62" stroke-width="2"/>
      <path id="パス_30388" data-name="パス 30388" d="M91.475,293.018A.356.356,0,0,0,91,292.74" transform="translate(-72.081 -225.3)" fill="none" stroke="#221715" stroke-width="2"/>
      <path id="パス_30389" data-name="パス 30389" d="M88.332,291.2l-.832-.494" transform="translate(-69.412 -223.764)" fill="none" stroke="#807c62" stroke-width="2"/>
      <path id="パス_30390" data-name="パス 30390" d="M67.857,239.993a11.121,11.121,0,0,1,1.041-6.755,10.569,10.569,0,0,1,2.07-2.823,10.931,10.931,0,0,1,2.9-2.041,21.222,21.222,0,0,1,5.121-1.694,36.54,36.54,0,0,1,4.717-.566,37.5,37.5,0,0,1,7.138.226,27.192,27.192,0,0,1,6.014,1.471q.375.138,1.711.516a.249.249,0,0,0,.219-.021q.131-.109-.116-.288a18.305,18.305,0,0,0-7.223-3.151,24.681,24.681,0,0,0-6.544-.309,26.119,26.119,0,0,0-9.017,2.224q-1.053.482-2.1.977a2.766,2.766,0,0,1-1.01.318,1.616,1.616,0,0,1-1.055-.375q-1.06-.846-2.153-1.647a10.914,10.914,0,0,0-2.847-1.506,5.243,5.243,0,0,0-1.934-.359,3.156,3.156,0,0,0-1.91.739,2.989,2.989,0,0,0-1.143,2.3,12.053,12.053,0,0,0,.794,4.538,41.465,41.465,0,0,0,3.415,7.045" transform="translate(-49.769 -173.047)" fill="none" stroke="#73770b" stroke-width="2"/>
      <path id="パス_30391" data-name="パス 30391" d="M69.389,278.1a29.6,29.6,0,0,1-3.139-2.386" transform="translate(-53.212 -212.328)" fill="none" stroke="#807c62" stroke-width="2"/>
      <path id="パス_30392" data-name="パス 30392" d="M135,202.294a2.611,2.611,0,0,0-2.2-.656,2.762,2.762,0,0,0-2.177,1.666,2.889,2.889,0,0,0,.392,3.148.279.279,0,0,0,.295.1,30.926,30.926,0,0,1,4.415-.848.185.185,0,0,0,.157-.124,2.816,2.816,0,0,0-.884-3.289" transform="translate(-102.063 -155.831)" fill="none" stroke="#73770b" stroke-width="2"/>
      <path id="パス_30393" data-name="パス 30393" d="M232.895,213.623a12.052,12.052,0,0,1,2.4-1.687.112.112,0,0,0,.057-.069.1.1,0,0,0-.014-.085l-2.4-3.472q-.076-.109-.076.021l-.057,5.251q0,.126.1.04" transform="translate(-180.187 -160.906)" fill="none" stroke="#5e6a12" stroke-width="2"/>
      <path id="パス_30394" data-name="パス 30394" d="M81.37,286.929l-1.91-1.179" transform="translate(-63.283 -219.983)" fill="none" stroke="#d0dc57" stroke-width="2"/>
      <path id="パス_30395" data-name="パス 30395" d="M244.433,283.39l-1.913,1.226" transform="translate(-187.597 -218.184)" fill="none" stroke="#b9ce63" stroke-width="2"/>
      <path id="パス_30396" data-name="パス 30396" d="M147.361,240.04q.219.128-.017.114a.186.186,0,0,0-.081.007.36.36,0,0,0-.261.271.394.394,0,0,1-.1.2q-.915.858-1.746,1.792-1.174,1.316-1.687,1.834-1.533,1.547-3.058,3.1a6.881,6.881,0,0,0-.777,1.043,4.826,4.826,0,0,1-.979,1.1,4.054,4.054,0,0,0-.594.606.181.181,0,0,0,0,.183q.045.1-.147.135-.209.036-.416.067" transform="translate(-107.532 -185.134)" fill="none" stroke="#b2cb06" stroke-width="2"/>
      <path id="パス_30397" data-name="パス 30397" d="M133.549,284.007q-1.63-.133-1.1,1.447" transform="translate(-103.58 -218.646)" fill="none" stroke="#6f750c" stroke-width="2"/>
      <path id="パス_30398" data-name="パス 30398" d="M121.322,290.13a20,20,0,0,0-2.787,2.685.365.365,0,0,0-.074.209q-.017.276-.321.116-.463-.242-.409.157" transform="translate(-92.456 -223.322)" fill="none" stroke="#b2cb06" stroke-width="2"/>
      <path id="パス_30399" data-name="パス 30399" d="M100.025,296.789a23.99,23.99,0,0,1-4.629-1.445.335.335,0,0,1-.162-.15.99.99,0,0,0-.734-.485" transform="translate(-74.749 -226.814)" fill="none" stroke="#cdda58" stroke-width="2"/>
      <path id="パス_30400" data-name="パス 30400" d="M191.29,292.45a.364.364,0,0,1-.245.268q-1.958.882-3.93,1.73a.511.511,0,0,0-.183.145,1.337,1.337,0,0,1-.715.423,34.136,34.136,0,0,1-3.745.813,15.237,15.237,0,0,0-2.21.487,5.035,5.035,0,0,1-1.19.178,5.414,5.414,0,0,0-1.592.309" transform="translate(-138.012 -225.091)" fill="none" stroke="#c0d261" stroke-width="2"/>
      <path id="パス_30401" data-name="パス 30401" d="M156.385,310.762a42.77,42.77,0,0,1-6.575,0" transform="translate(-116.917 -239.05)" fill="none" stroke="#a7ba45" stroke-width="2"/>
      <path id="パス_30402" data-name="パス 30402" d="M125.368,305.195a5.668,5.668,0,0,0-2.153-.307.367.367,0,0,1-.211-.064,1.369,1.369,0,0,0-.739-.166,16.482,16.482,0,0,1-2.55-.547q-.05-.012-.373-.033a.464.464,0,0,1-.356-.195.354.354,0,0,0-.178-.133l-1.057-.29" transform="translate(-92.474 -233.485)" fill="none" stroke="#c2d35c" stroke-width="2"/>
      <path id="パス_30403" data-name="パス 30403" d="M132.86,285.487q1.7.908,1.6-.832a.576.576,0,0,0-.147-.375,1.009,1.009,0,0,0-.347-.24" transform="translate(-103.994 -218.679)" fill="none" stroke="#656e0f" stroke-width="2"/>
      <path id="パス_30404" data-name="パス 30404" d="M160.9,286.25a.5.5,0,0,0-.406.535.739.739,0,0,0,.535.841" transform="translate(-125.061 -220.364)" fill="none" stroke="#99bc0e" stroke-width="2"/>
      <path id="パス_30405" data-name="パス 30405" d="M162.75,291.659q.668.663,1.129-.119" transform="translate(-126.782 -224.397)" fill="none" stroke="#99bc0e" stroke-width="2"/>
      <path id="パス_30406" data-name="パス 30406" d="M163.467,286.7q.57-.872-.133-1.362a.92.92,0,0,0-1.124.1" transform="translate(-126.37 -219.556)" fill="none" stroke="#656e0f" stroke-width="2"/>
      <path id="パス_30407" data-name="パス 30407" d="M164.069,291.54a1.737,1.737,0,0,1-1.069.1" transform="translate(-126.972 -224.397)" fill="none" stroke="#566514" stroke-width="2"/>
      <path id="パス_30408" data-name="パス 30408" d="M161.912,287.607a1.1,1.1,0,0,1-.188-1.357" transform="translate(-125.885 -220.364)" fill="none" stroke="#566514" stroke-width="2"/>
      <path id="パス_30409" data-name="パス 30409" d="M162.809,291.96l-.059.019" transform="translate(-126.782 -224.717)" fill="none" stroke="#8ab313" stroke-width="2"/>
      <path id="パス_30410" data-name="パス 30410" d="M193.817,286.288a.848.848,0,1,0-.848.848.848.848,0,0,0,.848-.848" transform="translate(-149.173 -219.746)" fill="none" stroke="#656e0f" stroke-width="2"/>
      <path id="パス_30411" data-name="パス 30411" d="M192.464,310.772q-7.425.268-14.984,0" transform="translate(-138.012 -239.058)" fill="none" stroke="#bfc89d" stroke-width="2"/>
      <path id="パス_30412" data-name="パス 30412" d="M91,292.79a.581.581,0,0,0,.475.278" transform="translate(-72.081 -225.35)" fill="none" stroke="#807c62" stroke-width="2"/>
      <path id="パス_30413" data-name="パス 30413" d="M110.692,310.76l-12.192.166" transform="translate(-77.799 -239.05)" fill="none" stroke="#c2c998" stroke-width="2"/>
    </g>
    <path id="パス_30415" data-name="パス 30415" d="M220.482,42.539l-.052-1.359q.173-4,.138-8.008-.019-2.212-.012-4.553.007-1.929-.024-4.555a14.8,14.8,0,0,0-3-9.034,14.351,14.351,0,0,0-3.441-3.248A13.5,13.5,0,0,0,209.112,9.7a23.881,23.881,0,0,0-4.5-.337l-7.3.021q-.024,0-2.022.05a24.5,24.5,0,0,1-3.491-.164q-.133-.017-.052-.114a.6.6,0,0,1,.573-.183,40.322,40.322,0,0,0,5.287.233q3.693-.055,7.385-.059a22.123,22.123,0,0,1,4.567.354,14.094,14.094,0,0,1,5.974,2.932,14.251,14.251,0,0,1,5.28,9.851q.081.789.081,4.748,0,7.611.014,15.219a.266.266,0,0,1-.081.207A.391.391,0,0,1,220.482,42.539Z" transform="translate(-137.484)" fill="#e4e3e3"/>
    <path id="パス_30416" data-name="パス 30416" d="M11.832,44.5V46.76q-.074,2.257-.076,4.515-.01,7.6.014,15.207a14.1,14.1,0,0,0,4.85,11.063,14.566,14.566,0,0,0,11.009,3.59q-.145.24.055.242,16.662.2,33.325.074,2.611-.021,4.108.076-1.656.326-3.322.58a6.92,6.92,0,0,1-.95,0,1.357,1.357,0,0,0-1.281.71l-3.381,0a28.094,28.094,0,0,0-4.1,0H39.906a7.256,7.256,0,0,0-2.079,0h-6l-1.152-.687a.55.55,0,0,0-.214-.083,19.647,19.647,0,0,0-2.421-.121,23.45,23.45,0,0,1-5.451-.489,1.763,1.763,0,0,1-.817-.378.512.512,0,0,0-.2-.114,12.327,12.327,0,0,1-3.208-1.421q-.116-.074-.651-.506a3.18,3.18,0,0,0-.6-.383.472.472,0,0,1-.173-.147,2.667,2.667,0,0,0-.589-.582,3.581,3.581,0,0,1-.623-.525,11.259,11.259,0,0,1-.948-1.2,6.1,6.1,0,0,0-.542-.8q-.52-.634-.589-.748a15.084,15.084,0,0,1-2.122-6.187,25.96,25.96,0,0,1-.145-3.241q.026-1.818.026-1.837V25.629a23.032,23.032,0,0,1,.33-4.519,14.374,14.374,0,0,1,4.586-7.867A14.611,14.611,0,0,1,26.5,9.519q6.171.036,12.342.01a.135.135,0,0,1,.092.034.1.1,0,0,1,.033.082q-.012.152-.185.152-6.1,0-12.209.062a14.409,14.409,0,0,0-12.653,6.679A12.905,12.905,0,0,0,12.1,20.917a24.512,24.512,0,0,0-.366,4.667Q11.651,35.044,11.832,44.5Z" transform="translate(0 -0.419)" fill="#d8dfb8"/>
    <path id="パス_30417" data-name="パス 30417" d="M47.853,11.54q-.235.178.233.081a.4.4,0,0,1,.345.055q.1.086-.04.119a3.1,3.1,0,0,0-1.442.732Q45,14.349,41.157,18.11q-.273.269-3.362,3.355Q34.58,24.68,31.18,27.688q-.962-2.569-3.386-2.188a3.17,3.17,0,0,0-1.692.741,2.8,2.8,0,0,0,.558,4.4,3.533,3.533,0,0,0,1.35.4,2.282,2.282,0,0,1,1.091.326.757.757,0,0,1,.2,1.074,1.109,1.109,0,0,1-.753.551,1.2,1.2,0,0,1-1.518-.908.211.211,0,0,0-.157-.135,3.9,3.9,0,0,0-1.459,0,.138.138,0,0,0-.112.143,2.722,2.722,0,0,0,1.941,2.609A1.19,1.19,0,0,1,27,35.53q-3.524,3.376-6.974,6.822-.808.806-2.892,2.775Q15.678,46.5,14.3,47.961a1.078,1.078,0,0,1-.195.119l-.375.2a.354.354,0,0,0-.109.195l-.209.715L13.29,48.3V46.044q.152-1.005.2-2.017.069-1.392.162-2.013a35.6,35.6,0,0,1,34.2-30.474Z" transform="translate(-1.458 -1.96)" fill="#d8e021"/>
    <path id="パス_30418" data-name="パス 30418" d="M48.235,11.49A35.571,35.571,0,0,1,81.985,32.925a.381.381,0,0,1-.53.031.218.218,0,0,0-.2-.036,2.619,2.619,0,0,0-.977.653q-.587.625-.606.642a14.907,14.907,0,0,0-1.148,1.2,6.6,6.6,0,0,1-.936.9q-.748.585-.991.82Q74.246,39.4,71.9,41.7a4.818,4.818,0,0,0-2.559-1.587,4.742,4.742,0,0,0-2.842.245A4.32,4.32,0,0,0,64,42.748a4.824,4.824,0,0,0-.269,3.213,4.7,4.7,0,0,0,2.455,3,13.586,13.586,0,0,0-2.326,2.257,6.631,6.631,0,0,1-.943.927q-.782.637-1.007.848-1.913,1.808-3.835,3.6l.017-1.606a.251.251,0,0,0-.074-.18.255.255,0,0,0-.182-.074l-2.956.031a.134.134,0,0,0-.14.126l.033,1.262a.557.557,0,0,0,.093.3.232.232,0,0,0,.2.113q.47-.038.416.323-.048.314-.048.345-.021,1.806-.012,3.652a.1.1,0,0,1-.121.1,31.769,31.769,0,0,0-6.1-.378.189.189,0,0,1-.146-.061.184.184,0,0,1-.046-.15,4.8,4.8,0,0,0-.8-3.557,4.694,4.694,0,0,0-2.424-1.763,4.53,4.53,0,0,0-3.179.135,4.3,4.3,0,0,0-2.687,2.778,5.025,5.025,0,0,0,.454,4.163.106.106,0,0,1,.008.087.111.111,0,0,1-.06.065l-3.771,1.656a.609.609,0,0,1-.639-.081,19.638,19.638,0,0,0-4.177-2.768,8.177,8.177,0,0,0-4.035-.827.135.135,0,0,1-.143-.109,3,3,0,0,1,.235-1.91,2.779,2.779,0,0,1,1.381-1.314,3.037,3.037,0,0,1,3.312.561.138.138,0,0,0,.178-.014l1.048-.984a.217.217,0,0,0,.069-.15.188.188,0,0,0-.059-.145,4.846,4.846,0,0,0-3.4-1.324,4.405,4.405,0,0,0-4.111,2.455,4.877,4.877,0,0,0-.413,3.538.164.164,0,0,1-.074.176A4.118,4.118,0,0,0,23.7,63.637a7.63,7.63,0,0,0-.178,3.089A23.043,23.043,0,0,0,25.958,73.9a.59.59,0,0,1-.482-.214q-.211-.254-.223-.266A35.861,35.861,0,0,1,14.434,54.489a28.981,28.981,0,0,1-.644-5.346L14,48.427a.354.354,0,0,1,.109-.195l.375-.2a1.078,1.078,0,0,0,.195-.119q1.381-1.459,2.839-2.835Q19.6,43.107,20.41,42.3q3.45-3.445,6.974-6.822a1.19,1.19,0,0,0,.238-.822,3.168,3.168,0,0,0,2.98-.532A2.768,2.768,0,0,0,31.63,31.9,2.623,2.623,0,0,0,30.1,29.553a3.729,3.729,0,0,0-1.39-.4,1.828,1.828,0,0,1-1-.335.77.77,0,0,1-.166-1.015,1.2,1.2,0,0,1,1.972-.219q.01.01.278.511.226.423.8.24a.4.4,0,0,1,.23-.007q1.041.271.734-.687,3.4-3.008,6.615-6.223,3.089-3.087,3.362-3.355,3.845-3.761,5.791-5.584a3.1,3.1,0,0,1,1.442-.732q.143-.033.04-.119a.4.4,0,0,0-.345-.055Q48,11.668,48.235,11.49ZM42.879,33.811l.245.646a.513.513,0,0,0,.437.368h1.471a.167.167,0,0,0,.138-.075.173.173,0,0,0,.017-.158l-3.731-9.322q-.064-.162-.128,0L37.6,34.6a.166.166,0,0,0,.016.152.16.16,0,0,0,.133.071l1.556-.01a.182.182,0,0,0,.171-.109l.366-.853a.234.234,0,0,1,.214-.152l2.635.01a.187.187,0,0,1,.183.1Zm14.1-7.794a2.833,2.833,0,0,0-1.264-.518,28.8,28.8,0,0,0-3.773-.176.211.211,0,0,0-.207.211v9.072a.219.219,0,0,0,.219.219h1.362a.2.2,0,0,0,.2-.2V31.231a.215.215,0,0,1,.169-.209q.889-.2,1.11.347.67,1.654,1.419,3.274a.2.2,0,0,0,.169.128l1.694.036a.125.125,0,0,0,.107-.061.136.136,0,0,0,.007-.127l-1.735-3.7a.244.244,0,0,1,.112-.326A2.572,2.572,0,0,0,58.036,28.9a2.554,2.554,0,0,0-1.053-2.885Zm10.45,6.606a1.826,1.826,0,0,1-.606-1.659q.076-1.243-.04-5.479a.13.13,0,0,0-.121-.131l-1.556-.026a.117.117,0,0,0-.087.037.136.136,0,0,0-.036.093q0,2.367,0,4.748,0,1.777.012,1.87a2.682,2.682,0,0,0,.893,1.725,3.785,3.785,0,0,0,3.638.884,4.025,4.025,0,0,0,1.806-.943,2.657,2.657,0,0,0,.839-2.005V25.455a.133.133,0,0,0-.133-.133h-1.49a.219.219,0,0,0-.219.219V30q0,1.564-.021,1.692a1.43,1.43,0,0,1-1.362,1.288A1.969,1.969,0,0,1,67.434,32.623ZM31.167,44.706a2.6,2.6,0,0,0,.718-2.733,2.625,2.625,0,0,0-.915-1.314,2.748,2.748,0,0,0-1.566-.606q-1.751-.1-3.635-.057a.126.126,0,0,0-.124.126l.017,9.193a.122.122,0,0,0,.121.124q.948,0,1.956.04a7.678,7.678,0,0,0,1.6-.1,4.05,4.05,0,0,0,1.5-.523A2.577,2.577,0,0,0,31.9,45.875a1.48,1.48,0,0,0-.71-1.026.094.094,0,0,1-.046-.067A.089.089,0,0,1,31.167,44.706Zm15.44,0a4.71,4.71,0,1,0-4.71,4.71A4.71,4.71,0,0,0,46.607,44.706Zm10.885.1q-.133-.048-.021-.135a2.306,2.306,0,0,0,.691-.8,2.165,2.165,0,0,0,.195-1,2.546,2.546,0,0,0-1.3-2.4,5.647,5.647,0,0,0-2.409-.463q-1.193-.038-2.485,0a.124.124,0,0,0-.121.124v9.136a.128.128,0,0,0,.119.128,20.483,20.483,0,0,0,3.564-.009,2.747,2.747,0,0,0,2.39-1.592,2.536,2.536,0,0,0,.252-1.255A3.065,3.065,0,0,0,58,45.264.936.936,0,0,0,57.492,44.8Z" transform="translate(-1.839 -1.91)" fill="#c3d600"/>
    <path id="パス_30419" data-name="パス 30419" d="M119.066,77.718l-2.635-.01a.234.234,0,0,0-.214.152l-.366.853a.182.182,0,0,1-.171.109l-1.556.009a.16.16,0,0,1-.133-.071.165.165,0,0,1-.016-.152l3.723-9.329q.064-.162.128,0l3.731,9.322a.173.173,0,0,1-.017.158.167.167,0,0,1-.138.075h-1.471a.513.513,0,0,1-.437-.368l-.245-.646a.187.187,0,0,0-.183-.1Zm-1.9-1.9,1.055.012a.155.155,0,0,0,.133-.076.182.182,0,0,0,.012-.162l-.478-1.219q-.14-.352-.28,0l-.516,1.3a.117.117,0,0,0,0,.1A.079.079,0,0,0,117.17,75.822Z" transform="translate(-78.209 -45.92)" fill="#221715"/>
    <path id="パス_30420" data-name="パス 30420" d="M178.744,70.441a2.627,2.627,0,0,1-.411,4.574.244.244,0,0,0-.112.326l1.735,3.7a.136.136,0,0,1-.007.127.125.125,0,0,1-.107.061l-1.694-.036a.2.2,0,0,1-.169-.128q-.748-1.621-1.419-3.274-.221-.549-1.11-.347a.215.215,0,0,0-.169.209v3.393a.2.2,0,0,1-.2.2h-1.362a.219.219,0,0,1-.219-.219V69.959a.211.211,0,0,1,.207-.211,28.8,28.8,0,0,1,3.773.176A2.833,2.833,0,0,1,178.744,70.441Zm-1.621,1.224a3.361,3.361,0,0,0-1.682,0,.16.16,0,0,0-.126.15l-.021,1.58a.188.188,0,0,0,.164.183,4.67,4.67,0,0,0,1.4.007,1.665,1.665,0,0,0,.993-.437.685.685,0,0,0,.024-1.015A1.374,1.374,0,0,0,177.124,71.665Z" transform="translate(-123.6 -46.334)" fill="#221715"/>
    <path id="パス_30421" data-name="パス 30421" d="M233.213,77.406a1.43,1.43,0,0,0,1.362-1.288q.021-.128.021-1.692V69.969a.219.219,0,0,1,.219-.219h1.49a.133.133,0,0,1,.133.133v6.283a2.657,2.657,0,0,1-.839,2.005,4.025,4.025,0,0,1-1.806.943,3.785,3.785,0,0,1-3.638-.884,2.682,2.682,0,0,1-.893-1.725q-.012-.093-.012-1.87V69.888a.136.136,0,0,1,.036-.093.117.117,0,0,1,.087-.037l1.556.026a.13.13,0,0,1,.121.131q.116,4.237.04,5.479a1.826,1.826,0,0,0,.606,1.659A1.969,1.969,0,0,0,233.213,77.406Z" transform="translate(-166.103 -46.339)" fill="#221715"/>
    <path id="パス_30422" data-name="パス 30422" d="M69.623,72.321q.307.958-.734.687a.4.4,0,0,0-.23.007q-.573.183-.8-.24-.269-.5-.278-.511a1.2,1.2,0,0,0-1.972.219.77.77,0,0,0,.166,1.015,1.828,1.828,0,0,0,1,.335,3.729,3.729,0,0,1,1.39.4,2.623,2.623,0,0,1,1.528,2.343,2.768,2.768,0,0,1-1.029,2.229,3.168,3.168,0,0,1-2.98.532,2.722,2.722,0,0,1-1.941-2.609.138.138,0,0,1,.112-.143,3.9,3.9,0,0,1,1.459,0,.211.211,0,0,1,.157.135,1.2,1.2,0,0,0,1.518.908,1.109,1.109,0,0,0,.753-.551.757.757,0,0,0-.2-1.074,2.282,2.282,0,0,0-1.091-.326,3.534,3.534,0,0,1-1.35-.4,2.8,2.8,0,0,1-.558-4.4,3.17,3.17,0,0,1,1.692-.741Q68.661,69.753,69.623,72.321Z" transform="translate(-39.901 -46.593)" fill="#221715"/>
    <path id="パス_30423" data-name="パス 30423" d="M183.633,77.943a.685.685,0,0,1-.024,1.015,1.665,1.665,0,0,1-.993.437,4.67,4.67,0,0,1-1.4-.007.188.188,0,0,1-.164-.183l.021-1.58a.16.16,0,0,1,.126-.15,3.361,3.361,0,0,1,1.682,0A1.374,1.374,0,0,1,183.633,77.943Z" transform="translate(-129.356 -52.148)" fill="#c3d600"/>
    <path id="パス_30424" data-name="パス 30424" d="M127.2,91.871a.079.079,0,0,1-.07-.045.117.117,0,0,1,0-.1l.516-1.3q.14-.352.28,0l.478,1.219a.182.182,0,0,1-.012.162.155.155,0,0,1-.133.076Z" transform="translate(-88.237 -61.968)" fill="#c3d600"/>
    <path id="パス_30425" data-name="パス 30425" d="M221.532,101.7a39.812,39.812,0,0,1,2.8,10.165l.052,1.359-.024.238q-.028-.492-.406-.442a.349.349,0,0,1-.209-.045.321.321,0,0,0-.371.081,19.11,19.11,0,0,0-2.043,2.055.586.586,0,0,1-.219.15.677.677,0,0,0-.216.135q-3.842,3.816-7.687,7.63-.017.014-.337.375a2.7,2.7,0,0,1-.867.632q-.157.076-.133-.1.057-.38-.432-.48a2.07,2.07,0,0,0-.846.154l-.7.078a.128.128,0,0,0-.119.124l-.029,5.731q0,.356-.207.064l-4.066-5.8a.432.432,0,0,0-.356-.188l-1.312.012a.228.228,0,0,0-.223.23l.014,8.946a.31.31,0,0,0,.113.241.315.315,0,0,0,.26.066q.841-.159.763.121a2.408,2.408,0,0,1-.23.413.521.521,0,0,1-.575.268,1.393,1.393,0,0,1-.5-.266,22.763,22.763,0,0,0-6.53-3.331.055.055,0,0,1-.038-.052l-.029-4.733a.164.164,0,0,1,.109-.159,1.417,1.417,0,0,1,.68-.007q1.922-1.789,3.835-3.6.226-.211,1.007-.848a6.63,6.63,0,0,0,.943-.927,13.586,13.586,0,0,1,2.326-2.257,4.751,4.751,0,0,0,3.5.238,4.539,4.539,0,0,0,3.267-4.218,4.478,4.478,0,0,0-1.048-3.286q2.348-2.293,4.7-4.567.242-.235.991-.82a6.6,6.6,0,0,0,.936-.9,14.907,14.907,0,0,1,1.148-1.2q.019-.017.606-.642a2.619,2.619,0,0,1,.977-.653.218.218,0,0,1,.2.036A.381.381,0,0,0,221.532,101.7Z" transform="translate(-141.386 -70.683)" fill="#a5c30a"/>
    <path id="パス_30426" data-name="パス 30426" d="M69.224,136.324a1.48,1.48,0,0,1,.71,1.026,2.577,2.577,0,0,1-1.065,2.977,4.05,4.05,0,0,1-1.5.523,7.679,7.679,0,0,1-1.6.1q-1.007-.04-1.956-.04a.122.122,0,0,1-.121-.124L63.68,131.6a.126.126,0,0,1,.124-.126q1.884-.04,3.635.057a2.748,2.748,0,0,1,1.566.606,2.625,2.625,0,0,1,.915,1.314,2.6,2.6,0,0,1-.718,2.733.089.089,0,0,0-.024.076A.094.094,0,0,0,69.224,136.324Zm-1.861-2.944a3.985,3.985,0,0,0-1.654-.081.266.266,0,0,0-.23.264v1.495a.266.266,0,0,0,.259.266,5.993,5.993,0,0,0,1.428-.109,1.534,1.534,0,0,0,.889-.468.655.655,0,0,0-.007-.922A1.339,1.339,0,0,0,67.363,133.38Zm0,3.835a3.623,3.623,0,0,0-1.72-.138.149.149,0,0,0-.131.138l-.021,1.637a.189.189,0,0,0,.171.185,4.648,4.648,0,0,0,1.775-.083,1.122,1.122,0,0,0,.625-.383.673.673,0,0,0,.069-.82A1.34,1.34,0,0,0,67.363,137.215Z" transform="translate(-39.875 -93.386)" fill="#221715"/>
    <path id="パス_30427" data-name="パス 30427" d="M121.679,136.219a4.71,4.71,0,1,1-4.71-4.71A4.71,4.71,0,0,1,121.679,136.219Zm-1.82-.007a2.9,2.9,0,1,0-2.9,2.9A2.9,2.9,0,0,0,119.859,136.212Z" transform="translate(-76.911 -93.424)" fill="#221715"/>
    <path id="パス_30428" data-name="パス 30428" d="M180.206,136.282a.936.936,0,0,1,.506.461,3.065,3.065,0,0,1,.364,1.269,2.536,2.536,0,0,1-.252,1.255,2.747,2.747,0,0,1-2.39,1.592,20.483,20.483,0,0,1-3.564.01.128.128,0,0,1-.119-.128V131.6a.124.124,0,0,1,.121-.124q1.293-.033,2.485,0a5.647,5.647,0,0,1,2.409.463,2.546,2.546,0,0,1,1.3,2.4,2.164,2.164,0,0,1-.195,1,2.306,2.306,0,0,1-.691.8Q180.073,136.235,180.206,136.282Zm-1.865-2.916a4.234,4.234,0,0,0-1.649-.071.181.181,0,0,0-.157.178l.009,1.668a.139.139,0,0,0,.124.135,4.453,4.453,0,0,0,1.792-.131,1.188,1.188,0,0,0,.649-.406.678.678,0,0,0,.045-.855A1.367,1.367,0,0,0,178.34,133.367Zm.157,3.875a3.509,3.509,0,0,0-1.8-.162.148.148,0,0,0-.128.14l-.017,1.659a.162.162,0,0,0,.147.159,5.052,5.052,0,0,0,1.542-.024,1.465,1.465,0,0,0,.86-.444.65.65,0,0,0,.033-.874A1.28,1.28,0,0,0,178.5,137.242Z" transform="translate(-124.553 -93.389)" fill="#221715"/>
    <path id="パス_30429" data-name="パス 30429" d="M231.618,133.2a4.478,4.478,0,0,1,1.048,3.286,4.539,4.539,0,0,1-3.267,4.218,4.751,4.751,0,0,1-3.5-.238,4.7,4.7,0,0,1-2.455-3,4.824,4.824,0,0,1,.268-3.213,4.32,4.32,0,0,1,2.5-2.393,4.742,4.742,0,0,1,2.842-.245A4.818,4.818,0,0,1,231.618,133.2Zm-.746,3.006a2.9,2.9,0,1,0-2.9,2.9A2.9,2.9,0,0,0,230.872,136.211Z" transform="translate(-161.558 -93.417)" fill="#221715"/>
    <path id="パス_30430" data-name="パス 30430" d="M73.819,139.572a.655.655,0,0,1,.007.922,1.534,1.534,0,0,1-.889.468,5.993,5.993,0,0,1-1.428.109.266.266,0,0,1-.259-.266v-1.495a.266.266,0,0,1,.23-.264,3.985,3.985,0,0,1,1.654.081A1.339,1.339,0,0,1,73.819,139.572Z" transform="translate(-45.646 -99.134)" fill="#c3d600"/>
    <circle id="楕円形_293" data-name="楕円形 293" cx="2.901" cy="2.901" r="2.901" transform="translate(37.145 39.887)" fill="#c3d600"/>
    <path id="パス_30431" data-name="パス 30431" d="M184.878,139.609a.678.678,0,0,1-.045.855,1.188,1.188,0,0,1-.649.406,4.453,4.453,0,0,1-1.792.131.139.139,0,0,1-.124-.135l-.01-1.668a.181.181,0,0,1,.157-.178,4.235,4.235,0,0,1,1.649.071A1.367,1.367,0,0,1,184.878,139.609Z" transform="translate(-130.278 -99.113)" fill="#c3d600"/>
    <circle id="楕円形_294" data-name="楕円形 294" cx="2.901" cy="2.901" r="2.901" transform="translate(63.511 39.892)" fill="#b3cc05"/>
    <path id="パス_30432" data-name="パス 30432" d="M268.517,149.59a22.136,22.136,0,0,1,.083,3.624l-.166,3.027a36.668,36.668,0,0,1-7.4,17.764,37.739,37.739,0,0,1-4.743,4.921,27.374,27.374,0,0,0,1.5-6.708,7.934,7.934,0,0,0-.257-2.916,3.564,3.564,0,0,0-1.718-2.264.364.364,0,0,1-.185-.318l-.05-6.793a.138.138,0,0,0-.119-.143l-.718-.045a2.07,2.07,0,0,1,.846-.154q.489.1.432.48-.024.173.133.1a2.7,2.7,0,0,0,.867-.632q.321-.361.337-.375,3.845-3.814,7.687-7.63a.677.677,0,0,1,.216-.135.587.587,0,0,0,.219-.15,19.111,19.111,0,0,1,2.043-2.055.321.321,0,0,1,.371-.081.349.349,0,0,0,.209.045Q268.489,149.1,268.517,149.59Z" transform="translate(-185.544 -106.814)" fill="#8ab313"/>
    <path id="パス_30433" data-name="パス 30433" d="M73.94,155.627a.673.673,0,0,1-.069.82,1.121,1.121,0,0,1-.625.383,4.649,4.649,0,0,1-1.775.083.189.189,0,0,1-.171-.185l.021-1.637a.149.149,0,0,1,.131-.138,3.623,3.623,0,0,1,1.72.138A1.34,1.34,0,0,1,73.94,155.627Z" transform="translate(-45.684 -111.261)" fill="#c3d600"/>
    <path id="パス_30434" data-name="パス 30434" d="M184.9,155.553a.65.65,0,0,1-.033.874,1.465,1.465,0,0,1-.86.444,5.052,5.052,0,0,1-1.542.024.162.162,0,0,1-.147-.159l.017-1.659a.148.148,0,0,1,.128-.14,3.509,3.509,0,0,1,1.8.162A1.28,1.28,0,0,1,184.9,155.553Z" transform="translate(-130.324 -111.246)" fill="#c3d600"/>
    <path id="パス_30435" data-name="パス 30435" d="M251.5,200.023a.293.293,0,0,0,.3-.337,14.218,14.218,0,0,0,10.826-4.985,13.69,13.69,0,0,0,3.315-7.371q.116-.9.185-4.745.126-7.112-.166-14.216l.166-3.027q.05-.573.109-.238a5.047,5.047,0,0,0,.295.877,2.016,2.016,0,0,1,.15.891q-.183,2.811-.207,4.945-.057,5.128.059,11.881a25.734,25.734,0,0,1-.192,3.324,14.368,14.368,0,0,1-2.084,6.028,18.146,18.146,0,0,1-2.264,3.006,9.31,9.31,0,0,1-2.027,1.585q-.877.509-2.274,1.152A13.5,13.5,0,0,1,251.5,200.023Z" transform="translate(-183.066 -118.941)" fill="#dadada"/>
    <path id="パス_30436" data-name="パス 30436" d="M13.037,166.25l.119.891a28.981,28.981,0,0,0,.644,5.346,35.861,35.861,0,0,0,10.819,18.935q.012.012.223.266a.59.59,0,0,0,.482.214l.3.356q-.4.245.067.549a.549.549,0,0,1,.245.383,2.2,2.2,0,0,0,.691,1.371l.594.547A33.613,33.613,0,0,0,30.2,198.09q.5.411,2.923,1.951.021.014.226.114a.8.8,0,0,1,.392.475q.033.086-.057.069a.672.672,0,0,0-.394.055l-4.451-.128a14.566,14.566,0,0,1-11.009-3.59,14.1,14.1,0,0,1-4.85-11.063q-.024-7.6-.014-15.207Q12.964,168.507,13.037,166.25Z" transform="translate(-1.205 -119.909)" fill="#fbfcf3"/>
    <path id="パス_30437" data-name="パス 30437" d="M257.6,179.24q.292,7.1.166,14.216-.069,3.849-.185,4.745a13.69,13.69,0,0,1-3.315,7.371,14.218,14.218,0,0,1-10.826,4.985l-2.9-.062a31.5,31.5,0,0,0,5.893-6.064q.314-.423,1.053-1.711a12.71,12.71,0,0,1,1.138-1.663,8.553,8.553,0,0,0,.639-1.2,3.192,3.192,0,0,1,.34-.527,1.232,1.232,0,0,0,.278-.57,2.3,2.3,0,0,1,.169-.656q.326-.784.154-1.1A36.668,36.668,0,0,0,257.6,179.24Z" transform="translate(-174.71 -129.813)" fill="#fbfcf9"/>
    <path id="パス_30438" data-name="パス 30438" d="M89.029,195.39a1.417,1.417,0,0,0-.68.007.164.164,0,0,0-.109.159l.029,4.733a.055.055,0,0,0,.038.052,22.763,22.763,0,0,1,6.53,3.331,1.393,1.393,0,0,0,.5.266.521.521,0,0,0,.575-.269,2.407,2.407,0,0,0,.23-.413q.078-.28-.763-.121a.315.315,0,0,1-.26-.066.31.31,0,0,1-.113-.241l-.014-8.946a.228.228,0,0,1,.223-.23l1.312-.012a.432.432,0,0,1,.356.188l4.066,5.8q.2.292.207-.064l.029-5.731a.129.129,0,0,1,.119-.124l.7-.078.718.045a.138.138,0,0,1,.119.143l.05,6.793a.364.364,0,0,0,.185.318,3.564,3.564,0,0,1,1.718,2.264,7.934,7.934,0,0,1,.257,2.916,27.374,27.374,0,0,1-1.5,6.708,18.667,18.667,0,0,1-2.538,2.063,49.429,49.429,0,0,0,2.039-6.805,14.306,14.306,0,0,0,.309-1.915,7.212,7.212,0,0,0-.048-1.946,2.571,2.571,0,0,0-1.583-1.953,1.99,1.99,0,0,0-1.625,0,5.626,5.626,0,0,0-2.12,1.561q-.96,1.129-1.34,1.689a2.529,2.529,0,0,0,.119,3.117,13.255,13.255,0,0,1,2.336,7.482,4.594,4.594,0,0,1-1.644.927,7.471,7.471,0,0,1-.083-1.057,10.507,10.507,0,0,0-6.608-9.847A18.79,18.79,0,0,0,84,204.581a33.714,33.714,0,0,0-11.615.775,13.771,13.771,0,0,0-5.123,2.319,8.57,8.57,0,0,0-3.281,5.57,18.427,18.427,0,0,0-.059,4.327.332.332,0,0,1-.356-.178.356.356,0,0,0-.475-.278l-.832-.494a11.121,11.121,0,0,1,1.041-6.755,10.569,10.569,0,0,1,2.07-2.823,10.931,10.931,0,0,1,2.9-2.041,21.222,21.222,0,0,1,5.121-1.694,36.54,36.54,0,0,1,4.717-.566,37.5,37.5,0,0,1,7.138.226,27.192,27.192,0,0,1,6.014,1.471q.375.138,1.711.516a.249.249,0,0,0,.219-.021q.131-.109-.116-.288a18.3,18.3,0,0,0-7.223-3.151,24.681,24.681,0,0,0-6.544-.309,26.119,26.119,0,0,0-9.017,2.224q-1.053.482-2.1.977a2.766,2.766,0,0,1-1.01.318,1.616,1.616,0,0,1-1.055-.375q-1.06-.846-2.153-1.647a10.914,10.914,0,0,0-2.847-1.506,5.243,5.243,0,0,0-1.934-.359,3.156,3.156,0,0,0-1.91.739,2.989,2.989,0,0,0-1.143,2.3,12.053,12.053,0,0,0,.794,4.538,41.466,41.466,0,0,0,3.415,7.045,29.6,29.6,0,0,1-3.139-2.386l-.3-.356a23.043,23.043,0,0,1-2.436-7.178,7.63,7.63,0,0,1,.178-3.089,4.118,4.118,0,0,1,2.022-2.569.164.164,0,0,0,.074-.176,4.877,4.877,0,0,1,.413-3.538,4.405,4.405,0,0,1,4.111-2.455,4.846,4.846,0,0,1,3.4,1.324.188.188,0,0,1,.059.145.217.217,0,0,1-.069.15l-1.048.984a.138.138,0,0,1-.178.014,3.038,3.038,0,0,0-3.312-.561,2.779,2.779,0,0,0-1.381,1.314,3,3,0,0,0-.235,1.91.135.135,0,0,0,.143.109,8.177,8.177,0,0,1,4.035.827,19.637,19.637,0,0,1,4.177,2.768.609.609,0,0,0,.639.081l3.771-1.656a.111.111,0,0,0,.06-.065.106.106,0,0,0-.008-.087,5.025,5.025,0,0,1-.454-4.163,4.3,4.3,0,0,1,2.687-2.778,4.53,4.53,0,0,1,3.179-.135,4.694,4.694,0,0,1,2.424,1.763,4.8,4.8,0,0,1,.8,3.557.184.184,0,0,0,.046.15.189.189,0,0,0,.146.061,31.769,31.769,0,0,1,6.1.378.1.1,0,0,0,.121-.1q-.009-1.846.012-3.652,0-.031.048-.345.055-.361-.416-.323a.232.232,0,0,1-.2-.113.557.557,0,0,1-.093-.3l-.033-1.262a.134.134,0,0,1,.14-.126l2.956-.031a.255.255,0,0,1,.182.074.251.251,0,0,1,.074.18Zm-11.916.748a2.611,2.611,0,0,0-2.2-.656,2.762,2.762,0,0,0-2.177,1.666,2.889,2.889,0,0,0,.392,3.148.279.279,0,0,0,.295.1,30.925,30.925,0,0,1,4.415-.848.185.185,0,0,0,.157-.124A2.816,2.816,0,0,0,77.113,196.139Zm19.769,6.254a12.053,12.053,0,0,1,2.4-1.687.112.112,0,0,0,.057-.069.1.1,0,0,0-.014-.085l-2.4-3.472q-.076-.109-.076.021l-.057,5.251Q96.785,202.479,96.882,202.393Z" transform="translate(-32.796 -140.707)" fill="#221715"/>
    <path id="パス_30439" data-name="パス 30439" d="M135,202.294a2.816,2.816,0,0,1,.884,3.289.185.185,0,0,1-.157.124,30.924,30.924,0,0,0-4.415.848.279.279,0,0,1-.295-.1,2.889,2.889,0,0,1-.392-3.148,2.762,2.762,0,0,1,2.177-1.666A2.611,2.611,0,0,1,135,202.294Z" transform="translate(-90.686 -146.862)" fill="#c3d600"/>
    <path id="パス_30440" data-name="パス 30440" d="M232.895,213.623q-.1.086-.1-.04l.057-5.251q0-.131.076-.021l2.4,3.472a.1.1,0,0,1,.014.085.112.112,0,0,1-.057.069A12.052,12.052,0,0,0,232.895,213.623Z" transform="translate(-168.809 -151.937)" fill="#9abc0e"/>
    <path id="パス_30441" data-name="パス 30441" d="M67.857,239.993l-1.91-1.179a41.465,41.465,0,0,1-3.415-7.045,12.053,12.053,0,0,1-.794-4.538,2.989,2.989,0,0,1,1.143-2.3,3.156,3.156,0,0,1,1.91-.739,5.243,5.243,0,0,1,1.934.359,10.914,10.914,0,0,1,2.847,1.506q1.093.8,2.153,1.647a1.616,1.616,0,0,0,1.055.375,2.766,2.766,0,0,0,1.01-.318q1.045-.494,2.1-.977a26.119,26.119,0,0,1,9.017-2.224,24.681,24.681,0,0,1,6.544.309,18.305,18.305,0,0,1,7.223,3.151q.247.178.116.288a.248.248,0,0,1-.219.021q-1.335-.378-1.711-.516a27.192,27.192,0,0,0-6.014-1.471,37.5,37.5,0,0,0-7.138-.226,36.54,36.54,0,0,0-4.717.566,21.222,21.222,0,0,0-5.121,1.694,10.931,10.931,0,0,0-2.9,2.041,10.569,10.569,0,0,0-2.07,2.823A11.121,11.121,0,0,0,67.857,239.993Z" transform="translate(-38.392 -164.079)" fill="#c3d600"/>
    <path id="パス_30442" data-name="パス 30442" d="M235.012,242.336l-1.913,1.226a13.255,13.255,0,0,0-2.336-7.482,2.529,2.529,0,0,1-.119-3.117q.38-.561,1.34-1.689a5.626,5.626,0,0,1,2.12-1.561,1.99,1.99,0,0,1,1.625,0,2.57,2.57,0,0,1,1.583,1.953,7.212,7.212,0,0,1,.048,1.946,14.3,14.3,0,0,1-.309,1.915A49.429,49.429,0,0,1,235.012,242.336Z" transform="translate(-166.799 -168.161)" fill="#9abc0e"/>
    <path id="パス_30443" data-name="パス 30443" d="M114.281,239.424q.219.128-.017.114a.186.186,0,0,0-.081.007.36.36,0,0,0-.261.271.394.394,0,0,1-.1.2q-.915.858-1.746,1.792-1.174,1.316-1.687,1.834-1.533,1.547-3.058,3.1a6.883,6.883,0,0,0-.777,1.043,4.826,4.826,0,0,1-.979,1.1,4.051,4.051,0,0,0-.594.606.181.181,0,0,0,0,.183q.045.1-.147.135-.209.036-.416.067-1.63-.133-1.1,1.447a20,20,0,0,0-2.787,2.685.365.365,0,0,0-.074.209q-.017.276-.321.116-.463-.242-.409.157a23.99,23.99,0,0,1-4.629-1.445.335.335,0,0,1-.162-.15.99.99,0,0,0-.734-.485,18.427,18.427,0,0,1,.059-4.327,8.57,8.57,0,0,1,3.281-5.57,13.771,13.771,0,0,1,5.123-2.319A33.714,33.714,0,0,1,114.281,239.424Z" transform="translate(-63.074 -175.55)" fill="#bcd202"/>
    <path id="パス_30444" data-name="パス 30444" d="M132.285,240.04a18.79,18.79,0,0,1,6.758,1.549,10.507,10.507,0,0,1,6.608,9.847,7.476,7.476,0,0,0,.083,1.057.364.364,0,0,1-.245.268q-1.958.882-3.93,1.73a.51.51,0,0,0-.183.145,1.337,1.337,0,0,1-.715.423,34.138,34.138,0,0,1-3.745.813,15.237,15.237,0,0,0-2.21.487,5.035,5.035,0,0,1-1.19.178,5.414,5.414,0,0,0-1.592.309,42.77,42.77,0,0,1-6.575,0,5.668,5.668,0,0,0-2.153-.307.367.367,0,0,1-.211-.064,1.369,1.369,0,0,0-.739-.166,16.485,16.485,0,0,1-2.55-.547q-.05-.012-.373-.033a.464.464,0,0,1-.356-.195.354.354,0,0,0-.178-.133l-1.057-.29q-.055-.4.409-.157.3.159.321-.116a.365.365,0,0,1,.074-.209,20,20,0,0,1,2.787-2.685q1.7.908,1.6-.832a.576.576,0,0,0-.147-.375,1.009,1.009,0,0,0-.347-.24q.207-.031.416-.067.192-.036.147-.135a.181.181,0,0,1,0-.183,4.054,4.054,0,0,1,.594-.606,4.826,4.826,0,0,0,.979-1.1,6.881,6.881,0,0,1,.777-1.043q1.525-1.554,3.058-3.1.513-.518,1.687-1.834.832-.934,1.746-1.792a.394.394,0,0,0,.1-.2.36.36,0,0,1,.261-.271.186.186,0,0,1,.081-.007Q132.5,240.168,132.285,240.04Zm-3.99,10.98a.5.5,0,0,0-.406.535.739.739,0,0,0,.535.841q.668.663,1.129-.119.57-.872-.133-1.362A.92.92,0,0,0,128.3,251.02Zm8.8.656a.848.848,0,1,0-.848.848A.848.848,0,0,0,137.1,251.676Z" transform="translate(-81.078 -176.166)" fill="#a7c409"/>
    <path id="パス_30445" data-name="パス 30445" d="M202.128,254q.171.316-.154,1.1a2.3,2.3,0,0,0-.169.656,1.232,1.232,0,0,1-.278.57,3.192,3.192,0,0,0-.34.528,8.555,8.555,0,0,1-.639,1.2,12.708,12.708,0,0,0-1.138,1.663q-.739,1.288-1.053,1.711a31.5,31.5,0,0,1-5.893,6.064q-7.425.268-14.984,0a5.414,5.414,0,0,1,1.592-.309,5.036,5.036,0,0,0,1.19-.178,15.233,15.233,0,0,1,2.21-.487,34.143,34.143,0,0,0,3.745-.813,1.337,1.337,0,0,0,.715-.423.511.511,0,0,1,.183-.145q1.972-.848,3.93-1.73a.364.364,0,0,0,.245-.268,4.594,4.594,0,0,0,1.644-.927l1.913-1.226a18.667,18.667,0,0,0,2.538-2.062A37.742,37.742,0,0,0,202.128,254Z" transform="translate(-126.634 -186.808)" fill="#d8dfb8"/>
    <path id="パス_30446" data-name="パス 30446" d="M65.655,275.71a29.605,29.605,0,0,0,3.139,2.386l1.91,1.179.832.494a.581.581,0,0,0,.475.278.332.332,0,0,0,.356.178.99.99,0,0,1,.734.485.335.335,0,0,0,.162.15,23.988,23.988,0,0,0,4.629,1.445l1.057.29a.354.354,0,0,1,.178.133.464.464,0,0,0,.356.195q.323.021.373.033a16.482,16.482,0,0,0,2.55.547,1.369,1.369,0,0,1,.739.166.367.367,0,0,0,.211.064,5.668,5.668,0,0,1,2.153.307l-12.192.166a.672.672,0,0,1,.394-.055q.09.017.057-.069a.8.8,0,0,0-.392-.475q-.2-.1-.226-.114-2.421-1.54-2.923-1.951a33.613,33.613,0,0,1-2.977-2.982l-.594-.547a2.2,2.2,0,0,1-.691-1.371.549.549,0,0,0-.245-.383Q65.253,275.955,65.655,275.71Z" transform="translate(-41.239 -203.36)" fill="#dde1ae"/>
    <path id="パス_30447" data-name="パス 30447" d="M133.549,284.007a1.01,1.01,0,0,1,.347.24.576.576,0,0,1,.147.375q.1,1.739-1.6.832Q131.919,283.874,133.549,284.007Z" transform="translate(-92.203 -209.677)" fill="#221715"/>
    <path id="パス_30448" data-name="パス 30448" d="M162.981,286.7a1.736,1.736,0,0,1-1.069.1,1.1,1.1,0,0,1-.188-1.357.92.92,0,0,1,1.124-.1Q163.552,285.827,162.981,286.7Z" transform="translate(-114.507 -210.588)" fill="#221715"/>
    <circle id="楕円形_295" data-name="楕円形 295" cx="0.848" cy="0.848" r="0.848" transform="translate(54.325 74.662)" fill="#221715"/>
    <path id="パス_30449" data-name="パス 30449" d="M160.9,286.25a1.1,1.1,0,0,0,.188,1.357l-.059.019a.739.739,0,0,1-.535-.841A.5.5,0,0,1,160.9,286.25Z" transform="translate(-113.684 -211.395)" fill="#8ab313"/>
    <path id="パス_30450" data-name="パス 30450" d="M163.879,291.54q-.461.782-1.129.119l.059-.019A1.737,1.737,0,0,0,163.879,291.54Z" transform="translate(-115.404 -215.428)" fill="#8ab313"/>
    <path id="パス_30451" data-name="パス 30451" d="M91,292.74a.356.356,0,0,1,.475.278A.581.581,0,0,1,91,292.74Z" transform="translate(-60.703 -216.331)" fill="#221715"/>
    <path id="パス_30452" data-name="パス 30452" d="M96.217,310.76a42.77,42.77,0,0,0,6.575,0q7.559.271,14.984,0l2.9.062a.293.293,0,0,1-.3.337l-3.317.026q-1.5-.1-4.108-.076-16.664.131-33.325-.074-.2,0-.055-.242l4.451.128Z" transform="translate(-51.946 -230.081)" fill="#a6b081"/>
    <path id="パス_30453" data-name="パス 30453" d="M124.769,317.76H122.69A7.257,7.257,0,0,1,124.769,317.76Z" transform="translate(-84.863 -235.361)" fill="#fbfcf9"/>
    <path id="パス_30454" data-name="パス 30454" d="M186.789,317.76h-4.1A28.1,28.1,0,0,1,186.789,317.76Z" transform="translate(-130.606 -235.361)" fill="#fff"/>
  </g>
</svg>
