<svg xmlns="http://www.w3.org/2000/svg" width="13.137" height="13.137" viewBox="0 0 13.137 13.137"><path d="M86.634,186.395a.617.617,0,1,0-.443-.181A.6.6,0,0,0,86.634,186.395Zm-.575-2.4h.969a2.688,2.688,0,0,1,.107-.78,1.933,1.933,0,0,1,.665-.813,2.874,2.874,0,0,0,.723-.837,1.928,1.928,0,0,0,.213-.9,1.813,1.813,0,0,0-.567-1.4,2.121,2.121,0,0,0-1.5-.525,2.538,2.538,0,0,0-1.42.4,2.3,2.3,0,0,0-.895,1.108l.87.328a1.532,1.532,0,0,1,.542-.714,1.444,1.444,0,0,1,.854-.255,1.316,1.316,0,0,1,.9.3.992.992,0,0,1,.345.78,1.207,1.207,0,0,1-.213.681,3.271,3.271,0,0,1-.624.665,3.34,3.34,0,0,0-.731.846A2.235,2.235,0,0,0,86.059,184Zm.509,5.14a6.356,6.356,0,0,1-2.545-.517,6.618,6.618,0,0,1-3.506-3.506,6.561,6.561,0,0,1,0-5.107,6.564,6.564,0,0,1,1.412-2.085,6.733,6.733,0,0,1,2.094-1.4,6.561,6.561,0,0,1,5.107,0,6.558,6.558,0,0,1,3.49,3.49,6.561,6.561,0,0,1,0,5.107,6.734,6.734,0,0,1-1.4,2.094,6.564,6.564,0,0,1-2.085,1.412A6.4,6.4,0,0,1,86.568,189.137Zm0-.985a5.579,5.579,0,1,0-3.949-1.634A5.373,5.373,0,0,0,86.568,188.152ZM86.568,182.569Z" transform="translate(-80 -176)" fill="#8d8d8d"/></svg>